<?xml version="1.0" encoding="UTF-8"?>
<!DOCTYPE svg PUBLIC "-//W3C//DTD SVG 1.1//EN" "http://www.w3.org/Graphics/SVG/1.1/DTD/svg11.dtd">
<!-- Creator: CorelDRAW 2019 (64 Bit) -->
<svg xmlns="http://www.w3.org/2000/svg" xml:space="preserve" width="295px" height="95px" version="1.1" style="shape-rendering:geometricPrecision; text-rendering:geometricPrecision; image-rendering:optimizeQuality; fill-rule:evenodd; clip-rule:evenodd"
viewBox="0 0 36.39 11.77"
 xmlns:xlink="http://www.w3.org/1999/xlink">
 <defs>
  <style type="text/css">
   <![CDATA[
    .fil6 {fill:none}
    .fil0 {fill:#333131}
    .fil1 {fill:#555555}
    .fil2 {fill:#599636}
    .fil3 {fill:#6CAC48}
    .fil4 {fill:#C2BFBF}
    .fil5 {fill:white;fill-rule:nonzero}
   ]]>
  </style>
   <clipPath id="id0">
    <path d="M0 11.77l36.39 0 0 -11.77 -36.39 0 0 11.77z"/>
   </clipPath>
 </defs>
 <g id="Camada_x0020_1">
  <metadata id="CorelCorpID_0Corel-Layer"/>
  <polygon class="fil0" points="0,11.77 36.39,11.77 36.39,0 0,0 "/>
  <g style="clip-path:url(#id0)">
   <g id="_2383491601920">
    <g>
     <rect class="fil1" x="-2.26" y="0.49" width="0" height="10.79"/>
     <g>
      <path class="fil2" d="M7.28 1.44l0.24 0.46c0.06,0.09 0.12,0.17 0.19,0.24 0.21,0.2 0.4,0.42 0.58,0.65 0.42,0.55 0.7,1.16 0.9,1.82 0.12,0.41 0.19,0.82 0.19,1.24 0.02,1.25 -0.41,2.32 -1.27,3.21 -0.14,0.14 -0.29,0.28 -0.45,0.39 -0.09,0 -0.13,-0.06 -0.17,-0.12 -0.06,-0.12 -0.1,-0.24 -0.12,-0.37 -0.03,-0.15 -0.05,-0.3 -0.04,-0.46l0 -0.07c-0.01,-0.01 -0.08,-6.95 -0.05,-6.99l0 0z"/>
      <path class="fil3" d="M7.28 1.43c-0.01,-0.03 -0.02,-0.01 -0.03,0 0,0.1 -0.03,0.19 -0.09,0.28 -0.06,0.08 -0.14,0.15 -0.22,0.22 -0.45,0.39 -0.8,0.86 -1.09,1.38 -0.37,0.71 -0.57,1.46 -0.62,2.26 -0.03,0.29 0.09,1.3 0.18,1.59 0.25,0.78 0.69,1.43 1.27,1.99 0.14,0.14 0.29,0.27 0.44,0.39 0.05,0 0.05,-0.04 0.07,-0.07 0.02,-0.07 0.03,-0.13 0.04,-0.2l0.1 -0.76 -0.05 -7.08z"/>
      <path class="fil4" d="M7.52 9.76c0.01,-0.12 0.07,-0.21 0.13,-0.31 -0.06,-0.02 -0.11,-0.07 -0.14,-0.13 -0.03,-0.05 -0.06,-0.11 -0.08,-0.17 -0.07,-0.21 -0.08,-0.43 -0.1,-0.65l0 -0.13c-0.03,0.02 -0.03,0.19 -0.03,0.22 -0.02,0.23 -0.05,0.46 -0.09,0.68 -0.02,0.09 -0.03,0.18 -0.09,0.26 0,0.01 0,0.02 0.01,0.04 0.09,0.27 0.12,0.54 0.13,0.82l0 0.1c0,0.12 0,0.09 0.1,0.13 0.04,0.02 0.08,0.02 0.12,0.05 0.03,0 0.04,-0.02 0.04,-0.04l-0.02 -0.17 0 -0.46c0,-0.08 0.01,-0.16 0.02,-0.24l0 0z"/>
     </g>
     <polygon class="fil5" points="15.67,7.78 14.94,7.78 14.94,5.9 14.42,7.12 13.93,7.12 13.41,5.9 13.41,7.78 12.73,7.78 12.73,4.98 13.57,4.98 14.2,6.38 14.82,4.98 15.67,4.98 "/>
     <path id="1" class="fil5" d="M19.51 6.38c0,0.45 -0.13,0.8 -0.38,1.06 -0.26,0.27 -0.61,0.4 -1.06,0.4 -0.45,0 -0.81,-0.13 -1.06,-0.4 -0.26,-0.26 -0.39,-0.61 -0.39,-1.06 0,-0.45 0.13,-0.81 0.39,-1.07 0.25,-0.26 0.61,-0.39 1.06,-0.39 0.45,0 0.8,0.13 1.06,0.39 0.25,0.26 0.38,0.62 0.38,1.07zm-0.96 0.71c0.07,-0.09 0.13,-0.19 0.16,-0.3 0.03,-0.12 0.05,-0.26 0.05,-0.41 0,-0.17 -0.02,-0.31 -0.06,-0.43 -0.04,-0.12 -0.09,-0.22 -0.15,-0.29 -0.06,-0.07 -0.14,-0.13 -0.22,-0.16 -0.08,-0.04 -0.17,-0.05 -0.26,-0.05 -0.09,0 -0.18,0.01 -0.26,0.05 -0.08,0.03 -0.16,0.08 -0.22,0.16 -0.07,0.07 -0.12,0.17 -0.16,0.29 -0.04,0.12 -0.06,0.27 -0.06,0.43 0,0.17 0.02,0.31 0.06,0.43 0.04,0.11 0.09,0.21 0.15,0.28 0.07,0.08 0.14,0.13 0.22,0.17 0.09,0.03 0.18,0.05 0.27,0.05 0.09,0 0.18,-0.02 0.26,-0.06 0.09,-0.03 0.16,-0.09 0.22,-0.16z"/>
     <polygon id="2" class="fil5" points="23.02,7.78 22.32,7.78 21.13,5.86 21.13,7.78 20.47,7.78 20.47,4.98 21.33,4.98 22.36,6.58 22.36,4.98 23.02,4.98 "/>
     <path id="3" class="fil5" d="M26.62 7.62c-0.13,0.05 -0.29,0.1 -0.5,0.14 -0.21,0.05 -0.41,0.08 -0.62,0.08 -0.48,0 -0.85,-0.13 -1.12,-0.39 -0.27,-0.26 -0.41,-0.62 -0.41,-1.08 0,-0.43 0.14,-0.78 0.41,-1.05 0.28,-0.27 0.65,-0.4 1.14,-0.4 0.19,0 0.36,0.02 0.53,0.05 0.17,0.03 0.35,0.1 0.56,0.2l0 0.66 -0.08 0c-0.04,-0.03 -0.09,-0.07 -0.16,-0.12 -0.07,-0.04 -0.13,-0.09 -0.19,-0.12 -0.08,-0.04 -0.16,-0.07 -0.26,-0.1 -0.1,-0.03 -0.2,-0.05 -0.31,-0.05 -0.13,0 -0.24,0.02 -0.35,0.06 -0.1,0.04 -0.19,0.1 -0.28,0.17 -0.08,0.08 -0.14,0.17 -0.19,0.29 -0.04,0.12 -0.06,0.25 -0.06,0.4 0,0.31 0.08,0.55 0.24,0.71 0.17,0.17 0.41,0.25 0.73,0.25 0.03,0 0.06,0 0.09,0 0.04,0 0.07,0 0.1,-0.01l0 -0.55 -0.57 0 0 -0.53 1.3 0 0 1.39z"/>
     <path id="4" class="fil5" d="M30.4 6.38c0,0.45 -0.13,0.8 -0.39,1.06 -0.25,0.27 -0.61,0.4 -1.06,0.4 -0.45,0 -0.8,-0.13 -1.06,-0.4 -0.26,-0.26 -0.38,-0.61 -0.38,-1.06 0,-0.45 0.12,-0.81 0.38,-1.07 0.26,-0.26 0.61,-0.39 1.06,-0.39 0.45,0 0.8,0.13 1.06,0.39 0.26,0.26 0.39,0.62 0.39,1.07zm-0.96 0.71c0.07,-0.09 0.12,-0.19 0.15,-0.3 0.04,-0.12 0.06,-0.26 0.06,-0.41 0,-0.17 -0.02,-0.31 -0.06,-0.43 -0.04,-0.12 -0.09,-0.22 -0.16,-0.29 -0.06,-0.07 -0.13,-0.13 -0.22,-0.16 -0.08,-0.04 -0.17,-0.05 -0.26,-0.05 -0.09,0 -0.18,0.01 -0.26,0.05 -0.08,0.03 -0.15,0.08 -0.22,0.16 -0.06,0.07 -0.11,0.17 -0.15,0.29 -0.04,0.12 -0.06,0.27 -0.06,0.43 0,0.17 0.02,0.31 0.06,0.43 0.03,0.11 0.08,0.21 0.15,0.28 0.06,0.08 0.13,0.13 0.22,0.17 0.08,0.03 0.17,0.05 0.26,0.05 0.1,0 0.18,-0.02 0.27,-0.06 0.08,-0.03 0.16,-0.09 0.22,-0.16z"/>
    </g>
   </g>
  </g>
  <polygon class="fil6" points="0,11.77 36.39,11.77 36.39,0 0,0 "/>
 </g>
</svg>
