<?xml version="1.0" encoding="UTF-8"?>
<!DOCTYPE svg PUBLIC "-//W3C//DTD SVG 1.1//EN" "http://www.w3.org/Graphics/SVG/1.1/DTD/svg11.dtd">
<!-- Creator: CorelDRAW 2019 (64 Bit) -->
<svg xmlns="http://www.w3.org/2000/svg" xml:space="preserve" width="101px" height="33px" version="1.1" style="shape-rendering:geometricPrecision; text-rendering:geometricPrecision; image-rendering:optimizeQuality; fill-rule:evenodd; clip-rule:evenodd"
viewBox="0 0 4.8 1.55"
 xmlns:xlink="http://www.w3.org/1999/xlink">
 <defs>
  <style type="text/css">
   <![CDATA[
    .fil6 {fill:none}
    .fil0 {fill:#333131}
    .fil1 {fill:#555555}
    .fil2 {fill:#599636}
    .fil3 {fill:#6CAC48}
    .fil4 {fill:#C2BFBF}
    .fil5 {fill:white;fill-rule:nonzero}
   ]]>
  </style>
   <clipPath id="id0">
    <path d="M0 1.55l4.8 0 0 -1.55 -4.8 0 0 1.55z"/>
   </clipPath>
 </defs>
 <g id="Camada_x0020_1">
  <metadata id="CorelCorpID_0Corel-Layer"/>
  <polygon class="fil0" points="0,1.55 4.8,1.55 4.8,0 0,0 "/>
  <g style="clip-path:url(#id0)">
   <g id="_2383323026944">
    <g>
     <rect class="fil1" x="-0.3" y="0.06" width="0" height="1.42"/>
     <g>
      <path class="fil2" d="M0.96 0.19l0.03 0.06c0.01,0.01 0.02,0.02 0.03,0.03 0.03,0.03 0.05,0.06 0.07,0.09 0.06,0.07 0.1,0.15 0.12,0.24 0.02,0.05 0.03,0.11 0.03,0.16 0,0.17 -0.06,0.31 -0.17,0.43 -0.02,0.02 -0.04,0.03 -0.06,0.05 -0.01,0 -0.02,-0.01 -0.02,-0.02 -0.01,-0.01 -0.01,-0.03 -0.02,-0.05 0,-0.02 0,-0.04 0,-0.06l0 -0.01c0,0 -0.01,-0.92 -0.01,-0.92l0 0z"/>
      <path class="fil3" d="M0.96 0.19c0,0 0,0 0,0 0,0.01 -0.01,0.02 -0.01,0.04 -0.01,0.01 -0.02,0.02 -0.03,0.02 -0.06,0.06 -0.11,0.12 -0.15,0.19 -0.05,0.09 -0.07,0.19 -0.08,0.3 0,0.03 0.01,0.17 0.02,0.21 0.04,0.1 0.1,0.18 0.17,0.26 0.02,0.02 0.04,0.03 0.06,0.05 0.01,0 0.01,-0.01 0.01,-0.01 0,-0.01 0,-0.02 0,-0.03l0.02 -0.1 -0.01 -0.93z"/>
      <path class="fil4" d="M0.99 1.29c0,-0.02 0.01,-0.03 0.02,-0.04 -0.01,-0.01 -0.01,-0.01 -0.02,-0.02 0,-0.01 -0.01,-0.01 -0.01,-0.02 -0.01,-0.03 -0.01,-0.06 -0.01,-0.09l0 -0.01c-0.01,0 -0.01,0.02 -0.01,0.02 0,0.03 0,0.06 -0.01,0.09 0,0.02 0,0.03 -0.01,0.04 0,0 0,0 0,0 0.01,0.04 0.02,0.07 0.02,0.11l0 0.01c0,0.02 0,0.02 0.01,0.02 0.01,0 0.01,0 0.02,0.01 0,0 0,0 0,-0.01l0 -0.02 0 -0.06c0,-0.01 0,-0.02 0,-0.03l0 0z"/>
     </g>
     <polygon class="fil5" points="2.07,1.03 1.97,1.03 1.97,0.78 1.9,0.94 1.84,0.94 1.77,0.78 1.77,1.03 1.68,1.03 1.68,0.66 1.79,0.66 1.87,0.84 1.96,0.66 2.07,0.66 "/>
     <path id="1" class="fil5" d="M2.58 0.84c0,0.06 -0.02,0.11 -0.05,0.14 -0.04,0.04 -0.09,0.05 -0.14,0.05 -0.06,0 -0.11,-0.01 -0.14,-0.05 -0.04,-0.03 -0.06,-0.08 -0.06,-0.14 0,-0.06 0.02,-0.1 0.06,-0.14 0.03,-0.03 0.08,-0.05 0.14,-0.05 0.05,0 0.1,0.02 0.13,0.05 0.04,0.04 0.06,0.08 0.06,0.14zm-0.13 0.1c0.01,-0.02 0.02,-0.03 0.02,-0.04 0,-0.02 0.01,-0.04 0.01,-0.06 0,-0.02 -0.01,-0.04 -0.01,-0.05 -0.01,-0.02 -0.01,-0.03 -0.02,-0.04 -0.01,-0.01 -0.02,-0.02 -0.03,-0.02 -0.01,-0.01 -0.02,-0.01 -0.03,-0.01 -0.02,0 -0.03,0 -0.04,0.01 -0.01,0 -0.02,0.01 -0.03,0.02 -0.01,0.01 -0.01,0.02 -0.02,0.04 0,0.01 -0.01,0.03 -0.01,0.05 0,0.02 0.01,0.04 0.01,0.06 0.01,0.01 0.01,0.03 0.02,0.04 0.01,0.01 0.02,0.01 0.03,0.02 0.01,0 0.02,0 0.04,0 0.01,0 0.02,0 0.03,0 0.01,-0.01 0.02,-0.01 0.03,-0.02z"/>
     <polygon id="2" class="fil5" points="3.04,1.03 2.95,1.03 2.79,0.77 2.79,1.03 2.7,1.03 2.7,0.66 2.82,0.66 2.95,0.87 2.95,0.66 3.04,0.66 "/>
     <path id="3" class="fil5" d="M3.51 1.01c-0.01,0 -0.03,0.01 -0.06,0.02 -0.03,0 -0.06,0 -0.08,0 -0.07,0 -0.12,-0.01 -0.15,-0.05 -0.04,-0.03 -0.05,-0.08 -0.05,-0.14 0,-0.06 0.01,-0.1 0.05,-0.14 0.03,-0.03 0.09,-0.05 0.15,-0.05 0.02,0 0.05,0 0.07,0.01 0.02,0 0.05,0.01 0.07,0.02l0 0.09 -0.01 0c0,0 -0.01,-0.01 -0.02,-0.02 -0.01,0 -0.02,-0.01 -0.02,-0.01 -0.01,-0.01 -0.03,-0.01 -0.04,-0.02 -0.01,0 -0.02,0 -0.04,0 -0.02,0 -0.03,0 -0.04,0.01 -0.02,0 -0.03,0.01 -0.04,0.02 -0.01,0.01 -0.02,0.02 -0.03,0.04 0,0.01 -0.01,0.03 -0.01,0.05 0,0.04 0.02,0.07 0.04,0.09 0.02,0.03 0.05,0.04 0.09,0.04 0.01,0 0.01,0 0.02,0 0,0 0,0 0.01,0l0 -0.08 -0.08 0 0 -0.07 0.17 0 0 0.19z"/>
     <path id="4" class="fil5" d="M4.01 0.84c0,0.06 -0.01,0.11 -0.05,0.14 -0.03,0.04 -0.08,0.05 -0.14,0.05 -0.06,0 -0.1,-0.01 -0.14,-0.05 -0.03,-0.03 -0.05,-0.08 -0.05,-0.14 0,-0.06 0.02,-0.1 0.05,-0.14 0.04,-0.03 0.08,-0.05 0.14,-0.05 0.06,0 0.11,0.02 0.14,0.05 0.04,0.04 0.05,0.08 0.05,0.14zm-0.12 0.1c0.01,-0.02 0.01,-0.03 0.02,-0.04 0,-0.02 0,-0.04 0,-0.06 0,-0.02 0,-0.04 0,-0.05 -0.01,-0.02 -0.02,-0.03 -0.02,-0.04 -0.01,-0.01 -0.02,-0.02 -0.03,-0.02 -0.01,-0.01 -0.03,-0.01 -0.04,-0.01 -0.01,0 -0.02,0 -0.03,0.01 -0.01,0 -0.02,0.01 -0.03,0.02 -0.01,0.01 -0.02,0.02 -0.02,0.04 -0.01,0.01 -0.01,0.03 -0.01,0.05 0,0.02 0,0.04 0.01,0.06 0,0.01 0.01,0.03 0.02,0.04 0.01,0.01 0.02,0.01 0.03,0.02 0.01,0 0.02,0 0.03,0 0.01,0 0.03,0 0.04,0 0.01,-0.01 0.02,-0.01 0.03,-0.02z"/>
    </g>
   </g>
  </g>
  <polygon class="fil6" points="0,1.55 4.8,1.55 4.8,0 0,0 "/>
 </g>
</svg>
