<?xml version="1.0" encoding="UTF-8"?>
<!DOCTYPE svg PUBLIC "-//W3C//DTD SVG 1.1//EN" "http://www.w3.org/Graphics/SVG/1.1/DTD/svg11.dtd">
<!-- Creator: CorelDRAW 2019 (64 Bit) -->
<svg xmlns="http://www.w3.org/2000/svg" xml:space="preserve" width="236px" height="76px" version="1.1" style="shape-rendering:geometricPrecision; text-rendering:geometricPrecision; image-rendering:optimizeQuality; fill-rule:evenodd; clip-rule:evenodd"
viewBox="0 0 25.69 8.31"
 xmlns:xlink="http://www.w3.org/1999/xlink">
 <defs>
  <style type="text/css">
   <![CDATA[
    .fil6 {fill:none}
    .fil0 {fill:#333131}
    .fil1 {fill:#555555}
    .fil2 {fill:#599636}
    .fil3 {fill:#6CAC48}
    .fil4 {fill:#C2BFBF}
    .fil5 {fill:white;fill-rule:nonzero}
   ]]>
  </style>
   <clipPath id="id0">
    <path d="M0 8.31l25.69 0 0 -8.31 -25.69 0 0 8.31z"/>
   </clipPath>
 </defs>
 <g id="Camada_x0020_1">
  <metadata id="CorelCorpID_0Corel-Layer"/>
  <polygon class="fil0" points="0,8.31 25.69,8.31 25.69,0 0,0 "/>
  <g style="clip-path:url(#id0)">
   <g id="_2347815460816">
    <g>
     <rect class="fil1" x="-1.59" y="0.35" width="0" height="7.62"/>
     <g>
      <path class="fil2" d="M5.14 1.02l0.17 0.32c0.04,0.07 0.08,0.12 0.13,0.17 0.15,0.14 0.29,0.3 0.41,0.46 0.3,0.39 0.5,0.82 0.64,1.29 0.09,0.28 0.13,0.57 0.14,0.87 0.01,0.88 -0.29,1.64 -0.9,2.27 -0.1,0.1 -0.21,0.19 -0.32,0.27 -0.06,0 -0.09,-0.04 -0.12,-0.08 -0.04,-0.08 -0.07,-0.17 -0.09,-0.26 -0.02,-0.11 -0.03,-0.21 -0.03,-0.32l0 -0.05c0,-0.02 -0.05,-4.92 -0.03,-4.94l0 0z"/>
      <path class="fil3" d="M5.14 1.01c-0.01,-0.02 -0.02,-0.01 -0.02,0 0,0.07 -0.03,0.14 -0.06,0.2 -0.05,0.06 -0.1,0.1 -0.16,0.15 -0.32,0.28 -0.57,0.61 -0.77,0.98 -0.26,0.5 -0.4,1.03 -0.44,1.59 -0.02,0.21 0.07,0.92 0.13,1.13 0.18,0.55 0.49,1.01 0.89,1.4 0.1,0.1 0.21,0.19 0.32,0.28 0.03,0 0.04,-0.03 0.04,-0.05 0.02,-0.05 0.03,-0.1 0.04,-0.14l0.07 -0.54 -0.04 -5z"/>
      <path class="fil4" d="M5.31 6.89c0.01,-0.08 0.05,-0.15 0.09,-0.22 -0.04,-0.01 -0.07,-0.05 -0.1,-0.09 -0.02,-0.04 -0.04,-0.08 -0.05,-0.12 -0.05,-0.15 -0.06,-0.3 -0.08,-0.45l0 -0.1c-0.01,0.02 -0.02,0.14 -0.02,0.16 -0.01,0.16 -0.03,0.32 -0.06,0.48 -0.01,0.06 -0.02,0.12 -0.06,0.18 0,0.01 0,0.02 0,0.03 0.07,0.19 0.09,0.38 0.1,0.57l0 0.07c0,0.09 -0.01,0.07 0.06,0.1 0.03,0.01 0.06,0.02 0.09,0.04 0.02,0 0.03,-0.02 0.03,-0.04l-0.01 -0.11 0 -0.33c-0.01,-0.06 0,-0.11 0.01,-0.17l0 0z"/>
     </g>
     <polygon class="fil5" points="11.06,5.49 10.55,5.49 10.55,4.17 10.19,5.03 9.83,5.03 9.47,4.17 9.47,5.49 8.99,5.49 8.99,3.51 9.58,3.51 10.02,4.51 10.47,3.51 11.06,3.51 "/>
     <path id="1" class="fil5" d="M13.78 4.5c0,0.32 -0.09,0.57 -0.27,0.76 -0.18,0.18 -0.43,0.27 -0.75,0.27 -0.32,0 -0.57,-0.09 -0.75,-0.27 -0.18,-0.19 -0.27,-0.44 -0.27,-0.76 0,-0.31 0.09,-0.56 0.27,-0.75 0.18,-0.18 0.43,-0.28 0.75,-0.28 0.31,0 0.56,0.1 0.75,0.28 0.18,0.19 0.27,0.44 0.27,0.75zm-0.68 0.51c0.05,-0.06 0.09,-0.14 0.11,-0.22 0.03,-0.08 0.04,-0.18 0.04,-0.29 0,-0.12 -0.02,-0.22 -0.04,-0.3 -0.03,-0.08 -0.07,-0.15 -0.11,-0.2 -0.05,-0.05 -0.1,-0.09 -0.16,-0.12 -0.06,-0.02 -0.12,-0.03 -0.18,-0.03 -0.07,0 -0.13,0.01 -0.18,0.03 -0.06,0.02 -0.11,0.06 -0.16,0.12 -0.05,0.05 -0.08,0.11 -0.11,0.2 -0.03,0.09 -0.04,0.19 -0.04,0.3 0,0.12 0.01,0.22 0.04,0.31 0.03,0.08 0.06,0.15 0.11,0.2 0.04,0.05 0.09,0.09 0.15,0.11 0.06,0.03 0.12,0.04 0.19,0.04 0.06,0 0.13,-0.01 0.19,-0.04 0.06,-0.02 0.11,-0.06 0.15,-0.11z"/>
     <polygon id="2" class="fil5" points="16.25,5.49 15.76,5.49 14.92,4.14 14.92,5.49 14.46,5.49 14.46,3.51 15.07,3.51 15.79,4.65 15.79,3.51 16.25,3.51 "/>
     <path id="3" class="fil5" d="M18.8 5.38c-0.09,0.03 -0.21,0.07 -0.36,0.1 -0.14,0.04 -0.29,0.05 -0.43,0.05 -0.34,0 -0.6,-0.09 -0.79,-0.27 -0.2,-0.18 -0.29,-0.44 -0.29,-0.76 0,-0.31 0.1,-0.55 0.29,-0.74 0.19,-0.19 0.46,-0.29 0.8,-0.29 0.13,0 0.26,0.02 0.37,0.04 0.12,0.02 0.25,0.07 0.4,0.14l0 0.46 -0.06 0c-0.02,-0.02 -0.06,-0.04 -0.11,-0.08 -0.05,-0.03 -0.09,-0.06 -0.14,-0.08 -0.05,-0.03 -0.11,-0.06 -0.18,-0.08 -0.07,-0.02 -0.14,-0.03 -0.21,-0.03 -0.1,0 -0.18,0.02 -0.25,0.04 -0.07,0.03 -0.14,0.07 -0.2,0.13 -0.05,0.05 -0.1,0.12 -0.13,0.2 -0.03,0.08 -0.05,0.18 -0.05,0.28 0,0.22 0.06,0.39 0.17,0.51 0.12,0.11 0.29,0.17 0.52,0.17 0.02,0 0.04,0 0.06,0 0.03,0 0.05,0 0.07,-0.01l0 -0.39 -0.4 0 0 -0.37 0.92 0 0 0.98z"/>
     <path id="4" class="fil5" d="M21.46 4.5c0,0.32 -0.09,0.57 -0.27,0.76 -0.18,0.18 -0.43,0.27 -0.75,0.27 -0.31,0 -0.56,-0.09 -0.75,-0.27 -0.18,-0.19 -0.27,-0.44 -0.27,-0.76 0,-0.31 0.09,-0.56 0.27,-0.75 0.19,-0.18 0.44,-0.28 0.75,-0.28 0.32,0 0.57,0.1 0.75,0.28 0.18,0.19 0.27,0.44 0.27,0.75zm-0.67 0.51c0.05,-0.06 0.08,-0.14 0.11,-0.22 0.02,-0.08 0.03,-0.18 0.03,-0.29 0,-0.12 -0.01,-0.22 -0.04,-0.3 -0.02,-0.08 -0.06,-0.15 -0.1,-0.2 -0.05,-0.05 -0.1,-0.09 -0.16,-0.12 -0.06,-0.02 -0.12,-0.03 -0.19,-0.03 -0.06,0 -0.12,0.01 -0.18,0.03 -0.06,0.02 -0.11,0.06 -0.16,0.12 -0.04,0.05 -0.08,0.11 -0.1,0.2 -0.03,0.09 -0.05,0.19 -0.05,0.3 0,0.12 0.02,0.22 0.04,0.31 0.03,0.08 0.07,0.15 0.11,0.2 0.05,0.05 0.1,0.09 0.16,0.11 0.06,0.03 0.12,0.04 0.18,0.04 0.07,0 0.13,-0.01 0.19,-0.04 0.06,-0.02 0.11,-0.06 0.16,-0.11z"/>
    </g>
   </g>
  </g>
  <polygon class="fil6" points="0,8.31 25.69,8.31 25.69,0 0,0 "/>
 </g>
</svg>
