<?xml version="1.0" encoding="UTF-8"?>
<!DOCTYPE svg PUBLIC "-//W3C//DTD SVG 1.1//EN" "http://www.w3.org/Graphics/SVG/1.1/DTD/svg11.dtd">
<!-- Creator: CorelDRAW 2019 (64 Bit) -->
<svg xmlns="http://www.w3.org/2000/svg" xml:space="preserve" width="2480px" height="3508px" version="1.1" style="shape-rendering:geometricPrecision; text-rendering:geometricPrecision; image-rendering:optimizeQuality; fill-rule:evenodd; clip-rule:evenodd"
viewBox="0 0 2480 3507.43"
 xmlns:xlink="http://www.w3.org/1999/xlink"
 role="img"
 aria-label="VERCEL">
 <defs>
  <style type="text/css">
   <![CDATA[
    .fil10 {fill:none}
    .fil2 {fill:black}
    .fil3 {fill:#007ACC}
    .fil6 {fill:#333131}
    .fil1 {fill:#555555}
    .fil7 {fill:#599636}
    .fil5 {fill:#61D9FB}
    .fil8 {fill:#6CAC48}
    .fil9 {fill:#C2BFBF}
    .fil4 {fill:white}
    .fil0 {fill:white;fill-rule:nonzero}
   ]]>
  </style>
   <clipPath id="id0">
    <path d="M27.96 2668.61l294.99 0 0 -95.45 -294.99 0 0 95.45z"/>
   </clipPath>
 </defs>
 <g id="Camada_x0020_1">
  <metadata id="CorelCorpID_0Corel-Layer"/>
  <g id="_2383319643120" text-anchor="middle">
   <path class="fil0" d="M543.92 2007.89c-1.01,0.39 -2.36,0.79 -4.04,1.18 -1.68,0.39 -3.36,0.59 -5.02,0.59 -3.87,0 -6.9,-1.05 -9.09,-3.15 -2.19,-2.11 -3.28,-5.01 -3.28,-8.71 0,-3.54 1.1,-6.38 3.31,-8.55 2.21,-2.16 5.29,-3.24 9.24,-3.24 1.5,0 2.92,0.13 4.27,0.4 1.35,0.27 2.86,0.81 4.52,1.61l0 5.33 -0.66 0c-0.28,-0.21 -0.7,-0.52 -1.25,-0.91 -0.55,-0.39 -1.07,-0.72 -1.58,-1 -0.6,-0.32 -1.28,-0.6 -2.07,-0.83 -0.79,-0.24 -1.63,-0.35 -2.51,-0.35 -1.04,0 -1.98,0.15 -2.83,0.45 -0.84,0.31 -1.6,0.77 -2.27,1.41 -0.64,0.61 -1.15,1.39 -1.52,2.33 -0.37,0.94 -0.56,2.02 -0.56,3.25 0,2.52 0.67,4.44 2.01,5.77 1.33,1.33 3.3,2 5.91,2 0.23,0 0.48,0 0.75,-0.01 0.26,-0.02 0.51,-0.03 0.74,-0.05l0 -4.47 -4.56 0 0 -4.28 10.49 0 0 11.23z"/>
   <polygon id="1" class="fil0" points="564.89,2009.19 551.58,2009.19 551.58,2005.16 555.3,2005.16 555.3,1990.51 551.58,1990.51 551.58,1986.48 564.89,1986.48 564.89,1990.51 561.17,1990.51 561.17,2005.16 564.89,2005.16 "/>
   <polygon id="2" class="fil0" points="590.89,1990.88 583.79,1990.88 583.79,2009.19 577.92,2009.19 577.92,1990.88 570.83,1990.88 570.83,1986.48 590.89,1986.48 "/>
   <polygon id="3" class="fil0" points="618.19,2009.19 612.31,2009.19 612.31,1999.19 603.72,1999.19 603.72,2009.19 597.85,2009.19 597.85,1986.48 603.72,1986.48 603.72,1994.79 612.31,1994.79 612.31,1986.48 618.19,1986.48 "/>
   <path id="4" class="fil0" d="M647.32 2000.96c0,2.81 -0.85,4.96 -2.55,6.45 -1.71,1.5 -4.23,2.25 -7.54,2.25 -3.33,0 -5.84,-0.75 -7.54,-2.25 -1.7,-1.49 -2.55,-3.64 -2.55,-6.43l0 -14.5 5.87 0 0 14.15c0,1.58 0.33,2.75 0.99,3.53 0.66,0.77 1.74,1.16 3.23,1.16 1.46,0 2.53,-0.37 3.2,-1.12 0.68,-0.74 1.02,-1.93 1.02,-3.57l0 -14.15 5.87 0 0 14.48z"/>
   <path id="5" class="fil0" d="M675.69 2002.23c0,1.1 -0.21,2.08 -0.66,2.94 -0.44,0.87 -1.05,1.59 -1.82,2.15 -0.89,0.68 -1.88,1.16 -2.95,1.44 -1.07,0.29 -2.44,0.43 -4.08,0.43l-9.92 0 0 -22.71 8.82 0c1.84,0 3.17,0.06 4.03,0.18 0.85,0.12 1.69,0.39 2.52,0.8 0.87,0.44 1.51,1.03 1.93,1.76 0.42,0.74 0.64,1.58 0.64,2.53 0,1.1 -0.29,2.07 -0.87,2.91 -0.58,0.84 -1.39,1.49 -2.45,1.95l0 0.12c1.48,0.3 2.65,0.91 3.52,1.84 0.86,0.92 1.29,2.14 1.29,3.66zm-7.49 -9.34c0,-0.37 -0.1,-0.75 -0.29,-1.13 -0.18,-0.37 -0.51,-0.66 -0.98,-0.84 -0.43,-0.16 -0.96,-0.25 -1.59,-0.27 -0.63,-0.01 -1.52,-0.02 -2.66,-0.02l-0.54 0 0 4.81 0.91 0c0.91,0 1.69,-0.01 2.34,-0.04 0.65,-0.04 1.16,-0.13 1.54,-0.31 0.52,-0.23 0.86,-0.54 1.02,-0.91 0.16,-0.37 0.25,-0.8 0.25,-1.29zm1.4 9.25c0,-0.73 -0.14,-1.29 -0.41,-1.68 -0.28,-0.39 -0.75,-0.69 -1.42,-0.88 -0.45,-0.13 -1.07,-0.21 -1.87,-0.22 -0.8,-0.01 -1.63,-0.01 -2.49,-0.01l-1.27 0 0 5.68 0.42 0c1.63,0 2.8,0 3.51,-0.01 0.7,-0.01 1.35,-0.14 1.94,-0.4 0.61,-0.26 1.03,-0.6 1.25,-1.02 0.23,-0.42 0.34,-0.91 0.34,-1.46z"/>
  </g>
  <g id="_2383319634736">
   <rect class="fil1" x="684.72" y="2052.44" width="0" height="87.49"/>
   <rect class="fil2" x="684.72" y="2052.44" width="281.21" height="87.49"/>
  </g>
  <g id="_2383319625936">
   <rect class="fil1" x="84.73" y="1959.51" width="0" height="87.49"/>
   <rect class="fil3" x="77.94" y="1959.51" width="366.83" height="95.45"/>
   <g>
    <g text-anchor="middle">
     <polygon class="fil0" points="198.32,2000.28 191.23,2000.28 191.23,2018.59 185.35,2018.59 185.35,2000.28 178.26,2000.28 178.26,1995.88 198.32,1995.88 "/>
     <polygon id="1" class="fil0" points="225.13,1995.88 216.76,2009.81 216.76,2018.59 210.88,2018.59 210.88,2010.08 202.38,1995.88 209.05,1995.88 213.94,2004.65 218.68,1995.88 "/>
     <path id="2" class="fil0" d="M250.2 2003.04c0,1.02 -0.18,2.01 -0.53,2.99 -0.36,0.97 -0.87,1.78 -1.53,2.44 -0.91,0.9 -1.91,1.57 -3.02,2.03 -1.11,0.46 -2.5,0.69 -4.15,0.69l-3.64 0 0 7.4 -5.88 0 0 -22.71 9.64 0c1.45,0 2.66,0.12 3.66,0.37 0.98,0.25 1.87,0.62 2.63,1.12 0.91,0.6 1.61,1.37 2.09,2.3 0.49,0.94 0.73,2.06 0.73,3.37zm-6.09 0.14c0,-0.64 -0.18,-1.18 -0.52,-1.65 -0.34,-0.45 -0.74,-0.78 -1.19,-0.96 -0.61,-0.24 -1.2,-0.38 -1.77,-0.41 -0.58,-0.02 -1.35,-0.03 -2.31,-0.03l-0.99 0 0 6.78 1.66 0c0.99,0 1.8,-0.06 2.44,-0.18 0.64,-0.12 1.18,-0.37 1.62,-0.73 0.37,-0.33 0.64,-0.72 0.8,-1.16 0.17,-0.46 0.26,-1.01 0.26,-1.66z"/>
     <polygon id="3" class="fil0" points="274.08,2018.59 257.64,2018.59 257.64,1995.88 274.08,1995.88 274.08,2000.28 263.52,2000.28 263.52,2004.19 273.33,2004.19 273.33,2008.59 263.52,2008.59 263.52,2014.19 274.08,2014.19 "/>
     <path id="4" class="fil0" d="M300.43 2011.45c0,2.24 -0.94,4.05 -2.84,5.45 -1.89,1.4 -4.47,2.1 -7.72,2.1 -1.88,0 -3.52,-0.17 -4.91,-0.5 -1.4,-0.32 -2.71,-0.75 -3.93,-1.25l0 -5.44 0.64 0c1.21,0.97 2.56,1.71 4.06,2.23 1.5,0.51 2.93,0.77 4.31,0.77 0.36,0 0.83,-0.03 1.41,-0.09 0.58,-0.06 1.05,-0.16 1.42,-0.3 0.44,-0.19 0.81,-0.42 1.1,-0.69 0.29,-0.28 0.43,-0.69 0.43,-1.23 0,-0.49 -0.2,-0.92 -0.63,-1.29 -0.42,-0.36 -1.04,-0.63 -1.85,-0.83 -0.85,-0.2 -1.76,-0.39 -2.71,-0.57 -0.95,-0.18 -1.84,-0.4 -2.68,-0.67 -1.91,-0.62 -3.28,-1.47 -4.11,-2.53 -0.84,-1.06 -1.26,-2.38 -1.26,-3.96 0,-2.11 0.94,-3.83 2.84,-5.17 1.89,-1.34 4.33,-2.01 7.31,-2.01 1.5,0 2.97,0.15 4.43,0.43 1.46,0.3 2.72,0.66 3.79,1.1l0 5.22 -0.63 0c-0.91,-0.73 -2.03,-1.34 -3.36,-1.83 -1.32,-0.49 -2.68,-0.73 -4.06,-0.73 -0.49,0 -0.97,0.03 -1.45,0.1 -0.49,0.07 -0.95,0.19 -1.4,0.37 -0.39,0.15 -0.73,0.38 -1.02,0.69 -0.28,0.31 -0.42,0.66 -0.42,1.06 0,0.6 0.23,1.05 0.68,1.38 0.46,0.32 1.32,0.61 2.59,0.87 0.83,0.17 1.64,0.35 2.41,0.51 0.76,0.16 1.59,0.38 2.47,0.67 1.74,0.57 3.02,1.34 3.85,2.32 0.83,0.98 1.24,2.26 1.24,3.82z"/>
     <path id="5" class="fil0" d="M318.04 2019.06c-1.69,0 -3.25,-0.25 -4.68,-0.75 -1.44,-0.5 -2.67,-1.24 -3.69,-2.23 -1.03,-0.99 -1.83,-2.22 -2.39,-3.7 -0.57,-1.48 -0.85,-3.19 -0.85,-5.12 0,-1.81 0.27,-3.44 0.81,-4.91 0.54,-1.47 1.33,-2.73 2.35,-3.77 0.99,-1.01 2.21,-1.8 3.67,-2.34 1.46,-0.55 3.06,-0.83 4.79,-0.83 0.96,0 1.82,0.05 2.59,0.16 0.77,0.1 1.48,0.25 2.13,0.42 0.68,0.2 1.3,0.41 1.85,0.65 0.56,0.24 1.05,0.46 1.46,0.66l0 5.51 -0.67 0c-0.28,-0.24 -0.64,-0.53 -1.08,-0.86 -0.43,-0.33 -0.92,-0.66 -1.47,-0.98 -0.56,-0.33 -1.17,-0.6 -1.82,-0.82 -0.65,-0.23 -1.35,-0.33 -2.09,-0.33 -0.82,0 -1.6,0.13 -2.35,0.39 -0.74,0.25 -1.43,0.68 -2.06,1.28 -0.6,0.59 -1.09,1.35 -1.46,2.3 -0.37,0.96 -0.56,2.12 -0.56,3.48 0,1.43 0.21,2.62 0.61,3.57 0.4,0.96 0.9,1.71 1.52,2.26 0.62,0.56 1.31,0.96 2.07,1.2 0.77,0.24 1.52,0.36 2.26,0.36 0.71,0 1.42,-0.11 2.12,-0.32 0.69,-0.21 1.34,-0.5 1.93,-0.86 0.5,-0.29 0.96,-0.6 1.39,-0.93 0.42,-0.34 0.78,-0.62 1.05,-0.86l0.61 0 0 5.42c-0.56,0.25 -1.11,0.49 -1.63,0.72 -0.52,0.22 -1.06,0.41 -1.64,0.57 -0.74,0.22 -1.43,0.38 -2.09,0.49 -0.65,0.11 -1.54,0.17 -2.68,0.17z"/>
     <path id="6" class="fil0" d="M346.37 2002.81c0,-0.56 -0.12,-1.04 -0.35,-1.44 -0.23,-0.41 -0.63,-0.73 -1.19,-0.96 -0.39,-0.16 -0.85,-0.26 -1.37,-0.29 -0.52,-0.04 -1.13,-0.06 -1.82,-0.06l-2.09 0 0 6.07 1.78 0c0.92,0 1.69,-0.05 2.31,-0.14 0.63,-0.09 1.15,-0.3 1.57,-0.62 0.4,-0.31 0.69,-0.65 0.88,-1.04 0.18,-0.38 0.28,-0.88 0.28,-1.52zm9.18 15.78l-7.17 0 -6.18 -8.34 -2.65 0 0 8.34 -5.87 0 0 -22.71 9.82 0c1.34,0 2.49,0.08 3.45,0.23 0.97,0.15 1.87,0.48 2.72,0.99 0.85,0.51 1.53,1.16 2.03,1.97 0.51,0.81 0.76,1.82 0.76,3.04 0,1.68 -0.39,3.04 -1.16,4.1 -0.78,1.06 -1.89,1.94 -3.33,2.64l7.58 9.74z"/>
     <polygon id="7" class="fil0" points="373.69,2018.59 360.38,2018.59 360.38,2014.56 364.1,2014.56 364.1,1999.91 360.38,1999.91 360.38,1995.88 373.69,1995.88 373.69,1999.91 369.97,1999.91 369.97,2014.56 373.69,2014.56 "/>
     <path id="8" class="fil0" d="M400.51 2003.04c0,1.02 -0.18,2.01 -0.53,2.99 -0.36,0.97 -0.87,1.78 -1.53,2.44 -0.91,0.9 -1.91,1.57 -3.02,2.03 -1.11,0.46 -2.5,0.69 -4.16,0.69l-3.64 0 0 7.4 -5.87 0 0 -22.71 9.64 0c1.45,0 2.66,0.12 3.65,0.37 0.99,0.25 1.88,0.62 2.63,1.12 0.92,0.6 1.62,1.37 2.1,2.3 0.49,0.94 0.73,2.06 0.73,3.37zm-6.1 0.14c0,-0.64 -0.17,-1.18 -0.51,-1.65 -0.35,-0.45 -0.74,-0.78 -1.19,-0.96 -0.61,-0.24 -1.2,-0.38 -1.77,-0.41 -0.58,-0.02 -1.35,-0.03 -2.31,-0.03l-1 0 0 6.78 1.67 0c0.99,0 1.8,-0.06 2.44,-0.18 0.64,-0.12 1.18,-0.37 1.62,-0.73 0.37,-0.33 0.64,-0.72 0.8,-1.16 0.17,-0.46 0.25,-1.01 0.25,-1.66z"/>
     <polygon id="9" class="fil0" points="425.73,2000.28 418.64,2000.28 418.64,2018.59 412.76,2018.59 412.76,2000.28 405.67,2000.28 405.67,1995.88 425.73,1995.88 "/>
    </g>
    <path class="fil4" d="M96.98 1990.94l0 3.59 11.48 0 0 32.66 8.14 0 0 -32.66 11.47 0 0 -3.53c0,-1.98 0,-3.59 -0.09,-3.64 0,-0.07 -6.99,-0.09 -15.49,-0.09l-15.44 0.07 0 3.62 -0.07 -0.02 0 0zm51.57 -3.69c2.25,0.53 3.97,1.55 5.52,3.16 0.81,0.88 2.03,2.42 2.12,2.82 0,0.13 -3.82,2.72 -6.14,4.15 -0.09,0.07 -0.44,-0.31 -0.79,-0.88 -1.15,-1.64 -2.32,-2.34 -4.15,-2.47 -2.65,-0.18 -4.41,1.21 -4.41,3.53 0,0.7 0.13,1.1 0.39,1.67 0.6,1.22 1.7,1.95 5.12,3.45 6.31,2.71 9.05,4.5 10.7,7.06 1.88,2.87 2.3,7.37 1.04,10.74 -1.41,3.69 -4.85,6.18 -9.77,7 -1.55,0.26 -5.08,0.22 -6.73,-0.07 -3.53,-0.66 -6.91,-2.42 -8.99,-4.7 -0.81,-0.88 -2.38,-3.24 -2.29,-3.39l0.84 -0.53 3.31 -1.92 2.49 -1.46 0.57 0.77c0.73,1.15 2.37,2.69 3.32,3.22 2.86,1.48 6.7,1.28 8.6,-0.44 0.82,-0.75 1.17,-1.54 1.17,-2.65 0,-1.01 -0.15,-1.47 -0.66,-2.25 -0.71,-0.97 -2.12,-1.76 -6.09,-3.53 -4.57,-1.94 -6.51,-3.18 -8.32,-5.07 -1.04,-1.15 -1.99,-2.94 -2.43,-4.42 -0.33,-1.28 -0.44,-4.41 -0.13,-5.67 0.95,-4.41 4.28,-7.5 9.05,-8.38 1.54,-0.31 5.18,-0.18 6.71,0.22l-0.05 0.04 0 0z"/>
   </g>
  </g>
  <g id="_2383320164176">
   <rect class="fil1" x="31.31" y="2209.37" width="0" height="87.49"/>
   <rect class="fil2" x="24.52" y="2209.37" width="337.79" height="95.45"/>
   <g>
    <g>
     <path class="fil4" d="M72.3 2269.39l17.09 0c0,-1.02 0.15,-1.45 -0.33,-1.45l-15.2 0 0 -10.84 14.42 0 0 -1.45 -14.42 0 0 -9.94 15.31 0 0 -1.35 -16.87 0 0 25.03z"/>
     <path class="fil4" d="M118.89 2231.18c-0.53,0.36 -10.74,13.58 -11.67,14.81 -0.79,1.06 -1.49,2.04 -2.28,3.08 -0.6,0.8 -4.23,5.89 -4.59,6.13 -0.31,-0.22 -1.11,-1.46 -1.44,-1.91l-6.39 -8.93 -1.9 0c0.35,0.52 0.69,0.97 1.07,1.51l6.55 9.09c0.37,0.53 0.81,1.03 1.1,1.58l-8.16 11.18c-0.25,0.34 -1.02,1.33 -1.11,1.67 2.52,0 1.3,0.52 4.42,-3.62 0.43,-0.57 0.76,-1.06 1.18,-1.61 0.4,-0.53 0.72,-1.01 1.13,-1.55 0.22,-0.29 0.34,-0.49 0.56,-0.78 0.23,-0.31 0.4,-0.52 0.62,-0.84l1.69 -2.32c0.17,-0.24 0.49,-0.62 0.56,-0.9 0.39,0.11 0.8,0.91 1.21,1.47l5.83 8.03c0.38,0.54 0.77,1.04 1.18,1.62 0.52,0.73 0.64,0.5 2.29,0.5 -0.74,-1.09 -1.51,-2.08 -2.3,-3.17l-5.88 -8.09c-0.2,-0.28 -0.35,-0.51 -0.56,-0.79 -0.2,-0.27 -0.44,-0.56 -0.54,-0.91l11.99 -17.29c0.35,-0.46 5.33,-7.55 5.44,-7.96z"/>
     <path class="fil4" d="M78.89 2282.69c-0.1,-0.36 -1.23,-1.95 -1.52,-2.39l-14.46 -21.52c-0.54,-0.81 -1.04,-1.57 -1.61,-2.41 -0.65,-0.99 -7.87,-11.53 -8,-12.01l-2.12 0 0 23.36 0 1.41c0.08,0.39 0.42,0.26 1.68,0.26l-0.01 -21.56c0,-0.64 0.11,-0.85 0.12,-1.34l0.38 0.51c0.17,0.25 0.25,0.37 0.42,0.59 1.69,2.27 3.85,5.79 5.55,8.08 0.29,0.39 0.5,0.71 0.78,1.12 2.48,3.74 5.42,7.72 7.89,11.44 0.29,0.44 0.5,0.78 0.81,1.2l6.67 8.86c0.59,0.78 1.08,1.46 1.68,2.23l1.74 2.17z"/>
     <polygon class="fil4" points="111.3,2245.71 120.12,2245.71 120.12,2269.39 121.69,2269.39 121.69,2245.71 130.51,2245.71 130.51,2244.36 111.3,2244.36 "/>
     <path class="fil4" d="M136.44 2263.7c0,0.87 0.61,1.21 1.35,1.44 0.53,0.16 1.77,0.31 1.77,0.9 0,0.9 -1.46,1.38 -2.3,0.3 -0.25,-0.32 0.14,-0.3 -0.94,-0.3 0,2.39 4.14,2.05 4.14,0.23 0,-0.85 -0.08,-1.36 -1.3,-1.72 -0.49,-0.15 -1.83,-0.37 -1.83,-0.85 0,-0.89 1.51,-1.48 2.23,-0.12l0.9 0c-0.11,-0.23 -0.09,-0.33 -0.21,-0.57 -0.72,-1.52 -3.81,-1.32 -3.81,0.69z"/>
     <path class="fil4" d="M134.31 2266.27c0,0.54 -1.29,1.03 -1.56,-0.12l-0.89 0c0.04,2.08 3.35,2.14 3.35,0l0 -4.02 -0.9 0 0 4.14z"/>
     <path class="fil4" d="M129.84 2266.71c0,0.88 0.02,0.9 0.9,0.9 0.5,-0.95 -0.09,-1.38 -0.9,-0.9z"/>
     <path class="fil4" d="M79.11 2283.03c-0.07,-0.32 0.02,-0.17 -0.22,-0.34 0.08,0.32 -0.02,0.17 0.22,0.34z"/>
     <polygon class="fil4" points="119.23,2230.73 119.34,2230.73 119.25,2230.6 "/>
     <polygon class="fil4" points="79.45,2283.47 79.45,2283.59 79.58,2283.49 "/>
     <polygon class="fil4" points="119.23,2230.73 119.12,2230.85 "/>
     <polygon class="fil4" points="119.01,2231.07 119.12,2230.85 "/>
     <polygon class="fil4" points="119.01,2231.07 118.89,2231.18 "/>
     <polygon class="fil4" points="79.23,2283.14 79.11,2283.03 "/>
     <polygon class="fil4" points="79.34,2283.36 79.23,2283.14 "/>
     <polygon class="fil4" points="79.45,2283.47 79.34,2283.36 "/>
    </g>
    <polygon class="fil0" points="196.79,2268.45 191.14,2268.45 181.51,2252.86 181.51,2268.45 176.14,2268.45 176.14,2245.74 183.14,2245.74 191.42,2258.75 191.42,2245.74 196.79,2245.74 "/>
    <polygon id="1" class="fil0" points="222.32,2268.45 205.89,2268.45 205.89,2245.74 222.32,2245.74 222.32,2250.14 211.76,2250.14 211.76,2254.05 221.57,2254.05 221.57,2258.45 211.76,2258.45 211.76,2264.05 222.32,2264.05 "/>
    <polygon id="2" class="fil0" points="251.11,2268.45 244.34,2268.45 239.45,2260.99 234.47,2268.45 227.99,2268.45 236.04,2257.01 228.15,2245.74 234.9,2245.74 239.64,2252.81 244.5,2245.74 250.99,2245.74 243.06,2256.78 "/>
    <polygon id="3" class="fil0" points="275.46,2250.14 268.36,2250.14 268.36,2268.45 262.49,2268.45 262.49,2250.14 255.4,2250.14 255.4,2245.74 275.46,2245.74 "/>
    <polygon id="4" class="fil0" points="287.87,2268.45 282.15,2268.45 282.15,2262.45 287.87,2262.45 "/>
    <path id="5" class="fil0" d="M308.7 2261.78c0,0.99 -0.18,1.93 -0.54,2.8 -0.35,0.87 -0.88,1.6 -1.58,2.2 -0.75,0.64 -1.64,1.14 -2.68,1.49 -1.06,0.35 -2.35,0.52 -3.89,0.52 -1.05,0 -2.04,-0.03 -2.96,-0.11 -0.93,-0.07 -1.74,-0.18 -2.44,-0.33l0 -4.59 0.54 0c0.49,0.19 1,0.36 1.52,0.51 0.53,0.17 1.21,0.24 2.03,0.24 1.07,0 1.88,-0.14 2.46,-0.42 0.57,-0.29 0.98,-0.68 1.22,-1.2 0.24,-0.49 0.37,-1.04 0.4,-1.64 0.03,-0.59 0.04,-1.35 0.04,-2.28l0 -9.05 -5.18 0 0 -4.18 11.06 0 0 16.04z"/>
    <path id="6" class="fil0" d="M335.65 2261.31c0,2.24 -0.95,4.05 -2.84,5.45 -1.9,1.4 -4.47,2.1 -7.72,2.1 -1.88,0 -3.52,-0.17 -4.92,-0.5 -1.4,-0.33 -2.71,-0.75 -3.93,-1.25l0 -5.44 0.65 0c1.2,0.96 2.56,1.7 4.05,2.23 1.5,0.51 2.94,0.77 4.32,0.77 0.36,0 0.82,-0.03 1.41,-0.09 0.57,-0.06 1.04,-0.16 1.41,-0.31 0.44,-0.18 0.81,-0.41 1.11,-0.68 0.28,-0.28 0.43,-0.69 0.43,-1.23 0,-0.5 -0.21,-0.92 -0.63,-1.29 -0.42,-0.36 -1.04,-0.63 -1.86,-0.83 -0.85,-0.2 -1.75,-0.39 -2.7,-0.57 -0.95,-0.18 -1.85,-0.41 -2.68,-0.68 -1.91,-0.62 -3.28,-1.46 -4.12,-2.52 -0.84,-1.06 -1.26,-2.38 -1.26,-3.96 0,-2.11 0.95,-3.84 2.84,-5.17 1.9,-1.34 4.34,-2.01 7.32,-2.01 1.49,0 2.96,0.15 4.42,0.43 1.46,0.29 2.72,0.66 3.79,1.1l0 5.22 -0.62 0c-0.91,-0.73 -2.04,-1.34 -3.36,-1.83 -1.33,-0.49 -2.68,-0.73 -4.06,-0.73 -0.49,0 -0.98,0.03 -1.46,0.1 -0.48,0.06 -0.94,0.18 -1.39,0.37 -0.4,0.15 -0.74,0.38 -1.02,0.69 -0.29,0.31 -0.43,0.66 -0.43,1.06 0,0.59 0.23,1.05 0.69,1.38 0.46,0.31 1.32,0.6 2.59,0.87 0.83,0.17 1.63,0.34 2.4,0.51 0.77,0.16 1.59,0.38 2.48,0.67 1.74,0.57 3.02,1.34 3.84,2.32 0.83,0.98 1.25,2.25 1.25,3.82z"/>
   </g>
  </g>
  <g id="_2383320210160">
   <rect class="fil1" x="32.56" y="2439.11" width="0" height="87.49"/>
   <rect class="fil2" x="25.77" y="2439.11" width="295" height="95.45"/>
   <g>
    <g>
     <path class="fil5" d="M110.4 2499.35c0.01,0.5 0.21,1.16 0.31,1.73 0.61,3.4 1.06,7.55 -0.09,10.86 -0.48,1.38 -1.29,2.57 -3.11,2.57 -3.32,0 -7.46,-2.77 -9.98,-4.9 -0.24,-0.2 -0.43,-0.36 -0.66,-0.55 -0.46,-0.35 -0.81,-0.75 -1.27,-1.06l2.05 -2.33c1.02,-1.32 2.07,-2.43 3.27,-4.08 0.65,-0.88 0.26,-0.66 2.02,-0.85 2.81,-0.32 4.81,-0.78 7.46,-1.39zm-35.08 8.46c0,-2.27 0.02,-2.78 0.3,-5.1 0.06,-0.56 0.45,-2.89 0.63,-3.27l7.35 1.3c2.13,0.24 1.21,-0.19 3.67,2.94l3.77 4.32c-0.26,0.17 -2.92,2.5 -4,3.26 -2.08,1.47 -8.01,5.07 -10.15,2.34 -0.99,-1.27 -1.57,-3.55 -1.57,-5.79zm14.14 -6.6c0.29,0.02 0.33,0.09 0.65,0.09 1.33,0 6.04,0.13 6.98,-0.09 -0.14,0.52 -3.38,4.18 -3.81,4.46 -0.16,-0.23 -3.3,-3.49 -3.82,-4.46zm14.42 -3.82c0.09,-0.37 0.3,-0.56 0.46,-0.84l1.47 -2.44c0.33,-0.56 0.64,-1.09 0.93,-1.68 0.16,-0.33 0.73,-1.48 0.96,-1.64 0.11,0.48 0.31,0.84 0.47,1.29 0.42,1.15 1.13,3.1 1.39,4.2l-4.18 0.84c-0.36,0.08 -1.22,0.14 -1.5,0.27zm-25.02 -6.6c0.24,0.18 1.04,1.88 1.4,2.51l2.5 4.09c-0.89,-0.21 -1.89,-0.31 -2.84,-0.5 -1.01,-0.2 -1.89,-0.39 -2.83,-0.61 0.01,-0.38 0.26,-1.08 0.36,-1.41l0.93 -2.7c0.13,-0.35 0.45,-1.02 0.48,-1.38zm1.76 -3.91c0,-0.55 3.25,-6.24 3.95,-7.4 0.37,-0.61 0.71,-1.16 1.08,-1.72 1.29,-1.93 0.95,-1.92 2.33,-1.95 0.49,-0.01 0.7,-0.1 1.3,-0.09l6.7 -0.1c0.5,0.02 0.7,0.1 1.3,0.1 0.59,-0.01 0.84,0.07 1.3,0.09 1.24,0.06 0.86,-0.24 1.73,1.06l1.67 2.61c0.77,1.16 3.95,6.79 3.95,7.31 0,0.57 -2.48,4.96 -2.91,5.74 -0.53,0.95 -1.05,1.75 -1.61,2.67l-1.71 2.66c-0.52,0 -0.8,0.08 -1.4,0.09 -1.61,0.04 -2.51,0.19 -4.47,0.19l-6.63 -0.25c-0.43,-0.1 -0.23,0.05 -0.71,-0.68 -0.2,-0.31 -0.38,-0.57 -0.6,-0.9 -1.57,-2.35 -2,-3.24 -3.32,-5.52l-0.49 -0.89c-0.18,-0.38 -0.31,-0.63 -0.49,-1 -0.15,-0.3 -0.97,-1.83 -0.97,-2.02zm-6.6 -8.56c-0.27,0.81 2.98,8.29 2.98,8.56l-3.07 8.56c-0.41,-0.19 -2.65,-0.89 -3.75,-1.37 -1.74,-0.76 -2.74,-1.32 -4.28,-2.23 -1.59,-0.94 -4.14,-3.09 -4.14,-4.96 0,-0.68 0.35,-1.38 0.65,-1.84 0.82,-1.28 2.85,-2.89 4.2,-3.62 1.46,-0.79 1.9,-1.05 3.48,-1.73 0.84,-0.36 3.09,-1.24 3.93,-1.37zm38.61 0c0.53,0.05 1.37,0.44 1.89,0.62 0.71,0.24 1.21,0.46 1.88,0.72 0.37,0.15 0.58,0.23 0.91,0.4 0.34,0.17 0.58,0.25 0.9,0.4l3.95 2.47c0.74,0.56 2.08,1.97 2.39,2.82 0.68,1.86 -0.27,3 -1.62,4.36 -0.74,0.76 -2.09,1.64 -3.02,2.2 -1.7,1.01 -3.49,1.77 -5.34,2.46 -0.61,0.23 -1.41,0.41 -1.94,0.67l-0.64 -2.25c-0.14,-0.41 -0.26,-0.68 -0.4,-1.09 -0.12,-0.36 -0.23,-0.72 -0.38,-1.1l-1.68 -4.14 3.1 -8.54zm-8.75 -1.95l2.8 0.45c0.48,0.1 0.94,0.19 1.39,0.29 0.36,0.09 1.02,0.27 1.39,0.28 -0.01,0.6 -0.63,2.24 -0.82,2.8l-0.94 2.69c-0.22,-0.16 -0.77,-1.26 -0.93,-1.58l-2.67 -4.5c-0.01,-0.02 -0.1,-0.17 -0.1,-0.17 -0.09,-0.16 -0.09,-0.21 -0.12,-0.26zm-24.93 6.6l-0.07 -0.11c0,-0.01 -0.09,-0.19 -0.09,-0.19 -0.07,-0.17 -0.07,-0.17 -0.13,-0.33 -0.46,-1.16 -1.43,-3.96 -1.66,-4.95 0.67,0 4.23,-1 5.76,-1.02 -0.65,0.87 -3.61,5.85 -3.81,6.6zm10.51 -10.51c0.63,-0.93 1.53,-1.97 2.31,-2.81 0.21,-0.23 0.24,-0.33 0.46,-0.56 0.43,-0.45 0.6,-0.57 0.95,-1.09 0.5,0.33 3.51,3.85 3.91,4.46l-4.93 -0.09c-1.02,0 -1.68,0.09 -2.7,0.09zm6.14 -6.7c0.51,-0.75 4.1,-3.5 5,-4.03 0.5,-0.29 0.86,-0.57 1.39,-0.84 2.55,-1.28 6.85,-3.43 8.42,0.49 0.91,2.26 0.82,3.97 0.82,6.43 0,1.33 -0.56,5.74 -0.93,6.51 -1.4,-0.33 -2.85,-0.65 -4.3,-0.9 -1.09,-0.2 -3.59,-0.59 -4.63,-0.59 -0.09,-0.33 -1.06,-1.46 -1.33,-1.83 -0.25,-0.34 -0.44,-0.55 -0.69,-0.89 -0.63,-0.86 -1.61,-1.87 -2.2,-2.63l-1.55 -1.72zm-10.42 7.07c-1.05,0 -3.53,0.4 -4.62,0.59l-3.25 0.66c-0.36,0.08 -0.83,0.21 -1.15,0.24 -0.02,-0.81 -0.93,-3.92 -0.93,-7.63 0,-2.47 0.44,-5.92 2.23,-7.07 2.08,-1.33 6.36,0.79 8.23,2.01 2.07,1.36 2.35,1.66 4.25,3.19 0.15,0.11 0.94,0.84 1.01,0.94l-3.72 4.28c-0.23,0.31 -0.44,0.56 -0.69,0.89 -0.26,0.34 -1.28,1.62 -1.36,1.9zm8 -9.39c-0.33,-0.23 -0.45,-0.48 -0.87,-0.79 -0.02,-0.01 -0.04,-0.03 -0.06,-0.04l-0.44 -0.41c-0.17,-0.15 -0.19,-0.13 -0.36,-0.28 -1.18,-0.99 -2.08,-1.71 -3.4,-2.56l-2.49 -1.51c-2.8,-1.45 -6.78,-2.83 -9.79,-0.94 -4.32,2.7 -3.98,10.26 -3.35,14.73l0.67 3.61 -2.47 0.79c-0.85,0.32 -1.5,0.6 -2.31,0.94 -2.14,0.89 -5.32,2.72 -6.97,4.39 -0.83,0.84 -1.58,1.73 -2.12,2.81 -0.85,1.73 -0.86,3.6 0.01,5.31 0.17,0.35 0.34,0.71 0.55,1.02 2.11,2.96 5.28,4.76 8.56,6.23 0.82,0.37 4.09,1.71 4.84,1.77 -0.1,0.22 -0.25,1.01 -0.32,1.36 -0.32,1.62 -0.44,2.76 -0.62,4.49 -0.22,2.05 -0.19,4.29 0.14,6.3 1.7,10.17 10.42,7.69 16.51,3.19l2.27 -1.74c0.29,-0.23 0.47,-0.41 0.75,-0.64l1.46 -1.24 1.74 1.52c0.15,0.13 0.18,0.17 0.35,0.3 2.82,2.24 7.6,5.62 11.4,5.62 1.8,0 2.82,0.03 4.36,-1.12 4.14,-3.1 3.65,-11.31 2.69,-16.06 -0.09,-0.45 -0.28,-1.63 -0.44,-1.98 0.4,-0.09 0.79,-0.25 1.19,-0.38 4.41,-1.47 7.02,-2.8 10.5,-5.69 0.37,-0.31 0.49,-0.55 0.8,-0.88 1.05,-1.13 2.02,-2.79 2.02,-4.77 0,-4.08 -4.52,-7.18 -7.54,-8.75 -1.4,-0.73 -5.58,-2.67 -6.97,-2.79l0.69 -4.14c0.58,-4.01 0.71,-11.69 -3.36,-14.22 -1.81,-1.11 -3.89,-1.2 -5.91,-0.63 -3.68,1.03 -6.93,3.18 -9.82,5.62 -0.16,0.14 -0.22,0.23 -0.38,0.36 -0.33,0.26 -1.14,1.1 -1.51,1.2z"/>
     <path class="fil5" d="M86.76 2486.79c0,6.08 7.74,9.14 11.77,3.85 0.29,-0.38 0.4,-0.64 0.61,-1.06 0.19,-0.39 0.35,-0.78 0.44,-1.23 0.49,-2.29 -0.09,-4.43 -1.67,-6 -4.44,-4.42 -11.15,-0.85 -11.15,4.44z"/>
    </g>
    <path class="fil0" d="M177.03 2482.42c0,-0.57 -0.11,-1.05 -0.34,-1.45 -0.24,-0.41 -0.63,-0.73 -1.19,-0.95 -0.4,-0.17 -0.85,-0.27 -1.37,-0.3 -0.52,-0.04 -1.13,-0.05 -1.82,-0.05l-2.09 0 0 6.06 1.78 0c0.92,0 1.69,-0.05 2.31,-0.14 0.62,-0.09 1.14,-0.29 1.57,-0.62 0.4,-0.31 0.69,-0.65 0.88,-1.03 0.18,-0.38 0.27,-0.89 0.27,-1.52zm9.19 15.77l-7.17 0 -6.18 -8.34 -2.65 0 0 8.34 -5.87 0 0 -22.71 9.81 0c1.35,0 2.5,0.08 3.46,0.23 0.97,0.15 1.87,0.48 2.71,0.99 0.86,0.51 1.54,1.16 2.04,1.97 0.5,0.81 0.75,1.82 0.75,3.04 0,1.68 -0.38,3.04 -1.16,4.1 -0.77,1.06 -1.88,1.94 -3.32,2.64l7.58 9.74z"/>
    <polygon id="1" class="fil0" points="208.51,2498.19 192.08,2498.19 192.08,2475.48 208.51,2475.48 208.51,2479.89 197.95,2479.89 197.95,2483.79 207.76,2483.79 207.76,2488.19 197.95,2488.19 197.95,2493.79 208.51,2493.79 "/>
    <path id="2" class="fil0" d="M237.68 2498.19l-6.06 0 -1.58 -4.59 -8.34 0 -1.59 4.59 -5.92 0 8.38 -22.71 6.73 0 8.38 22.71zm-9.04 -8.74l-2.77 -8.08 -2.77 8.08 5.54 0z"/>
    <path id="3" class="fil0" d="M254.53 2498.66c-1.69,0 -3.25,-0.25 -4.68,-0.75 -1.43,-0.5 -2.66,-1.24 -3.69,-2.23 -1.03,-0.99 -1.82,-2.22 -2.39,-3.7 -0.56,-1.48 -0.85,-3.19 -0.85,-5.12 0,-1.8 0.27,-3.44 0.81,-4.91 0.54,-1.47 1.33,-2.73 2.36,-3.77 0.98,-1.01 2.21,-1.79 3.67,-2.34 1.46,-0.55 3.05,-0.83 4.79,-0.83 0.95,0 1.81,0.05 2.59,0.16 0.76,0.11 1.47,0.25 2.13,0.42 0.68,0.2 1.29,0.41 1.85,0.65 0.56,0.24 1.04,0.46 1.46,0.67l0 5.51 -0.67 0c-0.29,-0.25 -0.65,-0.54 -1.08,-0.87 -0.43,-0.33 -0.92,-0.66 -1.48,-0.98 -0.55,-0.33 -1.16,-0.6 -1.81,-0.82 -0.65,-0.22 -1.35,-0.33 -2.09,-0.33 -0.83,0 -1.61,0.13 -2.36,0.39 -0.74,0.25 -1.43,0.68 -2.06,1.28 -0.6,0.59 -1.09,1.35 -1.46,2.31 -0.37,0.95 -0.55,2.11 -0.55,3.47 0,1.43 0.2,2.62 0.6,3.57 0.4,0.96 0.91,1.71 1.52,2.26 0.62,0.56 1.31,0.96 2.07,1.2 0.77,0.24 1.52,0.36 2.26,0.36 0.72,0 1.43,-0.11 2.12,-0.32 0.7,-0.21 1.34,-0.5 1.94,-0.86 0.49,-0.29 0.95,-0.6 1.38,-0.93 0.43,-0.34 0.78,-0.62 1.06,-0.86l0.61 0 0 5.43c-0.57,0.24 -1.12,0.48 -1.64,0.71 -0.51,0.22 -1.06,0.42 -1.63,0.58 -0.74,0.21 -1.44,0.37 -2.09,0.49 -0.65,0.1 -1.55,0.16 -2.69,0.16z"/>
    <polygon id="4" class="fil0" points="287.95,2479.89 280.86,2479.89 280.86,2498.19 274.98,2498.19 274.98,2479.89 267.89,2479.89 267.89,2475.48 287.95,2475.48 "/>
   </g>
  </g>
  <polygon class="fil6" points="27.96,2668.61 322.95,2668.61 322.95,2573.16 27.96,2573.16 "/>
  <g style="clip-path:url(#id0)">
   <g id="_2383320201104">
    <g>
     <rect class="fil1" x="9.66" y="2577.14" width="0" height="87.49"/>
     <g>
      <path class="fil7" d="M86.94 2584.83l2 3.77c0.45,0.69 0.94,1.3 1.52,1.88 1.68,1.66 3.25,3.44 4.7,5.31 3.39,4.45 5.68,9.4 7.31,14.75 0.98,3.27 1.52,6.63 1.56,10.02 0.16,10.14 -3.32,18.84 -10.32,26.08 -1.14,1.14 -2.38,2.2 -3.68,3.14 -0.7,0 -1.03,-0.53 -1.31,-1.02 -0.52,-0.91 -0.87,-1.91 -1.02,-2.94 -0.25,-1.23 -0.41,-2.46 -0.33,-3.72l0 -0.57c-0.06,-0.13 -0.67,-56.41 -0.43,-56.7l0 0z"/>
      <path class="fil8" d="M86.94 2584.71c-0.08,-0.16 -0.16,-0.04 -0.24,0.04 0.04,0.82 -0.25,1.55 -0.7,2.25 -0.49,0.7 -1.14,1.23 -1.8,1.8 -3.63,3.15 -6.49,6.95 -8.78,11.2 -3.05,5.72 -4.62,11.85 -5.07,18.31 -0.2,2.33 0.74,10.55 1.47,12.92 2,6.29 5.6,11.57 10.26,16.14 1.15,1.11 2.37,2.13 3.64,3.11 0.36,0 0.4,-0.33 0.49,-0.57 0.16,-0.52 0.28,-1.06 0.37,-1.6l0.82 -6.13 -0.46 -57.47z"/>
      <path class="fil9" d="M88.94 2652.27c0.09,-0.93 0.54,-1.71 1.03,-2.49 -0.5,-0.2 -0.86,-0.61 -1.15,-1.06 -0.24,-0.43 -0.45,-0.88 -0.61,-1.35 -0.57,-1.72 -0.69,-3.52 -0.85,-5.27l0 -1.06c-0.21,0.16 -0.25,1.55 -0.25,1.76 -0.12,1.84 -0.37,3.7 -0.74,5.52 -0.12,0.73 -0.2,1.47 -0.65,2.12 0,0.08 0,0.16 0.03,0.29 0.74,2.16 0.94,4.37 1.07,6.62l0 0.82c0,0.98 -0.04,0.77 0.77,1.1 0.33,0.12 0.7,0.17 1.02,0.41 0.25,0 0.29,-0.2 0.29,-0.37l-0.12 -1.35 0 -3.76c-0.04,-0.66 0.08,-1.31 0.16,-1.92l0 -0.01z"/>
     </g>
     <polygon class="fil0" points="154.96,2636.22 149.08,2636.22 149.08,2621.01 144.89,2630.88 140.87,2630.88 136.68,2621.01 136.68,2636.22 131.15,2636.22 131.15,2613.51 137.95,2613.51 143.04,2624.9 148.11,2613.51 154.96,2613.51 "/>
     <path id="1" class="fil0" d="M186.15 2624.87c0,3.62 -1.04,6.49 -3.12,8.62 -2.08,2.13 -4.94,3.2 -8.61,3.2 -3.65,0 -6.52,-1.07 -8.59,-3.2 -2.08,-2.13 -3.12,-5 -3.12,-8.62 0,-3.65 1.04,-6.53 3.12,-8.65 2.07,-2.12 4.94,-3.18 8.59,-3.18 3.65,0 6.51,1.06 8.6,3.18 2.08,2.12 3.13,5 3.13,8.65zm-7.77 5.75c0.56,-0.69 0.99,-1.5 1.26,-2.44 0.28,-0.95 0.41,-2.05 0.41,-3.33 0,-1.35 -0.15,-2.52 -0.47,-3.47 -0.31,-0.96 -0.73,-1.73 -1.23,-2.32 -0.52,-0.61 -1.12,-1.05 -1.8,-1.33 -0.68,-0.28 -1.38,-0.41 -2.11,-0.41 -0.74,0 -1.44,0.13 -2.1,0.39 -0.66,0.27 -1.26,0.71 -1.81,1.32 -0.51,0.57 -0.92,1.35 -1.25,2.36 -0.31,1 -0.47,2.16 -0.47,3.48 0,1.35 0.15,2.51 0.46,3.46 0.31,0.95 0.72,1.73 1.23,2.32 0.51,0.6 1.1,1.05 1.78,1.33 0.69,0.29 1.41,0.43 2.16,0.43 0.75,0 1.47,-0.15 2.15,-0.44 0.68,-0.28 1.28,-0.74 1.79,-1.35z"/>
     <polygon id="2" class="fil0" points="214.57,2636.22 208.92,2636.22 199.29,2620.63 199.29,2636.22 193.91,2636.22 193.91,2613.51 200.92,2613.51 209.19,2626.52 209.19,2613.51 214.57,2613.51 "/>
     <path id="3" class="fil0" d="M243.75 2634.92c-1.01,0.4 -2.36,0.79 -4.04,1.18 -1.68,0.39 -3.36,0.59 -5.02,0.59 -3.87,0 -6.9,-1.05 -9.09,-3.15 -2.19,-2.1 -3.28,-5.01 -3.28,-8.71 0,-3.54 1.1,-6.38 3.31,-8.55 2.21,-2.16 5.29,-3.24 9.24,-3.24 1.49,0 2.92,0.13 4.27,0.4 1.35,0.27 2.86,0.81 4.52,1.61l0 5.33 -0.66 0c-0.28,-0.21 -0.7,-0.52 -1.25,-0.9 -0.55,-0.4 -1.07,-0.73 -1.58,-1.01 -0.6,-0.32 -1.29,-0.6 -2.07,-0.83 -0.79,-0.24 -1.63,-0.35 -2.51,-0.35 -1.04,0 -1.98,0.15 -2.83,0.46 -0.84,0.3 -1.6,0.77 -2.27,1.4 -0.64,0.61 -1.15,1.39 -1.52,2.33 -0.37,0.94 -0.56,2.03 -0.56,3.25 0,2.52 0.67,4.44 2.01,5.77 1.33,1.34 3.3,2 5.91,2 0.23,0 0.48,0 0.75,-0.01 0.26,-0.01 0.51,-0.03 0.74,-0.05l0 -4.47 -4.57 0 0 -4.28 10.5 0 0 11.23z"/>
     <path id="4" class="fil0" d="M274.38 2624.87c0,3.62 -1.03,6.49 -3.11,8.62 -2.08,2.13 -4.95,3.2 -8.61,3.2 -3.65,0 -6.52,-1.07 -8.59,-3.2 -2.08,-2.13 -3.12,-5 -3.12,-8.62 0,-3.65 1.04,-6.53 3.12,-8.65 2.07,-2.12 4.94,-3.18 8.59,-3.18 3.64,0 6.51,1.06 8.6,3.18 2.08,2.12 3.12,5 3.12,8.65zm-7.76 5.75c0.56,-0.69 0.98,-1.5 1.26,-2.44 0.28,-0.95 0.41,-2.05 0.41,-3.33 0,-1.35 -0.15,-2.52 -0.47,-3.47 -0.31,-0.96 -0.73,-1.73 -1.24,-2.32 -0.52,-0.61 -1.11,-1.05 -1.79,-1.33 -0.68,-0.28 -1.38,-0.41 -2.11,-0.41 -0.75,0 -1.44,0.13 -2.1,0.39 -0.66,0.27 -1.26,0.71 -1.81,1.32 -0.51,0.57 -0.92,1.35 -1.25,2.36 -0.31,1 -0.48,2.16 -0.48,3.48 0,1.35 0.16,2.51 0.47,3.46 0.31,0.95 0.72,1.73 1.23,2.32 0.51,0.6 1.1,1.05 1.78,1.33 0.69,0.29 1.4,0.43 2.16,0.43 0.75,0 1.47,-0.15 2.15,-0.44 0.68,-0.28 1.28,-0.74 1.79,-1.35z"/>
    </g>
   </g>
  </g>
  <polygon class="fil10" points="27.96,2668.61 322.95,2668.61 322.95,2573.16 27.96,2573.16 "/>
 </g>
</svg>
