<?xml version="1.0" encoding="UTF-8"?>
<!DOCTYPE svg PUBLIC "-//W3C//DTD SVG 1.1//EN" "http://www.w3.org/Graphics/SVG/1.1/DTD/svg11.dtd">
<!-- Creator: CorelDRAW 2018 (64 Bit Versão de avaliação) -->
<svg xmlns="http://www.w3.org/2000/svg" xml:space="preserve" width="25.7966mm" height="7.4078mm" version="1.1" style="shape-rendering:geometricPrecision; text-rendering:geometricPrecision; image-rendering:optimizeQuality; fill-rule:evenodd; clip-rule:evenodd"
viewBox="0 0 164.31 47.18"
 xmlns:xlink="http://www.w3.org/1999/xlink">
 <defs>
  <style type="text/css">
   <![CDATA[
    .fil2 {fill:#FEFEFE}
    .fil0 {fill:black}
    .fil1 {fill:white;fill-rule:nonzero}
   ]]>
  </style>
 </defs>
 <g id="Camada_x0020_1">
  <metadata id="CorelCorpID_0Corel-Layer"/>
  <g id="_2758471455712">
   <rect class="fil0" width="164.31" height="47.18"/>
   <path class="fil1" d="M86.9 21.34c0,0.55 -0.09,1.09 -0.28,1.61 -0.19,0.53 -0.46,0.96 -0.82,1.32 -0.48,0.48 -1.03,0.84 -1.63,1.1 -0.6,0.24 -1.35,0.37 -2.23,0.37l-1.96 0 0 3.99 -3.17 0 0 -12.25 5.19 0c0.78,0 1.43,0.06 1.97,0.2 0.54,0.14 1.01,0.34 1.42,0.6 0.5,0.33 0.87,0.74 1.13,1.24 0.26,0.51 0.39,1.11 0.39,1.81l0 0.01zm-3.29 0.07c0,-0.35 -0.09,-0.64 -0.27,-0.9 -0.19,-0.24 -0.4,-0.42 -0.64,-0.52 -0.33,-0.14 -0.64,-0.2 -0.96,-0.22 -0.32,-0.01 -0.73,-0.02 -1.24,-0.02l-0.54 0 0 3.66 0.9 0c0.54,0 0.97,-0.03 1.32,-0.09 0.35,-0.06 0.63,-0.2 0.87,-0.39 0.2,-0.18 0.35,-0.39 0.43,-0.62 0.09,-0.24 0.14,-0.54 0.14,-0.9z"/>
   <polygon id="_1" class="fil1" points="102.1,29.71 98.94,29.71 98.94,24.33 94.3,24.33 94.3,29.71 91.13,29.71 91.13,17.47 94.3,17.47 94.3,21.95 98.94,21.95 98.94,17.47 102.1,17.47 "/>
   <path id="_2" class="fil1" d="M117.36 21.34c0,0.55 -0.09,1.09 -0.28,1.61 -0.19,0.53 -0.46,0.96 -0.82,1.32 -0.48,0.48 -1.03,0.84 -1.63,1.1 -0.6,0.24 -1.35,0.37 -2.23,0.37l-1.96 0 0 3.99 -3.17 0 0 -12.25 5.19 0c0.78,0 1.43,0.06 1.97,0.2 0.54,0.14 1.01,0.34 1.42,0.6 0.5,0.33 0.87,0.74 1.13,1.24 0.26,0.51 0.39,1.11 0.39,1.81l0 0.01zm-3.29 0.07c0,-0.35 -0.09,-0.64 -0.27,-0.9 -0.19,-0.24 -0.4,-0.42 -0.64,-0.52 -0.33,-0.14 -0.64,-0.2 -0.96,-0.22 -0.32,-0.01 -0.73,-0.02 -1.24,-0.02l-0.54 0 0 3.66 0.9 0c0.54,0 0.97,-0.03 1.32,-0.09 0.35,-0.06 0.63,-0.2 0.87,-0.39 0.2,-0.18 0.35,-0.39 0.43,-0.62 0.09,-0.24 0.14,-0.54 0.14,-0.9z"/>
   <g>
    <path class="fil2" d="M12.21 34.34l1.36 0 0.03 -1.33c0,-0.18 0.03,-0.24 0.03,-0.43 -0,-0.3 -0.03,-0.63 0.02,-0.91l0.1 -2.18c-0,-0.19 0.03,-0.28 0.03,-0.43l0.11 -1.73c0.08,0.12 0.59,1.86 0.71,2.18 0.18,0.49 0.53,1.65 0.71,2.21l0.7 2.21c0.02,0.07 0.05,0.13 0.07,0.22 0.09,0.28 0.03,0.19 1.14,0.19 0.12,0 0.15,-0.26 0.19,-0.39l1.13 -3.54c0.32,-0.94 0.64,-2.11 0.96,-2.99l0.05 -0.12c0,0.55 0.13,1.1 0.14,1.73l0.2 3.06c-0,0.2 0.01,0.31 0.03,0.46 0.01,0.14 0,0.32 0,0.46l0.03 0.92c-0,0.53 -0.25,0.4 1.53,0.4l-0.08 -1.7c-0.02,-0.19 0.02,-0.4 -0.01,-0.59 -0.02,-0.15 -0.03,-0.4 -0.04,-0.53l-0.55 -6.06 -1.79 0 -1.61 4.89c-0.09,0.28 -0.18,0.54 -0.27,0.8 -0.05,0.14 -0.09,0.26 -0.14,0.41 -0.02,0.07 -0.04,0.13 -0.06,0.2 -0.01,0.02 -0.03,0.09 -0.04,0.1l-0.05 0.09c-0.01,-0.18 -0.5,-1.55 -0.58,-1.82l-0.87 -2.63c-0.04,-0.15 -0.08,-0.26 -0.13,-0.41 -0.09,-0.28 -0.18,-0.54 -0.27,-0.8l-0.2 -0.61c-0.04,-0.09 -0.06,-0.12 -0.07,-0.22l-1.88 0 -0.12 1.06c-0.04,0.34 -0.08,0.72 -0.11,1.07 -0.03,0.34 -0.05,0.73 -0.1,1.08l-0.22 3.35c-0.02,0.17 -0.01,0.35 -0.02,0.56 -0.01,0.21 -0.03,0.2 -0.03,0.58 0,0.41 -0.03,0.75 -0.03,1.18z"/>
    <path class="fil2" d="M38.79 33.33c-0.56,0 -0.86,0.01 -1.36,-0.35 -0.23,-0.17 -0.43,-0.48 -0.56,-0.77 -0.41,-0.96 -0.44,-2.63 -0.27,-3.75 0.06,-0.38 0.17,-0.7 0.31,-0.99 0.54,-1.2 1.96,-1.26 2.73,-0.73 0.89,0.61 0.92,2.11 1,3.04l-0.06 1.26c-0.08,0.63 -0.31,1.48 -0.81,1.9 -0.22,0.18 -0.59,0.38 -0.97,0.38zm-0.35 1.15c0.29,0 0.82,-0.07 1.05,-0.14 0.2,-0.06 0.47,0.17 0.77,0.34l0.75 0.44c0.13,0.08 0.23,0.14 0.36,0.21 0.07,0.04 0.12,0.06 0.18,0.1 0.07,0.04 0.13,0.09 0.21,0.11l0.28 -0.5c0.07,-0.12 0.26,-0.41 0.27,-0.54l-1.36 -0.66c-0.09,-0.05 -0.1,-0.08 -0.23,-0.09 0.03,-0.12 0.11,-0.11 0.31,-0.32 0.76,-0.82 1.1,-2.24 1.1,-3.34 0,-1.09 -0.03,-2.28 -0.54,-3.18 -0.25,-0.44 -0.46,-0.7 -0.84,-1 -0.06,-0.05 -0.15,-0.11 -0.23,-0.15 -0.73,-0.4 -1.06,-0.37 -1.78,-0.45 -0.25,-0.03 -1.06,0.08 -1.31,0.18 -0.46,0.18 -0.59,0.24 -0.98,0.52 -0.23,0.17 -0.56,0.55 -0.71,0.79 -0.21,0.36 -0.34,0.61 -0.47,1 -0.06,0.19 -0.1,0.38 -0.15,0.6 -0.08,0.35 -0.17,1.38 -0.15,1.67 0.06,0.86 -0.01,1.05 0.23,1.99 0.03,0.11 0.06,0.18 0.09,0.28 0.22,0.78 0.8,1.51 1.56,1.82 0.48,0.19 1.05,0.3 1.57,0.3z"/>
    <path class="fil2" d="M34.89 11.4c0,0.36 0.22,0.73 0.38,0.94l0.29 0.37c0.6,0.73 0.6,0.87 0.9,1.76 0.2,0.59 0.46,1.32 0.85,1.8 0.08,0.1 0.28,0.24 0.25,0.39 -0.02,0.12 -0.13,0.3 -0.16,0.5 -0.1,0.59 -0.29,0.78 -0.29,1.7 0,0.86 0.28,2.25 1.01,2.74 0.46,0.3 0.92,0.09 1.04,-0.42l0.22 -1.07c0.03,0.12 0.36,0.78 0.44,0.91 0.13,0.22 0.31,0.38 0.47,0.57l1.26 1.17c0.12,0.12 0.25,0.25 0.43,0.27 -0.07,-0.1 -0.11,-0.12 -0.21,-0.2 -0.48,-0.38 -0.99,-1.19 -1.31,-1.72 -0.27,-0.46 -0.51,-0.93 -0.75,-1.42l-0.25 -0.61c-0.04,-0.13 -0.04,-0.22 -0.14,-0.29 -0.22,0.15 -0.54,0.69 -0.62,0.96 -0.09,0.31 -0.21,1.03 -0.21,1.37 -0.67,-0.01 -0.89,-1.84 -0.89,-2.28 0,-0.37 0.08,-0.94 0.17,-1.22 0.1,-0.33 0.32,-0.71 0.32,-1.06 0,-0.37 -0.4,-0.45 -0.75,-1.21 -0.11,-0.24 -0.19,-0.43 -0.28,-0.7 -0.09,-0.26 -0.16,-0.5 -0.24,-0.74 -0.08,-0.25 -0.18,-0.48 -0.29,-0.69 -0.35,-0.63 -1.54,-1.79 -0.97,-2.06 0.13,-0.06 0.07,-0.04 0.25,-0.04 0.33,0 1.34,0.49 1.59,0.74 0.07,0.07 0.13,0.11 0.2,0.17 0.31,0.25 1.12,0.09 1.67,0.29 0.64,0.23 1.21,0.57 1.76,0.95 0.38,0.26 0.74,0.57 1.07,0.89 0.73,0.73 1.57,1.75 1.96,2.71 0.36,0.91 0.63,1.34 0.96,2.15 0.19,0.45 0.38,0.89 0.66,1.27 0.21,0.27 0.41,0.33 0.76,0.43 0.19,0.05 0.39,0.13 0.58,0.2 0.89,0.33 0.99,0.58 1.71,1.01 0.24,0.14 0.53,0.3 0.66,0.55 -0.74,0 -1.34,0.02 -1.99,0.26 -0.09,0.03 -0.52,0.12 -0.52,0.26 0,0.27 0.46,0.85 0.66,1.01 0.31,0.25 0.65,0.51 1.01,0.69 1.04,0.52 0.72,0.33 1.61,0.93 0.15,0.1 0.35,0.34 0.5,0.37 -0.02,-0.06 -0.07,-0.15 -0.11,-0.24l-0.22 -0.29c-0.16,-0.13 -0.27,-0.31 -0.41,-0.45 -0.22,-0.22 -0.22,-0.27 -0.54,-0.53 -0.26,-0.22 -0.54,-0.38 -0.83,-0.55 -0.29,-0.18 -0.59,-0.36 -0.75,-0.66 0.4,-0.03 0.73,-0.18 1.14,-0.24 0.29,-0.04 0.61,-0.07 0.88,-0.16 0.1,-0.03 0.18,-0.07 0.28,-0.09 0,-0.2 -0.03,-0.15 -0.14,-0.27 -0.21,-0.23 -0.35,-0.45 -0.59,-0.65 -0.49,-0.4 -1.35,-1.11 -1.94,-1.35 -0.11,-0.05 -1.06,-0.44 -1.13,-0.51 -0.13,-0.12 -0.22,-0.33 -0.3,-0.5 -0.05,-0.11 -0.08,-0.16 -0.13,-0.28l-1.17 -2.55c-0.24,-0.56 -0.56,-1.06 -0.93,-1.55l-0.37 -0.47c-0.24,-0.3 -0.5,-0.6 -0.78,-0.86 -0.66,-0.61 -1.38,-1.11 -2.13,-1.59 -0.1,-0.06 -0.15,-0.1 -0.25,-0.15 -0.39,-0.2 -0.81,-0.3 -1.24,-0.4 -0.29,-0.07 -0.81,0.03 -1.07,-0.17 -0.08,-0.06 -0.14,-0.11 -0.22,-0.18 -0.17,-0.14 -0.32,-0.2 -0.52,-0.32 -0.16,-0.09 -0.39,-0.19 -0.57,-0.26 -0.43,-0.17 -1.17,-0.3 -1.51,0.11 -0.1,0.12 -0.24,0.39 -0.24,0.6z"/>
    <path class="fil2" d="M28.92 27.62c0,0.5 0.05,0.98 0.35,1.38 0.07,0.09 0.15,0.2 0.23,0.29 0.14,0.15 0.37,0.33 0.55,0.43l1.91 1.09c0.36,0.24 0.85,0.63 0.85,1.14 0,0.47 -0.08,0.81 -0.49,1.1 -0.62,0.44 -1.58,0.36 -2.28,0.15 -1.1,-0.34 -0.67,-0.65 -1.24,0.43 1.11,0.74 2.49,1.09 3.8,0.65 1.46,-0.48 2.17,-1.94 1.63,-3.28 -0.05,-0.12 -0.11,-0.23 -0.19,-0.33 -0.16,-0.22 -0.3,-0.36 -0.51,-0.53 -0.17,-0.14 -0.78,-0.49 -0.98,-0.58l-1.31 -0.74c-0.44,-0.31 -0.86,-0.66 -0.86,-1.27 0,-0.66 0.66,-1.12 1.36,-1.12 1.13,0 1.56,0.34 1.82,0.35 0.03,-0.14 0.11,-0.26 0.16,-0.39 0.05,-0.12 0.15,-0.28 0.16,-0.39 -0.07,-0.02 -0.14,-0.07 -0.21,-0.11 -0.08,-0.05 -0.14,-0.08 -0.23,-0.12 -0.83,-0.43 -2.11,-0.57 -3,-0.21 -0.15,0.06 -0.27,0.12 -0.41,0.2 -0.67,0.4 -1.12,1.07 -1.12,1.88z"/>
    <path class="fil2" d="M24.16 34.25c0,0.31 0.01,0.45 -0.17,0.73 -0.07,0.11 -0.21,0.28 -0.31,0.36 -0.61,0.47 -1.04,0.3 -1.63,0.3 0,0.95 -0.08,0.79 0.3,0.91 0.96,0.31 1.66,-0.06 2.38,-0.66l0.44 -0.49c0.6,-0.76 0.98,-1.51 1.34,-2.42 0.24,-0.61 0.54,-1.49 0.7,-2.13 0.15,-0.58 0.68,-2.6 0.68,-3.1l-1.33 0c-0.12,0 -0.13,0.4 -0.17,0.66l-0.25 1.45c-0.12,0.65 -0.33,1.42 -0.52,2.05l-0.44 1.29c0,-0.46 -0.18,-1.05 -0.29,-1.47 -0.06,-0.22 -0.14,-0.44 -0.2,-0.66l-0.83 -2.69c-0.04,-0.12 -0.06,-0.21 -0.1,-0.33 -0.14,-0.41 0.12,-0.3 -1.55,-0.3 0,0.17 0.18,0.63 0.23,0.81l1.29 3.99c0.05,0.14 0.09,0.25 0.13,0.39 0.1,0.35 0.32,0.95 0.32,1.3z"/>
    <path class="fil2" d="M43.41 34.34l4.24 0 0 -1.04c0,-0.07 -0.02,-0.09 -0.09,-0.09l-2.71 0 0 -7.76 -1.44 0 0 8.89z"/>
    <path class="fil2" d="M49.44 33.3l0 1.04c0.28,0 0.23,0.01 0.23,-0.32 -0,-0.14 -0,-0.29 -0,-0.43l0.02 0.04c0,0.01 0.02,0.03 0.02,0.04l0.25 0.68 0.17 0c0.05,-0.1 0.1,-0.25 0.14,-0.35l0.15 -0.37 0 0.72 0.26 0 0 -1.1c-0.4,-0.09 -0.38,-0.01 -0.48,0.3 -0.04,0.13 -0.12,0.27 -0.13,0.39 -0.03,-0.04 -0.01,-0.01 -0.05,-0.07 -0.13,-0.21 -0.19,-0.65 -0.33,-0.65 -0.19,0 -0.26,-0.03 -0.26,0.09z"/>
    <path class="fil2" d="M38.04 13.22c0.18,0.34 0.23,0.18 0.54,0.84 0.03,0.06 0.04,0.09 0.06,0.14 0.24,-0.06 0.26,-0.35 0.26,-0.55 0,-0.07 -0.25,-0.51 -0.53,-0.48 -0.11,0.01 -0.25,0.04 -0.34,0.04z"/>
    <path class="fil2" d="M48.31 33.3c0,0.17 -0.01,0.14 0.32,0.14l0 0.81c0,0.11 0.07,0.09 0.26,0.09l0 -0.89c0.33,0 0.32,0.03 0.32,-0.14 0,-0.07 -0.02,-0.09 -0.09,-0.09l-0.72 0c-0.07,0 -0.09,0.02 -0.09,0.09z"/>
   </g>
  </g>
 </g>
</svg>
