<?xml version="1.0" encoding="UTF-8"?>
<!DOCTYPE svg PUBLIC "-//W3C//DTD SVG 1.1//EN" "http://www.w3.org/Graphics/SVG/1.1/DTD/svg11.dtd">
<!-- Creator: CorelDRAW 2019 (64 Bit) -->
<svg xmlns="http://www.w3.org/2000/svg" xml:space="preserve" width="112px" height="32px" version="1.1" style="shape-rendering:geometricPrecision; text-rendering:geometricPrecision; image-rendering:optimizeQuality; fill-rule:evenodd; clip-rule:evenodd"
viewBox="0 0 5.78 1.63"
 xmlns:xlink="http://www.w3.org/1999/xlink">
 <defs>
  <style type="text/css">
   <![CDATA[
    .fil1 {fill:black}
    .fil0 {fill:#555555}
    .fil2 {fill:white}
    .fil3 {fill:white;fill-rule:nonzero}
   ]]>
  </style>
 </defs>
 <g id="Camada_x0020_1">
  <metadata id="CorelCorpID_0Corel-Layer"/>
  <g id="_2347290742176">
   <rect class="fil0" x="0.12" width="0" height="1.5"/>
   <rect class="fil1" width="5.78" height="1.63"/>
   <g>
    <g>
     <path class="fil2" d="M0.82 1.03l0.29 0c0,-0.02 0,-0.03 -0.01,-0.03l-0.26 0 0 -0.18 0.25 0 0 -0.03 -0.25 0 0 -0.17 0.27 0 0 -0.02 -0.29 0 0 0.43z"/>
     <path class="fil2" d="M1.61 0.37c-0.01,0.01 -0.18,0.24 -0.2,0.26 -0.01,0.01 -0.02,0.03 -0.03,0.05 -0.01,0.01 -0.08,0.1 -0.08,0.1 -0.01,0 -0.02,-0.02 -0.03,-0.03l-0.11 -0.15 -0.03 0c0.01,0.01 0.01,0.02 0.02,0.02l0.11 0.16c0.01,0.01 0.01,0.02 0.02,0.03l-0.14 0.19c0,0 -0.02,0.02 -0.02,0.03 0.04,0 0.02,0.01 0.08,-0.07 0,-0.01 0.01,-0.01 0.02,-0.02 0,-0.01 0.01,-0.02 0.02,-0.03 0,0 0,-0.01 0.01,-0.01 0,-0.01 0,-0.01 0.01,-0.02l0.03 -0.04c0,0 0,-0.01 0,-0.01 0.01,0 0.02,0.01 0.03,0.02l0.1 0.14c0,0.01 0.01,0.02 0.02,0.03 0,0.01 0.01,0.01 0.03,0.01 -0.01,-0.02 -0.02,-0.04 -0.03,-0.06l-0.11 -0.14c0,0 0,0 0,-0.01 -0.01,0 -0.01,-0.01 -0.01,-0.02l0.2 -0.29c0.01,-0.01 0.09,-0.13 0.09,-0.14z"/>
     <path class="fil2" d="M0.93 1.25c0,0 -0.02,-0.03 -0.03,-0.04l-0.24 -0.36c-0.01,-0.02 -0.02,-0.03 -0.03,-0.05 -0.01,-0.01 -0.14,-0.19 -0.14,-0.2l-0.03 0 0 0.4 0 0.02c0,0.01 0,0.01 0.02,0.01l0 -0.37c0,-0.01 0.01,-0.02 0.01,-0.03l0 0.01c0.01,0.01 0.01,0.01 0.01,0.01 0.03,0.04 0.07,0.1 0.1,0.14 0,0.01 0,0.01 0.01,0.02 0.04,0.06 0.09,0.13 0.13,0.2 0.01,0 0.01,0.01 0.02,0.02l0.11 0.15c0.01,0.01 0.02,0.02 0.03,0.04l0.03 0.03z"/>
     <polygon class="fil2" points="1.48,0.62 1.64,0.62 1.64,1.03 1.66,1.03 1.66,0.62 1.81,0.62 1.81,0.6 1.48,0.6 "/>
     <path class="fil2" d="M1.91 0.93c0,0.01 0.01,0.02 0.03,0.02 0.01,0.01 0.03,0.01 0.03,0.02 0,0.01 -0.03,0.02 -0.04,0 -0.01,0 0,0 -0.02,0 0,0.04 0.07,0.03 0.07,0 0,-0.01 0,-0.02 -0.02,-0.03 -0.01,0 -0.03,0 -0.03,-0.01 0,-0.02 0.03,-0.03 0.04,0l0.01 0c0,-0.01 0,-0.01 0,-0.01 -0.01,-0.03 -0.07,-0.03 -0.07,0.01z"/>
     <path class="fil2" d="M1.88 0.97c0,0.01 -0.02,0.02 -0.03,0l-0.01 0c0,0.04 0.05,0.04 0.05,0l0 -0.07 -0.01 0 0 0.07z"/>
     <path class="fil2" d="M1.8 0.98c0,0.02 0,0.02 0.02,0.02 0.01,-0.02 0,-0.03 -0.02,-0.02z"/>
     <path class="fil2" d="M0.93 1.26c0,-0.01 0,0 0,-0.01 0,0.01 0,0.01 0,0.01z"/>
     <polygon class="fil2" points="1.62,0.37 1.62,0.37 1.62,0.36 "/>
     <polygon class="fil2" points="0.94,1.27 0.94,1.27 0.94,1.27 "/>
     <polygon class="fil2" points="1.62,0.37 1.62,0.37 "/>
     <polygon class="fil2" points="1.62,0.37 1.62,0.37 "/>
     <polygon class="fil2" points="1.62,0.37 1.61,0.37 "/>
     <polygon class="fil2" points="0.94,1.26 0.93,1.26 "/>
     <polygon class="fil2" points="0.94,1.27 0.94,1.26 "/>
     <polygon class="fil2" points="0.94,1.27 0.94,1.27 "/>
    </g>
    <polygon class="fil3" points="2.95,1.01 2.85,1.01 2.69,0.74 2.69,1.01 2.59,1.01 2.59,0.62 2.71,0.62 2.85,0.84 2.85,0.62 2.95,0.62 "/>
    <polygon id="1" class="fil3" points="3.38,1.01 3.1,1.01 3.1,0.62 3.38,0.62 3.38,0.7 3.2,0.7 3.2,0.76 3.37,0.76 3.37,0.84 3.2,0.84 3.2,0.94 3.38,0.94 "/>
    <polygon id="2" class="fil3" points="3.88,1.01 3.76,1.01 3.68,0.88 3.59,1.01 3.48,1.01 3.62,0.81 3.48,0.62 3.6,0.62 3.68,0.74 3.76,0.62 3.87,0.62 3.74,0.81 "/>
    <polygon id="3" class="fil3" points="4.29,0.7 4.17,0.7 4.17,1.01 4.07,1.01 4.07,0.7 3.95,0.7 3.95,0.62 4.29,0.62 "/>
    <polygon id="4" class="fil3" points="4.5,1.01 4.41,1.01 4.41,0.91 4.5,0.91 "/>
    <path id="5" class="fil3" d="M4.86 0.9c0,0.01 0,0.03 -0.01,0.04 -0.01,0.02 -0.01,0.03 -0.03,0.04 -0.01,0.01 -0.02,0.02 -0.04,0.03 -0.02,0 -0.04,0.01 -0.07,0.01 -0.02,0 -0.03,0 -0.05,-0.01 -0.02,0 -0.03,0 -0.04,0l0 -0.08 0.01 0c0.01,0 0.02,0.01 0.02,0.01 0.01,0 0.02,0 0.04,0 0.02,0 0.03,0 0.04,0 0.01,-0.01 0.02,-0.02 0.02,-0.02 0.01,-0.01 0.01,-0.02 0.01,-0.03 0,-0.01 0,-0.03 0,-0.04l0 -0.16 -0.09 0 0 -0.07 0.19 0 0 0.28z"/>
    <path id="6" class="fil3" d="M5.32 0.89c0,0.04 -0.02,0.07 -0.05,0.09 -0.03,0.03 -0.07,0.04 -0.13,0.04 -0.03,0 -0.06,-0.01 -0.08,-0.01 -0.03,-0.01 -0.05,-0.01 -0.07,-0.02l0 -0.1 0.01 0c0.02,0.02 0.04,0.03 0.07,0.04 0.02,0.01 0.05,0.02 0.07,0.02 0.01,0 0.02,0 0.03,-0.01 0.01,0 0.02,0 0.02,0 0.01,0 0.02,-0.01 0.02,-0.01 0.01,-0.01 0.01,-0.01 0.01,-0.02 0,-0.01 -0.01,-0.02 -0.01,-0.03 -0.01,0 -0.02,-0.01 -0.03,-0.01 -0.02,0 -0.03,-0.01 -0.05,-0.01 -0.02,0 -0.03,-0.01 -0.05,-0.01 -0.03,-0.01 -0.05,-0.03 -0.07,-0.04 -0.01,-0.02 -0.02,-0.05 -0.02,-0.07 0,-0.04 0.02,-0.07 0.05,-0.09 0.03,-0.02 0.07,-0.03 0.12,-0.03 0.03,0 0.06,0 0.08,0 0.03,0.01 0.05,0.01 0.07,0.02l0 0.09 -0.02 0c-0.01,-0.01 -0.03,-0.02 -0.05,-0.03 -0.03,-0.01 -0.05,-0.01 -0.07,-0.01 -0.01,0 -0.02,0 -0.03,0 -0.01,0 -0.01,0 -0.02,0 -0.01,0.01 -0.01,0.01 -0.02,0.02 0,0 -0.01,0.01 -0.01,0.01 0,0.01 0.01,0.02 0.02,0.03 0,0 0.02,0.01 0.04,0.01 0.01,0.01 0.03,0.01 0.04,0.01 0.01,0 0.03,0.01 0.04,0.01 0.03,0.01 0.06,0.03 0.07,0.04 0.01,0.02 0.02,0.04 0.02,0.07z"/>
   </g>
  </g>
 </g>
</svg>
