<?xml version="1.0" encoding="UTF-8"?>
<!DOCTYPE svg PUBLIC "-//W3C//DTD SVG 1.1//EN" "http://www.w3.org/Graphics/SVG/1.1/DTD/svg11.dtd">
<!-- Creator: CorelDRAW 2019 (64 Bit) -->
<svg xmlns="http://www.w3.org/2000/svg" xml:space="preserve" width="338px" height="95px" version="1.1" style="shape-rendering:geometricPrecision; text-rendering:geometricPrecision; image-rendering:optimizeQuality; fill-rule:evenodd; clip-rule:evenodd"
viewBox="0 0 46.97 13.27"
 xmlns:xlink="http://www.w3.org/1999/xlink">
 <defs>
  <style type="text/css">
   <![CDATA[
    .fil1 {fill:black}
    .fil0 {fill:#555555}
    .fil2 {fill:white}
    .fil3 {fill:white;fill-rule:nonzero}
   ]]>
  </style>
 </defs>
 <g id="Camada_x0020_1">
  <metadata id="CorelCorpID_0Corel-Layer"/>
  <g id="_2383692119280">
   <rect class="fil0" x="0.94" width="0" height="12.16"/>
   <rect class="fil1" width="46.97" height="13.27"/>
   <g>
    <g>
     <path class="fil2" d="M6.64 8.35l2.38 0c0,-0.15 0.02,-0.21 -0.05,-0.21l-2.11 0 0 -1.5 2.01 0 0 -0.2 -2.01 0 0 -1.39 2.13 0 0 -0.18 -2.35 0 0 3.48z"/>
     <path class="fil2" d="M13.12 3.03c-0.07,0.05 -1.49,1.89 -1.62,2.06 -0.11,0.15 -0.21,0.29 -0.32,0.43 -0.08,0.11 -0.59,0.82 -0.64,0.85 -0.04,-0.03 -0.15,-0.2 -0.2,-0.26l-0.88 -1.24 -0.27 0c0.05,0.07 0.1,0.13 0.15,0.2l0.91 1.27c0.05,0.07 0.11,0.14 0.15,0.22l-1.13 1.55c-0.04,0.05 -0.14,0.19 -0.16,0.24 0.35,0 0.18,0.07 0.62,-0.51 0.06,-0.08 0.1,-0.15 0.16,-0.22 0.06,-0.08 0.1,-0.14 0.16,-0.22 0.03,-0.04 0.05,-0.07 0.08,-0.11 0.03,-0.04 0.05,-0.07 0.08,-0.11l0.24 -0.33c0.02,-0.03 0.07,-0.08 0.08,-0.12 0.05,0.01 0.11,0.13 0.17,0.2l0.81 1.12c0.05,0.08 0.1,0.15 0.16,0.23 0.07,0.1 0.09,0.07 0.32,0.07 -0.1,-0.16 -0.21,-0.29 -0.32,-0.45l-0.82 -1.12c-0.03,-0.04 -0.05,-0.07 -0.08,-0.11 -0.03,-0.04 -0.06,-0.08 -0.07,-0.13l1.67 -2.4c0.04,-0.06 0.74,-1.05 0.75,-1.11z"/>
     <path class="fil2" d="M7.56 10.19c-0.01,-0.05 -0.17,-0.27 -0.21,-0.33l-2.01 -2.99c-0.08,-0.11 -0.15,-0.22 -0.23,-0.34 -0.09,-0.13 -1.09,-1.6 -1.11,-1.66l-0.29 0 0 3.24 0 0.2c0.01,0.05 0.06,0.04 0.23,0.04l0 -3c0,-0.09 0.01,-0.12 0.02,-0.19l0.05 0.07c0.02,0.04 0.03,0.05 0.06,0.08 0.23,0.32 0.53,0.81 0.77,1.13 0.04,0.05 0.07,0.1 0.11,0.15 0.34,0.52 0.75,1.08 1.09,1.59 0.04,0.07 0.07,0.11 0.12,0.17l0.93 1.23c0.08,0.11 0.14,0.21 0.23,0.31l0.24 0.3z"/>
     <polygon class="fil2" points="12.07,5.05 13.29,5.05 13.29,8.35 13.51,8.35 13.51,5.05 14.74,5.05 14.74,4.87 12.07,4.87 "/>
     <path class="fil2" d="M15.56 7.55c0,0.13 0.09,0.17 0.19,0.2 0.07,0.03 0.25,0.05 0.25,0.13 0,0.13 -0.21,0.19 -0.32,0.04 -0.04,-0.04 0.02,-0.04 -0.13,-0.04 0,0.33 0.57,0.28 0.57,0.03 0,-0.12 -0.01,-0.19 -0.18,-0.24 -0.07,-0.02 -0.25,-0.05 -0.25,-0.12 0,-0.12 0.21,-0.2 0.31,-0.01l0.12 0c-0.02,-0.03 -0.01,-0.05 -0.03,-0.08 -0.1,-0.21 -0.53,-0.19 -0.53,0.09z"/>
     <path class="fil2" d="M15.27 7.91c0,0.08 -0.18,0.15 -0.22,-0.01l-0.13 0c0.01,0.28 0.47,0.29 0.47,0l0 -0.56 -0.12 0 0 0.57z"/>
     <path class="fil2" d="M14.64 7.97c0,0.13 0.01,0.13 0.13,0.13 0.07,-0.13 -0.01,-0.19 -0.13,-0.13z"/>
     <path class="fil2" d="M7.59 10.24c-0.01,-0.04 0,-0.02 -0.03,-0.05 0.01,0.05 0,0.03 0.03,0.05z"/>
     <polygon class="fil2" points="13.17,2.97 13.18,2.97 13.17,2.95 "/>
     <polygon class="fil2" points="7.64,10.3 7.64,10.32 7.66,10.31 "/>
     <polygon class="fil2" points="13.17,2.97 13.15,2.99 "/>
     <polygon class="fil2" points="13.14,3.02 13.15,2.99 "/>
     <polygon class="fil2" points="13.14,3.02 13.12,3.03 "/>
     <polygon class="fil2" points="7.61,10.26 7.59,10.24 "/>
     <polygon class="fil2" points="7.62,10.29 7.61,10.26 "/>
     <polygon class="fil2" points="7.64,10.3 7.62,10.29 "/>
    </g>
    <polygon class="fil3" points="23.95,8.21 23.17,8.21 21.83,6.05 21.83,8.21 21.08,8.21 21.08,5.06 22.06,5.06 23.21,6.87 23.21,5.06 23.95,5.06 "/>
    <polygon id="1" class="fil3" points="27.5,8.21 25.22,8.21 25.22,5.06 27.5,5.06 27.5,5.67 26.03,5.67 26.03,6.21 27.4,6.21 27.4,6.82 26.03,6.82 26.03,7.6 27.5,7.6 "/>
    <polygon id="2" class="fil3" points="31.51,8.21 30.56,8.21 29.88,7.18 29.19,8.21 28.29,8.21 29.41,6.62 28.31,5.06 29.25,5.06 29.91,6.04 30.59,5.06 31.49,5.06 30.39,6.59 "/>
    <polygon id="3" class="fil3" points="34.89,5.67 33.9,5.67 33.9,8.21 33.09,8.21 33.09,5.67 32.1,5.67 32.1,5.06 34.89,5.06 "/>
    <polygon id="4" class="fil3" points="36.62,8.21 35.82,8.21 35.82,7.38 36.62,7.38 "/>
    <path id="5" class="fil3" d="M39.51 7.29c0,0.14 -0.02,0.27 -0.07,0.39 -0.05,0.12 -0.12,0.22 -0.22,0.3 -0.11,0.09 -0.23,0.16 -0.38,0.21 -0.14,0.05 -0.32,0.07 -0.54,0.07 -0.14,0 -0.28,0 -0.41,-0.01 -0.13,-0.01 -0.24,-0.03 -0.34,-0.05l0 -0.64 0.08 0c0.07,0.03 0.14,0.05 0.21,0.07 0.07,0.03 0.17,0.04 0.28,0.04 0.15,0 0.26,-0.02 0.34,-0.06 0.08,-0.04 0.14,-0.1 0.17,-0.17 0.04,-0.07 0.05,-0.14 0.06,-0.23 0,-0.08 0.01,-0.18 0.01,-0.31l0 -1.26 -0.73 0 0 -0.58 1.54 0 0 2.23z"/>
    <path id="6" class="fil3" d="M43.26 7.22c0,0.31 -0.13,0.57 -0.4,0.76 -0.26,0.19 -0.62,0.29 -1.07,0.29 -0.26,0 -0.49,-0.02 -0.68,-0.07 -0.2,-0.04 -0.38,-0.1 -0.55,-0.17l0 -0.76 0.09 0c0.17,0.14 0.36,0.24 0.56,0.31 0.21,0.07 0.41,0.11 0.6,0.11 0.05,0 0.12,-0.01 0.2,-0.01 0.08,-0.01 0.15,-0.03 0.2,-0.05 0.06,-0.02 0.11,-0.05 0.15,-0.09 0.04,-0.04 0.06,-0.1 0.06,-0.17 0,-0.07 -0.03,-0.13 -0.09,-0.18 -0.06,-0.05 -0.14,-0.09 -0.25,-0.12 -0.12,-0.02 -0.25,-0.05 -0.38,-0.08 -0.13,-0.02 -0.26,-0.05 -0.37,-0.09 -0.27,-0.09 -0.46,-0.2 -0.58,-0.35 -0.11,-0.15 -0.17,-0.33 -0.17,-0.55 0,-0.3 0.13,-0.53 0.39,-0.72 0.27,-0.19 0.61,-0.28 1.02,-0.28 0.21,0 0.41,0.02 0.62,0.06 0.2,0.04 0.37,0.09 0.52,0.15l0 0.73 -0.08 0c-0.13,-0.1 -0.29,-0.19 -0.47,-0.26 -0.18,-0.06 -0.37,-0.1 -0.57,-0.1 -0.06,0 -0.13,0.01 -0.2,0.02 -0.06,0.01 -0.13,0.02 -0.19,0.05 -0.06,0.02 -0.1,0.05 -0.14,0.09 -0.04,0.05 -0.06,0.1 -0.06,0.15 0,0.08 0.03,0.15 0.09,0.19 0.07,0.05 0.19,0.09 0.36,0.12 0.12,0.03 0.23,0.05 0.34,0.07 0.1,0.03 0.22,0.06 0.34,0.1 0.24,0.08 0.42,0.18 0.54,0.32 0.11,0.14 0.17,0.31 0.17,0.53z"/>
   </g>
  </g>
 </g>
</svg>
