<?xml version="1.0" encoding="UTF-8"?>
<!DOCTYPE svg PUBLIC "-//W3C//DTD SVG 1.1//EN" "http://www.w3.org/Graphics/SVG/1.1/DTD/svg11.dtd">
<!-- Creator: CorelDRAW 2019 (64 Bit) -->
<svg xmlns="http://www.w3.org/2000/svg" xml:space="preserve" width="248px" height="70px" version="1.1" style="shape-rendering:geometricPrecision; text-rendering:geometricPrecision; image-rendering:optimizeQuality; fill-rule:evenodd; clip-rule:evenodd"
viewBox="0 0 28.37 8.02"
 xmlns:xlink="http://www.w3.org/1999/xlink">
 <defs>
  <style type="text/css">
   <![CDATA[
    .fil1 {fill:black}
    .fil0 {fill:#555555}
    .fil2 {fill:white}
    .fil3 {fill:white;fill-rule:nonzero}
   ]]>
  </style>
 </defs>
 <g id="Camada_x0020_1">
  <metadata id="CorelCorpID_0Corel-Layer"/>
  <g id="_2383682281872">
   <rect class="fil0" x="0.57" width="0" height="7.35"/>
   <rect class="fil1" width="28.37" height="8.02"/>
   <g>
    <g>
     <path class="fil2" d="M4.01 5.04l1.44 0c0,-0.09 0.01,-0.12 -0.03,-0.12l-1.28 0 0 -0.91 1.21 0 0 -0.12 -1.21 0 0 -0.84 1.29 0 0 -0.11 -1.42 0 0 2.1z"/>
     <path class="fil2" d="M7.93 1.83c-0.05,0.03 -0.91,1.14 -0.98,1.25 -0.07,0.08 -0.13,0.17 -0.2,0.25 -0.05,0.07 -0.35,0.5 -0.38,0.52 -0.03,-0.02 -0.1,-0.12 -0.12,-0.16l-0.54 -0.75 -0.16 0c0.03,0.04 0.06,0.08 0.09,0.12l0.55 0.77c0.03,0.04 0.07,0.09 0.09,0.13l-0.68 0.94c-0.02,0.03 -0.09,0.11 -0.1,0.14 0.22,0 0.11,0.04 0.38,-0.3 0.03,-0.05 0.06,-0.09 0.09,-0.14 0.04,-0.04 0.07,-0.08 0.1,-0.13 0.02,-0.02 0.03,-0.04 0.05,-0.06 0.02,-0.03 0.03,-0.05 0.05,-0.08l0.14 -0.19c0.02,-0.02 0.04,-0.05 0.05,-0.08 0.03,0.01 0.07,0.08 0.1,0.13l0.49 0.67c0.03,0.05 0.06,0.09 0.1,0.14 0.04,0.06 0.05,0.04 0.19,0.04 -0.06,-0.09 -0.13,-0.17 -0.19,-0.27l-0.5 -0.68c-0.01,-0.02 -0.03,-0.04 -0.04,-0.06 -0.02,-0.02 -0.04,-0.05 -0.05,-0.08l1.01 -1.45c0.03,-0.04 0.45,-0.63 0.46,-0.67z"/>
     <path class="fil2" d="M4.57 6.16c-0.01,-0.03 -0.11,-0.17 -0.13,-0.2l-1.22 -1.81c-0.04,-0.07 -0.08,-0.13 -0.13,-0.2 -0.06,-0.09 -0.66,-0.97 -0.67,-1.01l-0.18 0 0 1.96 0 0.12c0.01,0.03 0.03,0.02 0.14,0.02l0 -1.81c0,-0.05 0.01,-0.07 0.01,-0.11l0.03 0.04c0.02,0.02 0.02,0.03 0.04,0.05 0.14,0.19 0.32,0.49 0.46,0.68 0.03,0.03 0.04,0.06 0.07,0.09 0.21,0.32 0.45,0.65 0.66,0.96 0.02,0.04 0.04,0.07 0.07,0.1l0.56 0.75c0.05,0.06 0.09,0.12 0.14,0.18l0.15 0.19z"/>
     <polygon class="fil2" points="7.29,3.05 8.03,3.05 8.03,5.04 8.16,5.04 8.16,3.05 8.9,3.05 8.9,2.94 7.29,2.94 "/>
     <path class="fil2" d="M9.4 4.56c0,0.08 0.05,0.1 0.11,0.12 0.05,0.02 0.15,0.03 0.15,0.08 0,0.07 -0.12,0.11 -0.19,0.02 -0.02,-0.02 0.01,-0.02 -0.08,-0.02 0,0.2 0.35,0.17 0.35,0.02 0,-0.07 -0.01,-0.12 -0.11,-0.15 -0.04,-0.01 -0.16,-0.03 -0.16,-0.07 0,-0.07 0.13,-0.12 0.19,-0.01l0.08 0c-0.01,-0.02 -0.01,-0.03 -0.02,-0.05 -0.06,-0.12 -0.32,-0.11 -0.32,0.06z"/>
     <path class="fil2" d="M9.22 4.78c0,0.04 -0.11,0.09 -0.13,-0.01l-0.08 0c0.01,0.17 0.29,0.18 0.29,0l0 -0.34 -0.08 0 0 0.35z"/>
     <path class="fil2" d="M8.84 4.82c0,0.07 0.01,0.07 0.08,0.07 0.04,-0.08 -0.01,-0.12 -0.08,-0.07z"/>
     <path class="fil2" d="M4.58 6.19c0,-0.03 0.01,-0.02 -0.01,-0.03 0,0.02 -0.01,0.01 0.01,0.03z"/>
     <polygon class="fil2" points="7.95,1.79 7.96,1.79 7.95,1.78 "/>
     <polygon class="fil2" points="4.61,6.22 4.61,6.23 4.62,6.22 "/>
     <polygon class="fil2" points="7.95,1.79 7.94,1.8 "/>
     <polygon class="fil2" points="7.93,1.82 7.94,1.8 "/>
     <polygon class="fil2" points="7.93,1.82 7.93,1.83 "/>
     <polygon class="fil2" points="4.59,6.19 4.58,6.19 "/>
     <polygon class="fil2" points="4.6,6.21 4.59,6.19 "/>
     <polygon class="fil2" points="4.61,6.22 4.6,6.21 "/>
    </g>
    <polygon class="fil3" points="14.47,4.96 13.99,4.96 13.18,3.65 13.18,4.96 12.73,4.96 12.73,3.05 13.32,3.05 14.02,4.15 14.02,3.05 14.47,3.05 "/>
    <polygon id="1" class="fil3" points="16.61,4.96 15.23,4.96 15.23,3.05 16.61,3.05 16.61,3.42 15.72,3.42 15.72,3.75 16.55,3.75 16.55,4.12 15.72,4.12 15.72,4.59 16.61,4.59 "/>
    <polygon id="2" class="fil3" points="19.03,4.96 18.46,4.96 18.05,4.34 17.63,4.96 17.09,4.96 17.76,4 17.1,3.05 17.67,3.05 18.06,3.65 18.47,3.05 19.02,3.05 18.35,3.98 "/>
    <polygon id="3" class="fil3" points="21.07,3.42 20.48,3.42 20.48,4.96 19.98,4.96 19.98,3.42 19.39,3.42 19.39,3.05 21.07,3.05 "/>
    <polygon id="4" class="fil3" points="22.11,4.96 21.63,4.96 21.63,4.46 22.11,4.46 "/>
    <path id="5" class="fil3" d="M23.86 4.4c0,0.08 -0.01,0.16 -0.04,0.24 -0.03,0.07 -0.08,0.13 -0.13,0.18 -0.07,0.05 -0.14,0.1 -0.23,0.13 -0.09,0.03 -0.2,0.04 -0.33,0.04 -0.08,0 -0.17,0 -0.24,-0.01 -0.08,-0.01 -0.15,-0.01 -0.21,-0.03l0 -0.38 0.05 0c0.04,0.01 0.08,0.03 0.12,0.04 0.05,0.01 0.1,0.02 0.17,0.02 0.09,0 0.16,-0.01 0.21,-0.04 0.05,-0.02 0.08,-0.05 0.1,-0.1 0.02,-0.04 0.03,-0.08 0.04,-0.13 0,-0.05 0,-0.12 0,-0.19l0 -0.76 -0.44 0 0 -0.36 0.93 0 0 1.35z"/>
    <path id="6" class="fil3" d="M26.13 4.36c0,0.19 -0.08,0.34 -0.24,0.46 -0.16,0.12 -0.38,0.18 -0.65,0.18 -0.16,0 -0.3,-0.02 -0.41,-0.05 -0.12,-0.02 -0.23,-0.06 -0.33,-0.1l0 -0.46 0.05 0c0.1,0.08 0.22,0.15 0.34,0.19 0.13,0.04 0.25,0.06 0.36,0.06 0.03,0 0.07,0 0.12,0 0.05,-0.01 0.09,-0.02 0.12,-0.03 0.04,-0.02 0.07,-0.03 0.09,-0.06 0.03,-0.02 0.04,-0.05 0.04,-0.1 0,-0.04 -0.02,-0.08 -0.05,-0.11 -0.04,-0.03 -0.09,-0.05 -0.16,-0.07 -0.07,-0.01 -0.15,-0.03 -0.23,-0.05 -0.08,-0.01 -0.15,-0.03 -0.22,-0.05 -0.16,-0.05 -0.28,-0.13 -0.35,-0.21 -0.07,-0.09 -0.1,-0.2 -0.1,-0.34 0,-0.17 0.08,-0.32 0.24,-0.43 0.16,-0.11 0.36,-0.17 0.61,-0.17 0.13,0 0.25,0.01 0.37,0.04 0.12,0.02 0.23,0.05 0.32,0.09l0 0.44 -0.05 0c-0.08,-0.06 -0.17,-0.12 -0.28,-0.16 -0.12,-0.04 -0.23,-0.06 -0.35,-0.06 -0.04,0 -0.08,0 -0.12,0.01 -0.04,0.01 -0.08,0.02 -0.11,0.03 -0.04,0.01 -0.07,0.03 -0.09,0.06 -0.02,0.02 -0.04,0.05 -0.04,0.09 0,0.05 0.02,0.09 0.06,0.11 0.04,0.03 0.11,0.05 0.22,0.08 0.07,0.01 0.14,0.03 0.2,0.04 0.07,0.01 0.13,0.03 0.21,0.06 0.14,0.04 0.25,0.11 0.32,0.19 0.07,0.08 0.11,0.19 0.11,0.32z"/>
   </g>
  </g>
 </g>
</svg>
