<?xml version="1.0" encoding="UTF-8"?>
<!DOCTYPE svg PUBLIC "-//W3C//DTD SVG 1.1//EN" "http://www.w3.org/Graphics/SVG/1.1/DTD/svg11.dtd">
<!-- Creator: CorelDRAW 2018 (64 Bit Versão de avaliação) -->
<svg xmlns="http://www.w3.org/2000/svg" xml:space="preserve" width="25.7966mm" height="7.4082mm" version="1.1" style="shape-rendering:geometricPrecision; text-rendering:geometricPrecision; image-rendering:optimizeQuality; fill-rule:evenodd; clip-rule:evenodd"
viewBox="0 0 155.94 44.78"
 xmlns:xlink="http://www.w3.org/1999/xlink">
 <defs>
  <style type="text/css">
   <![CDATA[
    .fil1 {fill:#FEFEFE}
    .fil0 {fill:black}
    .fil2 {fill:white;fill-rule:nonzero}
   ]]>
  </style>
 </defs>
 <g id="Camada_x0020_1">
  <metadata id="CorelCorpID_0Corel-Layer"/>
  <rect class="fil0" width="155.94" height="44.78"/>
  <g id="_2758742553280">
   <path class="fil1" d="M41.4 25.12c0.12,-0.26 0.8,-3.83 0.84,-4.31 2.25,0 4.31,-0.32 4.31,1.56 0,3.15 -2.82,2.76 -5.15,2.76zm-3.84 5.51l2.88 0 0.6 -3.36c2.89,0 6.12,0.31 7.59,-2.24 1.05,-1.82 1.38,-4.62 -0.78,-5.89 -1.48,-0.88 -5.71,-0.62 -7.77,-0.62 -0.53,0 -0.49,0.79 -0.57,1.23l-0.86 4.65c-0.21,1.04 -0.36,1.95 -0.56,3.04 -0.17,0.89 -0.53,2.33 -0.53,3.19z"/>
   <path class="fil1" d="M20.3 25.12l-1.56 0c0,-1.16 0.7,-3.24 0.72,-4.31 1.44,0 4.31,-0.34 4.31,1.32 0,2.4 -1.17,3 -3.48,3zm-5.51 5.51l2.88 0 0.6 -3.36c2.02,0 3.57,0.1 5.16,-0.36 3.63,-1.04 4.78,-7.06 0.82,-8.13 -1.4,-0.38 -5.32,-0.26 -6.93,-0.26 -0.5,0 -0.46,0.74 -0.55,1.25l-1.97 10.86z"/>
   <path class="fil1" d="M26.77 27.27l2.88 0c0.08,-0.99 1.3,-5.78 1.32,-6.47 0.92,0 3.84,-0.25 3.84,0.72 0,1.42 -0.22,1.81 -0.49,3.11 -0.18,0.85 -0.39,1.8 -0.59,2.65l3 0 0.62 -2.97c0.6,-2.58 1.47,-4.93 -1.65,-5.59 -1.08,-0.23 -3.13,-0.19 -4.25,-0.19 0.2,-0.87 0.84,-3.62 0.84,-4.31 -3.93,0 -2.4,-1.11 -4.17,6.38 -0.15,0.64 -1.34,6.08 -1.34,6.69z"/>
  </g>
  <path class="fil2" d="M82.47 20.25c0,0.52 -0.09,1.03 -0.27,1.53 -0.18,0.5 -0.44,0.91 -0.78,1.25 -0.46,0.46 -0.98,0.8 -1.55,1.04 -0.57,0.23 -1.28,0.35 -2.12,0.35l-1.86 0 0 3.79 -3.01 0 0 -11.63 4.93 0c0.74,0 1.36,0.06 1.87,0.19 0.51,0.13 0.96,0.32 1.35,0.57 0.47,0.31 0.83,0.7 1.07,1.18 0.25,0.48 0.37,1.05 0.37,1.72zm-3.12 0.07c0,-0.33 -0.09,-0.61 -0.26,-0.85 -0.18,-0.23 -0.38,-0.4 -0.61,-0.49 -0.31,-0.13 -0.61,-0.19 -0.91,-0.21 -0.3,-0.01 -0.69,-0.02 -1.18,-0.02l-0.51 0 0 3.47 0.85 0c0.51,0 0.92,-0.03 1.25,-0.09 0.33,-0.06 0.6,-0.19 0.83,-0.37 0.19,-0.17 0.33,-0.37 0.41,-0.59 0.09,-0.23 0.13,-0.51 0.13,-0.85z"/>
  <polygon id="1" class="fil2" points="96.9,28.2 93.9,28.2 93.9,23.09 89.5,23.09 89.5,28.2 86.49,28.2 86.49,16.58 89.5,16.58 89.5,20.83 93.9,20.83 93.9,16.58 96.9,16.58 "/>
  <path id="2" class="fil2" d="M111.38 20.25c0,0.52 -0.09,1.03 -0.27,1.53 -0.18,0.5 -0.44,0.91 -0.78,1.25 -0.46,0.46 -0.98,0.8 -1.55,1.04 -0.57,0.23 -1.28,0.35 -2.12,0.35l-1.86 0 0 3.79 -3.01 0 0 -11.63 4.93 0c0.74,0 1.36,0.06 1.87,0.19 0.51,0.13 0.96,0.32 1.35,0.57 0.47,0.31 0.83,0.7 1.07,1.18 0.25,0.48 0.37,1.05 0.37,1.72zm-3.12 0.07c0,-0.33 -0.09,-0.61 -0.26,-0.85 -0.18,-0.23 -0.38,-0.4 -0.61,-0.49 -0.31,-0.13 -0.61,-0.19 -0.91,-0.21 -0.3,-0.01 -0.69,-0.02 -1.18,-0.02l-0.51 0 0 3.47 0.85 0c0.51,0 0.92,-0.03 1.25,-0.09 0.33,-0.06 0.6,-0.19 0.83,-0.37 0.19,-0.17 0.33,-0.37 0.41,-0.59 0.09,-0.23 0.13,-0.51 0.13,-0.85z"/>
 </g>
</svg>
