<?xml version="1.0" encoding="UTF-8"?>
<!DOCTYPE svg PUBLIC "-//W3C//DTD SVG 1.1//EN" "http://www.w3.org/Graphics/SVG/1.1/DTD/svg11.dtd">
<!-- Creator: CorelDRAW 2019 (64 Bit) -->
<svg xmlns="http://www.w3.org/2000/svg" xml:space="preserve" width="98px" height="32px" version="1.1" style="shape-rendering:geometricPrecision; text-rendering:geometricPrecision; image-rendering:optimizeQuality; fill-rule:evenodd; clip-rule:evenodd"
viewBox="0 0 4.51 1.46"
 xmlns:xlink="http://www.w3.org/1999/xlink">
 <defs>
  <style type="text/css">
   <![CDATA[
    .fil1 {fill:black}
    .fil0 {fill:#555555}
    .fil2 {fill:#61D9FB}
    .fil3 {fill:white;fill-rule:nonzero}
   ]]>
  </style>
 </defs>
 <g id="Camada_x0020_1">
  <metadata id="CorelCorpID_0Corel-Layer"/>
  <g id="_2383679506752">
   <rect class="fil0" x="0.1" width="0" height="1.34"/>
   <rect class="fil1" width="4.51" height="1.46"/>
   <g>
    <g>
     <path class="fil2" d="M1.29 0.92c0,0.01 0.01,0.02 0.01,0.03 0.01,0.05 0.01,0.11 0,0.16 -0.01,0.02 -0.02,0.04 -0.05,0.04 -0.05,0 -0.11,-0.04 -0.15,-0.07 -0.01,-0.01 -0.01,-0.01 -0.01,-0.01 -0.01,-0.01 -0.02,-0.01 -0.02,-0.02l0.03 -0.03c0.01,-0.02 0.03,-0.04 0.05,-0.06 0.01,-0.02 0,-0.01 0.03,-0.02 0.04,0 0.07,-0.01 0.11,-0.02zm-0.53 0.13c0,-0.03 0,-0.04 0,-0.08 0,-0.01 0.01,-0.04 0.01,-0.05l0.11 0.02c0.04,0.01 0.02,0 0.06,0.05l0.06 0.06c-0.01,0.01 -0.05,0.04 -0.06,0.05 -0.04,0.03 -0.13,0.08 -0.16,0.04 -0.01,-0.02 -0.02,-0.06 -0.02,-0.09zm0.21 -0.1c0.01,0 0.01,0 0.01,0 0.02,0 0.1,0 0.11,0 0,0.01 -0.05,0.06 -0.06,0.07 0,-0.01 -0.05,-0.06 -0.06,-0.07zm0.22 -0.06c0.01,0 0.01,-0.01 0.01,-0.01l0.02 -0.04c0.01,-0.01 0.01,-0.02 0.02,-0.02 0,-0.01 0.01,-0.03 0.01,-0.03 0,0.01 0.01,0.01 0.01,0.02 0.01,0.02 0.02,0.05 0.02,0.06l-0.06 0.02c-0.01,0 -0.02,0 -0.03,0zm-0.38 -0.1c0.01,0 0.02,0.03 0.02,0.04l0.04 0.06c-0.01,0 -0.03,0 -0.04,-0.01 -0.02,0 -0.03,0 -0.05,-0.01 0,0 0.01,-0.01 0.01,-0.02l0.01 -0.04c0.01,0 0.01,-0.01 0.01,-0.02zm0.03 -0.06c0,-0.01 0.05,-0.1 0.06,-0.11 0,-0.01 0.01,-0.02 0.02,-0.03 0.02,-0.03 0.01,-0.03 0.03,-0.03 0.01,0 0.01,0 0.02,0l0.1 0c0.01,0 0.01,0 0.02,0 0.01,0 0.02,0 0.02,0 0.02,0 0.02,0 0.03,0.02l0.02 0.04c0.02,0.01 0.07,0.1 0.07,0.11 0,0.01 -0.04,0.07 -0.05,0.09 -0.01,0.01 -0.02,0.02 -0.02,0.04l-0.03 0.04c-0.01,0 -0.01,0 -0.02,0 -0.03,0 -0.04,0 -0.07,0l-0.1 0c-0.01,0 0,0 -0.01,-0.01 -0.01,-0.01 -0.01,-0.01 -0.01,-0.02 -0.02,-0.03 -0.03,-0.05 -0.05,-0.08l-0.01 -0.01c0,-0.01 0,-0.01 -0.01,-0.02 0,0 -0.01,-0.03 -0.01,-0.03zm-0.1 -0.13c-0.01,0.01 0.04,0.13 0.04,0.13l-0.04 0.13c-0.01,0 -0.04,-0.01 -0.06,-0.02 -0.03,-0.01 -0.04,-0.02 -0.07,-0.03 -0.02,-0.02 -0.06,-0.05 -0.06,-0.08 0,-0.01 0.01,-0.02 0.01,-0.03 0.01,-0.02 0.04,-0.04 0.06,-0.05 0.03,-0.02 0.03,-0.02 0.06,-0.03 0.01,-0.01 0.04,-0.02 0.06,-0.02zm0.59 0c0.01,0 0.02,0.01 0.03,0.01 0.01,0 0.02,0.01 0.03,0.01 0,0 0,0 0.01,0.01 0,0 0.01,0 0.01,0l0.06 0.04c0.01,0.01 0.04,0.03 0.04,0.04 0.01,0.03 0,0.05 -0.02,0.07 -0.02,0.01 -0.04,0.02 -0.05,0.03 -0.03,0.02 -0.05,0.03 -0.08,0.04 -0.01,0 -0.02,0.01 -0.03,0.01l-0.01 -0.03c0,-0.01 -0.01,-0.01 -0.01,-0.02 0,-0.01 0,-0.01 0,-0.02l-0.03 -0.06 0.05 -0.13zm-0.14 -0.03l0.05 0.01c0,0 0.01,0 0.02,0 0,0 0.01,0.01 0.02,0.01 0,0 -0.01,0.03 -0.01,0.04l-0.02 0.04c0,0 -0.01,-0.02 -0.01,-0.03l-0.04 -0.06c0,0 0,-0.01 0,-0.01 -0.01,0 -0.01,0 -0.01,0zm-0.38 0.1l0 0c0,0 0,0 0,0 0,-0.01 0,-0.01 0,-0.01 -0.01,-0.02 -0.02,-0.06 -0.03,-0.07 0.01,0 0.07,-0.02 0.09,-0.02 -0.01,0.01 -0.05,0.09 -0.06,0.1zm0.16 -0.16c0.01,-0.01 0.03,-0.03 0.04,-0.04 0,-0.01 0,-0.01 0.01,-0.01 0,-0.01 0.01,-0.01 0.01,-0.02 0.01,0.01 0.05,0.06 0.06,0.07l-0.08 0c-0.01,0 -0.02,0 -0.04,0zm0.1 -0.1c0.01,-0.01 0.06,-0.06 0.07,-0.06 0.01,-0.01 0.02,-0.01 0.03,-0.02 0.03,-0.02 0.1,-0.05 0.12,0.01 0.02,0.04 0.02,0.06 0.02,0.1 0,0.02 -0.01,0.09 -0.02,0.1 -0.02,-0.01 -0.04,-0.01 -0.06,-0.02 -0.02,0 -0.06,0 -0.07,0 -0.01,-0.01 -0.02,-0.03 -0.02,-0.03 -0.01,-0.01 -0.01,-0.01 -0.02,-0.02 0,-0.01 -0.02,-0.02 -0.03,-0.04l-0.02 -0.02zm-0.16 0.11c-0.02,0 -0.06,0 -0.07,0l-0.05 0.01c-0.01,0.01 -0.01,0.01 -0.02,0.01 0,-0.01 -0.01,-0.06 -0.01,-0.12 0,-0.04 0,-0.09 0.03,-0.11 0.03,-0.02 0.1,0.02 0.13,0.03 0.03,0.02 0.03,0.03 0.06,0.05 0,0 0.02,0.02 0.02,0.02l-0.06 0.06c0,0.01 -0.01,0.01 -0.01,0.02 -0.01,0 -0.02,0.02 -0.02,0.03zm0.12 -0.15c0,0 -0.01,-0.01 -0.01,-0.01 0,0 0,0 0,0l-0.01 -0.01c0,0 0,0 -0.01,0 -0.01,-0.02 -0.03,-0.03 -0.05,-0.04l-0.04 -0.02c-0.04,-0.03 -0.1,-0.05 -0.15,-0.02 -0.06,0.04 -0.06,0.16 -0.05,0.23l0.01 0.05 -0.03 0.01c-0.02,0.01 -0.03,0.01 -0.04,0.02 -0.03,0.01 -0.08,0.04 -0.11,0.07 -0.01,0.01 -0.02,0.02 -0.03,0.04 -0.01,0.03 -0.01,0.05 0,0.08 0,0.01 0.01,0.01 0.01,0.02 0.03,0.04 0.08,0.07 0.13,0.09 0.01,0.01 0.06,0.03 0.07,0.03 0,0 0,0.01 0,0.02 -0.01,0.02 -0.01,0.04 -0.01,0.07 0,0.03 0,0.06 0,0.09 0.03,0.16 0.16,0.12 0.25,0.05l0.04 -0.02c0,-0.01 0.01,-0.01 0.01,-0.01l0.02 -0.02 0.03 0.02c0,0 0,0 0.01,0 0.04,0.04 0.11,0.09 0.17,0.09 0.03,0 0.04,0 0.07,-0.02 0.06,-0.04 0.05,-0.17 0.04,-0.24 0,-0.01 -0.01,-0.03 -0.01,-0.03 0.01,0 0.01,-0.01 0.02,-0.01 0.07,-0.02 0.11,-0.04 0.16,-0.08 0,-0.01 0.01,-0.01 0.01,-0.02 0.02,-0.02 0.03,-0.04 0.03,-0.07 0,-0.06 -0.07,-0.11 -0.11,-0.13 -0.02,-0.02 -0.09,-0.05 -0.11,-0.05l0.01 -0.06c0.01,-0.06 0.01,-0.18 -0.05,-0.22 -0.03,-0.02 -0.06,-0.02 -0.09,-0.01 -0.06,0.02 -0.11,0.05 -0.15,0.09 0,0 0,0 -0.01,0 0,0.01 -0.01,0.02 -0.02,0.02z"/>
     <path class="fil2" d="M0.93 0.73c0,0.09 0.12,0.14 0.18,0.06 0.01,-0.01 0.01,-0.01 0.01,-0.02 0,0 0.01,-0.01 0.01,-0.02 0.01,-0.03 0,-0.07 -0.03,-0.09 -0.07,-0.07 -0.17,-0.01 -0.17,0.07z"/>
    </g>
    <path class="fil3" d="M2.31 0.66c0,-0.01 0,-0.01 0,-0.02 -0.01,-0.01 -0.01,-0.01 -0.02,-0.01 -0.01,-0.01 -0.01,-0.01 -0.02,-0.01 -0.01,0 -0.02,0 -0.03,0l-0.03 0 0 0.09 0.03 0c0.01,0 0.02,0 0.03,0 0.01,0 0.02,0 0.02,-0.01 0.01,0 0.02,-0.01 0.02,-0.01 0,-0.01 0,-0.02 0,-0.03zm0.14 0.24l-0.11 0 -0.09 -0.12 -0.04 0 0 0.12 -0.09 0 0 -0.34 0.15 0c0.02,0 0.04,0 0.05,0 0.02,0 0.03,0.01 0.04,0.01 0.02,0.01 0.03,0.02 0.03,0.03 0.01,0.02 0.02,0.03 0.02,0.05 0,0.03 -0.01,0.05 -0.02,0.06 -0.01,0.02 -0.03,0.03 -0.05,0.04l0.11 0.15z"/>
    <polygon id="1" class="fil3" points="2.79,0.9 2.54,0.9 2.54,0.56 2.79,0.56 2.79,0.62 2.63,0.62 2.63,0.68 2.78,0.68 2.78,0.75 2.63,0.75 2.63,0.84 2.79,0.84 "/>
    <path id="2" class="fil3" d="M3.24 0.9l-0.09 0 -0.03 -0.07 -0.13 0 -0.02 0.07 -0.09 0 0.13 -0.34 0.1 0 0.13 0.34zm-0.14 -0.13l-0.04 -0.12 -0.04 0.12 0.08 0z"/>
    <path id="3" class="fil3" d="M3.5 0.91c-0.03,0 -0.05,0 -0.07,-0.01 -0.03,-0.01 -0.05,-0.02 -0.06,-0.04 -0.02,-0.01 -0.03,-0.03 -0.04,-0.05 -0.01,-0.02 -0.01,-0.05 -0.01,-0.08 0,-0.03 0,-0.05 0.01,-0.08 0.01,-0.02 0.02,-0.04 0.04,-0.05 0.01,-0.02 0.03,-0.03 0.05,-0.04 0.03,-0.01 0.05,-0.01 0.08,-0.01 0.01,0 0.02,0 0.04,0 0.01,0 0.02,0 0.03,0.01 0.01,0 0.02,0 0.03,0.01 0.01,0 0.01,0 0.02,0.01l0 0.08 -0.01 0c-0.01,0 -0.01,-0.01 -0.02,-0.01 0,-0.01 -0.01,-0.01 -0.02,-0.02 -0.01,0 -0.02,-0.01 -0.03,-0.01 -0.01,0 -0.02,0 -0.03,0 -0.01,0 -0.02,0 -0.04,0 -0.01,0.01 -0.02,0.01 -0.03,0.02 -0.01,0.01 -0.01,0.02 -0.02,0.04 0,0.01 -0.01,0.03 -0.01,0.05 0,0.02 0.01,0.04 0.01,0.05 0.01,0.02 0.02,0.03 0.02,0.04 0.01,0.01 0.02,0.01 0.04,0.02 0.01,0 0.02,0 0.03,0 0.01,0 0.02,0 0.03,0 0.01,-0.01 0.02,-0.01 0.03,-0.02 0.01,0 0.02,0 0.02,-0.01 0.01,0 0.02,-0.01 0.02,-0.01l0.01 0 0 0.08c-0.01,0 -0.02,0.01 -0.03,0.01 0,0 -0.01,0.01 -0.02,0.01 -0.01,0 -0.02,0.01 -0.03,0.01 -0.01,0 -0.03,0 -0.04,0z"/>
    <polygon id="4" class="fil3" points="4.01,0.62 3.9,0.62 3.9,0.9 3.81,0.9 3.81,0.62 3.7,0.62 3.7,0.56 4.01,0.56 "/>
   </g>
  </g>
 </g>
</svg>
