<?xml version="1.0" encoding="UTF-8"?>
<!DOCTYPE svg PUBLIC "-//W3C//DTD SVG 1.1//EN" "http://www.w3.org/Graphics/SVG/1.1/DTD/svg11.dtd">
<!-- Creator: CorelDRAW 2019 (64 Bit) -->
<svg xmlns="http://www.w3.org/2000/svg" xml:space="preserve" width="295px" height="95px" version="1.1" style="shape-rendering:geometricPrecision; text-rendering:geometricPrecision; image-rendering:optimizeQuality; fill-rule:evenodd; clip-rule:evenodd"
viewBox="0 0 35.83 11.6"
 xmlns:xlink="http://www.w3.org/1999/xlink">
 <defs>
  <style type="text/css">
   <![CDATA[
    .fil1 {fill:black}
    .fil0 {fill:#555555}
    .fil2 {fill:#61D9FB}
    .fil3 {fill:white;fill-rule:nonzero}
   ]]>
  </style>
 </defs>
 <g id="Camada_x0020_1">
  <metadata id="CorelCorpID_0Corel-Layer"/>
  <g id="_2383497024544">
   <rect class="fil0" x="0.83" width="0" height="10.63"/>
   <rect class="fil1" width="35.83" height="11.6"/>
   <g>
    <g>
     <path class="fil2" d="M10.28 7.32c0,0.06 0.03,0.14 0.04,0.21 0.07,0.41 0.13,0.92 -0.01,1.32 -0.06,0.16 -0.16,0.31 -0.38,0.31 -0.4,0 -0.91,-0.34 -1.21,-0.6 -0.03,-0.02 -0.05,-0.04 -0.08,-0.06 -0.06,-0.05 -0.1,-0.09 -0.16,-0.13l0.25 -0.28c0.13,-0.17 0.25,-0.3 0.4,-0.5 0.08,-0.11 0.03,-0.08 0.25,-0.1 0.34,-0.04 0.58,-0.1 0.9,-0.17zm-4.26 1.03c0,-0.28 0,-0.34 0.04,-0.62 0,-0.07 0.05,-0.36 0.07,-0.4l0.9 0.16c0.25,0.03 0.14,-0.03 0.44,0.35l0.46 0.53c-0.03,0.02 -0.36,0.3 -0.49,0.39 -0.25,0.18 -0.97,0.62 -1.23,0.29 -0.12,-0.16 -0.19,-0.43 -0.19,-0.7zm1.72 -0.81c0.03,0.01 0.04,0.01 0.08,0.01 0.16,0 0.73,0.02 0.84,-0.01 -0.01,0.07 -0.41,0.51 -0.46,0.55 -0.02,-0.03 -0.4,-0.43 -0.46,-0.55zm1.75 -0.46c0.01,-0.04 0.03,-0.07 0.06,-0.1l0.17 -0.3c0.04,-0.07 0.08,-0.13 0.12,-0.2 0.02,-0.04 0.09,-0.18 0.11,-0.2 0.02,0.06 0.04,0.1 0.06,0.15 0.05,0.14 0.14,0.38 0.17,0.51l-0.51 0.11c-0.04,0.01 -0.15,0.01 -0.18,0.03zm-3.04 -0.8c0.03,0.02 0.13,0.23 0.17,0.3l0.3 0.5c-0.11,-0.03 -0.23,-0.04 -0.34,-0.06 -0.12,-0.03 -0.23,-0.05 -0.35,-0.08 0.01,-0.04 0.04,-0.13 0.05,-0.17l0.11 -0.32c0.02,-0.05 0.06,-0.13 0.06,-0.17zm0.21 -0.48c0,-0.06 0.4,-0.75 0.48,-0.9 0.05,-0.07 0.09,-0.14 0.13,-0.2 0.16,-0.24 0.12,-0.24 0.29,-0.24 0.06,0 0.08,-0.01 0.15,-0.01l0.82 -0.01c0.06,0 0.08,0.01 0.16,0.01 0.07,0 0.1,0.01 0.15,0.01 0.16,0.01 0.11,-0.03 0.22,0.13l0.2 0.31c0.09,0.14 0.48,0.83 0.48,0.89 0,0.07 -0.3,0.6 -0.36,0.7 -0.06,0.11 -0.12,0.21 -0.19,0.32l-0.21 0.33c-0.06,0 -0.1,0.01 -0.17,0.01 -0.19,0 -0.3,0.02 -0.54,0.02l-0.81 -0.03c-0.05,-0.01 -0.03,0.01 -0.08,-0.08 -0.03,-0.04 -0.05,-0.07 -0.08,-0.11 -0.19,-0.29 -0.24,-0.4 -0.4,-0.67l-0.06 -0.11c-0.02,-0.05 -0.04,-0.08 -0.06,-0.12 -0.02,-0.04 -0.12,-0.22 -0.12,-0.25zm-0.8 -1.04c-0.03,0.1 0.36,1.01 0.36,1.04l-0.37 1.04c-0.05,-0.02 -0.32,-0.11 -0.46,-0.16 -0.21,-0.1 -0.33,-0.16 -0.52,-0.27 -0.19,-0.12 -0.5,-0.38 -0.5,-0.61 0,-0.08 0.04,-0.16 0.08,-0.22 0.1,-0.16 0.35,-0.35 0.51,-0.44 0.18,-0.1 0.23,-0.13 0.42,-0.21 0.11,-0.04 0.38,-0.15 0.48,-0.17zm4.69 0c0.07,0.01 0.17,0.06 0.23,0.08 0.09,0.03 0.15,0.05 0.23,0.09 0.04,0.01 0.07,0.02 0.11,0.04 0.04,0.03 0.07,0.04 0.11,0.05l0.48 0.3c0.09,0.07 0.25,0.24 0.29,0.35 0.08,0.22 -0.03,0.36 -0.2,0.53 -0.09,0.09 -0.25,0.19 -0.36,0.26 -0.21,0.13 -0.43,0.22 -0.65,0.3 -0.08,0.03 -0.17,0.05 -0.24,0.08l-0.08 -0.27c-0.01,-0.05 -0.03,-0.08 -0.04,-0.13 -0.02,-0.05 -0.03,-0.09 -0.05,-0.14l-0.21 -0.5 0.38 -1.04zm-1.06 -0.23l0.34 0.05c0.06,0.01 0.11,0.02 0.17,0.04 0.04,0.01 0.12,0.03 0.17,0.03 0,0.07 -0.08,0.27 -0.1,0.34l-0.12 0.33c-0.02,-0.02 -0.09,-0.16 -0.11,-0.2l-0.32 -0.54c-0.01,0 -0.02,-0.02 -0.02,-0.02 -0.01,-0.02 -0.01,-0.03 -0.01,-0.03zm-3.03 0.8l-0.01 -0.02c0,0 -0.01,-0.02 -0.01,-0.02 -0.01,-0.02 -0.01,-0.02 -0.02,-0.04 -0.05,-0.14 -0.17,-0.48 -0.2,-0.6 0.08,0 0.52,-0.12 0.7,-0.12 -0.08,0.1 -0.44,0.71 -0.46,0.8zm1.28 -1.28c0.07,-0.11 0.18,-0.24 0.28,-0.34 0.02,-0.03 0.03,-0.04 0.05,-0.07 0.06,-0.05 0.08,-0.07 0.12,-0.13 0.06,0.04 0.42,0.47 0.47,0.54l-0.59 -0.01c-0.13,0 -0.21,0.01 -0.33,0.01zm0.74 -0.81c0.06,-0.09 0.5,-0.43 0.61,-0.49 0.06,-0.04 0.11,-0.07 0.17,-0.1 0.31,-0.16 0.83,-0.42 1.02,0.05 0.11,0.28 0.1,0.49 0.1,0.79 0,0.16 -0.07,0.69 -0.11,0.79 -0.17,-0.04 -0.35,-0.08 -0.52,-0.11 -0.14,-0.03 -0.44,-0.07 -0.57,-0.07 -0.01,-0.04 -0.12,-0.18 -0.16,-0.23 -0.03,-0.04 -0.05,-0.06 -0.08,-0.1 -0.08,-0.11 -0.2,-0.23 -0.27,-0.32l-0.19 -0.21zm-1.26 0.86c-0.13,0 -0.43,0.04 -0.56,0.07l-0.4 0.08c-0.04,0.01 -0.1,0.02 -0.14,0.03 0,-0.1 -0.11,-0.48 -0.11,-0.93 0,-0.3 0.05,-0.72 0.27,-0.86 0.25,-0.16 0.77,0.1 1,0.25 0.25,0.16 0.28,0.2 0.52,0.38 0.01,0.02 0.11,0.11 0.12,0.12l-0.45 0.52c-0.03,0.03 -0.06,0.07 -0.09,0.11 -0.03,0.04 -0.15,0.19 -0.16,0.23zm0.97 -1.14c-0.04,-0.03 -0.06,-0.06 -0.11,-0.1 0,0 0,0 0,-0.01l-0.06 -0.04c-0.02,-0.02 -0.02,-0.02 -0.04,-0.04 -0.14,-0.12 -0.25,-0.21 -0.41,-0.31l-0.31 -0.18c-0.34,-0.18 -0.82,-0.35 -1.19,-0.12 -0.52,0.33 -0.48,1.25 -0.4,1.79l0.08 0.44 -0.3 0.1c-0.1,0.04 -0.18,0.07 -0.28,0.11 -0.26,0.11 -0.65,0.33 -0.85,0.53 -0.1,0.11 -0.19,0.21 -0.26,0.34 -0.1,0.22 -0.1,0.44 0,0.65 0.03,0.04 0.05,0.09 0.07,0.12 0.26,0.36 0.64,0.58 1.04,0.76 0.1,0.05 0.5,0.21 0.59,0.22 -0.01,0.02 -0.03,0.12 -0.04,0.16 -0.04,0.2 -0.05,0.34 -0.08,0.55 -0.02,0.25 -0.02,0.52 0.02,0.76 0.21,1.24 1.27,0.94 2.01,0.39l0.27 -0.21c0.04,-0.03 0.06,-0.05 0.09,-0.08l0.18 -0.15 0.21 0.18c0.02,0.02 0.02,0.02 0.05,0.04 0.34,0.27 0.92,0.68 1.38,0.68 0.22,0 0.34,0.01 0.53,-0.13 0.5,-0.38 0.44,-1.38 0.33,-1.95 -0.01,-0.06 -0.04,-0.2 -0.06,-0.24 0.05,-0.02 0.1,-0.03 0.15,-0.05 0.53,-0.18 0.85,-0.34 1.27,-0.69 0.05,-0.04 0.06,-0.07 0.1,-0.11 0.13,-0.14 0.25,-0.34 0.25,-0.58 0,-0.49 -0.55,-0.87 -0.92,-1.06 -0.17,-0.09 -0.68,-0.33 -0.85,-0.34l0.09 -0.5c0.07,-0.49 0.08,-1.42 -0.41,-1.73 -0.22,-0.14 -0.47,-0.15 -0.72,-0.08 -0.45,0.13 -0.84,0.39 -1.19,0.69 -0.02,0.01 -0.03,0.02 -0.05,0.04 -0.04,0.03 -0.14,0.13 -0.18,0.15z"/>
     <path class="fil2" d="M7.41 5.79c0,0.74 0.94,1.11 1.43,0.47 0.03,-0.05 0.05,-0.08 0.07,-0.13 0.03,-0.05 0.05,-0.09 0.06,-0.15 0.06,-0.28 -0.01,-0.54 -0.21,-0.73 -0.54,-0.53 -1.35,-0.1 -1.35,0.54z"/>
    </g>
    <path class="fil3" d="M18.37 5.26c0,-0.07 -0.01,-0.13 -0.04,-0.18 -0.03,-0.04 -0.07,-0.08 -0.14,-0.11 -0.05,-0.02 -0.1,-0.03 -0.17,-0.04 -0.06,0 -0.13,0 -0.22,0l-0.25 0 0 0.73 0.21 0c0.12,0 0.21,0 0.28,-0.01 0.08,-0.01 0.14,-0.04 0.19,-0.08 0.05,-0.04 0.09,-0.08 0.11,-0.12 0.02,-0.05 0.03,-0.11 0.03,-0.19zm1.12 1.92l-0.87 0 -0.75 -1.02 -0.32 0 0 1.02 -0.72 0 0 -2.76 1.2 0c0.16,0 0.3,0.01 0.42,0.03 0.11,0.01 0.22,0.05 0.33,0.12 0.1,0.06 0.18,0.14 0.24,0.24 0.06,0.09 0.09,0.22 0.09,0.37 0,0.2 -0.04,0.36 -0.14,0.49 -0.09,0.13 -0.23,0.24 -0.4,0.32l0.92 1.19z"/>
    <polygon id="1" class="fil3" points="22.2,7.18 20.2,7.18 20.2,4.42 22.2,4.42 22.2,4.95 20.92,4.95 20.92,5.43 22.11,5.43 22.11,5.96 20.92,5.96 20.92,6.64 22.2,6.64 "/>
    <path id="2" class="fil3" d="M25.74 7.18l-0.73 0 -0.2 -0.56 -1.01 0 -0.19 0.56 -0.72 0 1.02 -2.76 0.81 0 1.02 2.76zm-1.1 -1.07l-0.33 -0.98 -0.34 0.98 0.67 0z"/>
    <path id="3" class="fil3" d="M27.79 7.23c-0.21,0 -0.4,-0.03 -0.57,-0.09 -0.17,-0.06 -0.32,-0.15 -0.45,-0.27 -0.12,-0.12 -0.22,-0.27 -0.29,-0.45 -0.07,-0.18 -0.1,-0.38 -0.1,-0.62 0,-0.22 0.03,-0.42 0.1,-0.6 0.06,-0.17 0.16,-0.33 0.28,-0.45 0.12,-0.13 0.27,-0.22 0.45,-0.29 0.18,-0.07 0.37,-0.1 0.58,-0.1 0.12,0 0.22,0.01 0.32,0.02 0.09,0.01 0.18,0.03 0.25,0.05 0.09,0.03 0.16,0.05 0.23,0.08 0.07,0.03 0.13,0.06 0.18,0.08l0 0.67 -0.08 0c-0.04,-0.03 -0.08,-0.06 -0.14,-0.1 -0.05,-0.05 -0.11,-0.08 -0.17,-0.12 -0.07,-0.04 -0.15,-0.08 -0.23,-0.1 -0.07,-0.03 -0.16,-0.04 -0.25,-0.04 -0.1,0 -0.19,0.01 -0.29,0.04 -0.09,0.03 -0.17,0.09 -0.25,0.16 -0.07,0.07 -0.13,0.16 -0.17,0.28 -0.05,0.12 -0.07,0.26 -0.07,0.42 0,0.18 0.02,0.32 0.07,0.44 0.05,0.11 0.11,0.2 0.19,0.27 0.07,0.07 0.16,0.12 0.25,0.15 0.09,0.02 0.18,0.04 0.27,0.04 0.09,0 0.18,-0.01 0.26,-0.04 0.09,-0.02 0.16,-0.06 0.24,-0.1 0.06,-0.04 0.11,-0.08 0.16,-0.12 0.06,-0.04 0.1,-0.07 0.13,-0.1l0.08 0 0 0.66c-0.07,0.03 -0.14,0.06 -0.2,0.08 -0.06,0.03 -0.13,0.05 -0.2,0.07 -0.09,0.03 -0.18,0.05 -0.25,0.06 -0.08,0.02 -0.19,0.02 -0.33,0.02z"/>
    <polygon id="4" class="fil3" points="31.85,4.95 30.99,4.95 30.99,7.18 30.27,7.18 30.27,4.95 29.41,4.95 29.41,4.42 31.85,4.42 "/>
   </g>
  </g>
 </g>
</svg>
