<?xml version="1.0" encoding="UTF-8"?>
<!DOCTYPE svg PUBLIC "-//W3C//DTD SVG 1.1//EN" "http://www.w3.org/Graphics/SVG/1.1/DTD/svg11.dtd">
<!-- Creator: CorelDRAW 2019 (64 Bit) -->
<svg xmlns="http://www.w3.org/2000/svg" xml:space="preserve" width="367px" height="95px" version="1.1" style="shape-rendering:geometricPrecision; text-rendering:geometricPrecision; image-rendering:optimizeQuality; fill-rule:evenodd; clip-rule:evenodd"
viewBox="0 0 57.93 15.07"
 xmlns:xlink="http://www.w3.org/1999/xlink">
 <defs>
  <style type="text/css">
   <![CDATA[
    .fil1 {fill:#007ACC}
    .fil0 {fill:#555555}
    .fil3 {fill:white}
    .fil2 {fill:white;fill-rule:nonzero}
   ]]>
  </style>
 </defs>
 <g id="Camada_x0020_1">
  <metadata id="CorelCorpID_0Corel-Layer"/>
  <g id="_2383497033632">
   <rect class="fil0" x="1.07" width="0" height="13.82"/>
   <rect class="fil1" width="57.93" height="15.07"/>
   <g>
    <g text-anchor="middle">
     <polygon class="fil2" points="19.01,6.44 17.89,6.44 17.89,9.33 16.96,9.33 16.96,6.44 15.84,6.44 15.84,5.74 19.01,5.74 "/>
     <polygon id="1" class="fil2" points="23.24,5.74 21.92,7.94 21.92,9.33 20.99,9.33 20.99,7.99 19.65,5.74 20.7,5.74 21.48,7.13 22.22,5.74 "/>
     <path id="2" class="fil2" d="M27.2 6.87c0,0.16 -0.03,0.32 -0.08,0.48 -0.06,0.15 -0.14,0.28 -0.24,0.38 -0.15,0.14 -0.31,0.25 -0.48,0.32 -0.18,0.07 -0.4,0.11 -0.66,0.11l-0.57 0 0 1.17 -0.93 0 0 -3.59 1.52 0c0.23,0 0.42,0.02 0.58,0.06 0.16,0.04 0.3,0.1 0.42,0.18 0.14,0.09 0.25,0.22 0.33,0.36 0.07,0.15 0.11,0.33 0.11,0.53zm-0.96 0.03c0,-0.1 -0.03,-0.19 -0.08,-0.26 -0.06,-0.08 -0.12,-0.13 -0.19,-0.16 -0.1,-0.03 -0.19,-0.06 -0.28,-0.06 -0.09,0 -0.21,-0.01 -0.36,-0.01l-0.16 0 0 1.07 0.26 0c0.16,0 0.29,-0.01 0.39,-0.02 0.1,-0.02 0.18,-0.06 0.25,-0.12 0.06,-0.05 0.1,-0.11 0.13,-0.18 0.03,-0.07 0.04,-0.16 0.04,-0.26z"/>
     <polygon id="3" class="fil2" points="30.97,9.33 28.38,9.33 28.38,5.74 30.97,5.74 30.97,6.44 29.3,6.44 29.3,7.06 30.85,7.06 30.85,7.75 29.3,7.75 29.3,8.63 30.97,8.63 "/>
     <path id="4" class="fil2" d="M35.13 8.2c0,0.36 -0.15,0.64 -0.45,0.86 -0.29,0.22 -0.7,0.33 -1.21,0.33 -0.3,0 -0.56,-0.02 -0.78,-0.07 -0.22,-0.06 -0.43,-0.12 -0.62,-0.2l0 -0.86 0.1 0c0.19,0.15 0.41,0.27 0.64,0.35 0.24,0.08 0.47,0.12 0.68,0.12 0.06,0 0.13,0 0.23,-0.01 0.09,-0.01 0.16,-0.03 0.22,-0.05 0.07,-0.03 0.13,-0.07 0.17,-0.11 0.05,-0.04 0.07,-0.11 0.07,-0.19 0,-0.08 -0.03,-0.15 -0.1,-0.21 -0.06,-0.05 -0.16,-0.1 -0.29,-0.13 -0.14,-0.03 -0.28,-0.06 -0.43,-0.09 -0.15,-0.02 -0.29,-0.06 -0.42,-0.1 -0.3,-0.1 -0.52,-0.23 -0.65,-0.4 -0.13,-0.17 -0.2,-0.38 -0.2,-0.63 0,-0.33 0.15,-0.6 0.45,-0.81 0.3,-0.22 0.68,-0.32 1.15,-0.32 0.24,0 0.47,0.02 0.7,0.07 0.23,0.04 0.43,0.1 0.6,0.17l0 0.82 -0.1 0c-0.14,-0.11 -0.32,-0.21 -0.53,-0.28 -0.21,-0.08 -0.42,-0.12 -0.64,-0.12 -0.08,0 -0.15,0 -0.23,0.02 -0.08,0.01 -0.15,0.03 -0.22,0.05 -0.06,0.03 -0.12,0.06 -0.16,0.11 -0.05,0.05 -0.07,0.11 -0.07,0.17 0,0.09 0.04,0.17 0.11,0.22 0.07,0.05 0.21,0.09 0.41,0.14 0.13,0.02 0.26,0.05 0.38,0.08 0.12,0.02 0.25,0.06 0.39,0.1 0.27,0.09 0.48,0.21 0.61,0.37 0.13,0.15 0.19,0.35 0.19,0.6z"/>
     <path id="5" class="fil2" d="M37.91 9.4c-0.26,0 -0.51,-0.04 -0.74,-0.11 -0.22,-0.08 -0.42,-0.2 -0.58,-0.36 -0.16,-0.15 -0.29,-0.35 -0.38,-0.58 -0.08,-0.23 -0.13,-0.5 -0.13,-0.81 0,-0.28 0.04,-0.54 0.13,-0.77 0.08,-0.24 0.21,-0.44 0.37,-0.6 0.16,-0.16 0.35,-0.28 0.58,-0.37 0.23,-0.09 0.48,-0.13 0.76,-0.13 0.15,0 0.28,0.01 0.4,0.02 0.13,0.02 0.24,0.04 0.34,0.07 0.11,0.03 0.21,0.07 0.29,0.1 0.09,0.04 0.17,0.08 0.23,0.11l0 0.87 -0.1 0c-0.05,-0.04 -0.1,-0.09 -0.17,-0.14 -0.07,-0.05 -0.15,-0.1 -0.23,-0.15 -0.09,-0.05 -0.19,-0.1 -0.29,-0.13 -0.1,-0.04 -0.21,-0.06 -0.33,-0.06 -0.13,0 -0.26,0.03 -0.37,0.07 -0.12,0.04 -0.23,0.1 -0.33,0.2 -0.09,0.09 -0.17,0.21 -0.23,0.36 -0.06,0.15 -0.09,0.34 -0.09,0.55 0,0.23 0.03,0.41 0.1,0.57 0.06,0.15 0.14,0.27 0.24,0.35 0.1,0.09 0.21,0.15 0.33,0.19 0.12,0.04 0.24,0.06 0.35,0.06 0.12,0 0.23,-0.02 0.34,-0.05 0.11,-0.03 0.21,-0.08 0.3,-0.14 0.08,-0.04 0.15,-0.09 0.22,-0.15 0.07,-0.05 0.12,-0.09 0.17,-0.13l0.09 0 0 0.86c-0.09,0.04 -0.17,0.07 -0.25,0.11 -0.09,0.03 -0.17,0.06 -0.26,0.09 -0.12,0.03 -0.23,0.06 -0.33,0.08 -0.1,0.01 -0.25,0.02 -0.43,0.02z"/>
     <path id="6" class="fil2" d="M42.39 6.84c0,-0.09 -0.02,-0.17 -0.06,-0.23 -0.03,-0.06 -0.1,-0.11 -0.19,-0.15 -0.06,-0.03 -0.13,-0.04 -0.21,-0.05 -0.08,0 -0.18,-0.01 -0.29,-0.01l-0.33 0 0 0.96 0.28 0c0.15,0 0.27,-0.01 0.37,-0.02 0.1,-0.01 0.18,-0.05 0.24,-0.1 0.07,-0.05 0.11,-0.1 0.14,-0.16 0.03,-0.06 0.05,-0.14 0.05,-0.24zm1.45 2.49l-1.13 0 -0.98 -1.32 -0.42 0 0 1.32 -0.93 0 0 -3.59 1.55 0c0.22,0 0.4,0.02 0.55,0.04 0.15,0.02 0.29,0.08 0.43,0.16 0.13,0.08 0.24,0.18 0.32,0.31 0.08,0.12 0.12,0.28 0.12,0.48 0,0.26 -0.06,0.48 -0.18,0.64 -0.13,0.17 -0.3,0.31 -0.53,0.42l1.2 1.54z"/>
     <polygon id="7" class="fil2" points="46.7,9.33 44.6,9.33 44.6,8.69 45.19,8.69 45.19,6.38 44.6,6.38 44.6,5.74 46.7,5.74 46.7,6.38 46.11,6.38 46.11,8.69 46.7,8.69 "/>
     <path id="8" class="fil2" d="M50.94 6.87c0,0.16 -0.03,0.32 -0.09,0.48 -0.05,0.15 -0.13,0.28 -0.24,0.38 -0.14,0.14 -0.3,0.25 -0.48,0.32 -0.17,0.07 -0.39,0.11 -0.65,0.11l-0.58 0 0 1.17 -0.92 0 0 -3.59 1.52 0c0.23,0 0.42,0.02 0.58,0.06 0.15,0.04 0.29,0.1 0.41,0.18 0.15,0.09 0.26,0.22 0.33,0.36 0.08,0.15 0.12,0.33 0.12,0.53zm-0.97 0.03c0,-0.1 -0.02,-0.19 -0.08,-0.26 -0.05,-0.08 -0.11,-0.13 -0.19,-0.16 -0.09,-0.03 -0.18,-0.06 -0.28,-0.06 -0.09,0 -0.21,-0.01 -0.36,-0.01l-0.16 0 0 1.07 0.27 0c0.15,0 0.28,-0.01 0.38,-0.02 0.1,-0.02 0.19,-0.06 0.26,-0.12 0.06,-0.05 0.1,-0.11 0.12,-0.18 0.03,-0.07 0.04,-0.16 0.04,-0.26z"/>
     <polygon id="9" class="fil2" points="54.92,6.44 53.8,6.44 53.8,9.33 52.87,9.33 52.87,6.44 51.75,6.44 51.75,5.74 54.92,5.74 "/>
    </g>
    <path class="fil3" d="M3.01 4.96l0 0.57 1.81 0 0 5.16 1.28 0 0 -5.16 1.82 0 0 -0.56c0,-0.31 0,-0.56 -0.02,-0.57 0,-0.01 -1.1,-0.02 -2.44,-0.02l-2.44 0.01 0 0.58 -0.01 -0.01 0 0zm8.14 -0.58c0.36,0.08 0.63,0.24 0.87,0.5 0.13,0.14 0.32,0.38 0.34,0.45 0,0.02 -0.61,0.42 -0.97,0.65 -0.02,0.01 -0.07,-0.05 -0.13,-0.14 -0.18,-0.26 -0.36,-0.37 -0.65,-0.39 -0.42,-0.03 -0.7,0.19 -0.7,0.56 0,0.11 0.02,0.17 0.06,0.26 0.1,0.19 0.27,0.31 0.81,0.55 1,0.43 1.43,0.71 1.69,1.11 0.3,0.45 0.36,1.17 0.16,1.7 -0.22,0.58 -0.76,0.97 -1.54,1.1 -0.24,0.04 -0.8,0.04 -1.06,-0.01 -0.56,-0.1 -1.09,-0.38 -1.42,-0.74 -0.13,-0.14 -0.38,-0.51 -0.36,-0.54l0.13 -0.08 0.52 -0.3 0.4 -0.23 0.09 0.12c0.11,0.18 0.37,0.42 0.52,0.51 0.45,0.23 1.06,0.2 1.36,-0.07 0.13,-0.12 0.18,-0.25 0.18,-0.42 0,-0.16 -0.02,-0.23 -0.1,-0.36 -0.11,-0.15 -0.34,-0.27 -0.96,-0.55 -0.72,-0.31 -1.03,-0.5 -1.32,-0.8 -0.16,-0.19 -0.31,-0.47 -0.38,-0.7 -0.05,-0.2 -0.07,-0.7 -0.02,-0.9 0.15,-0.69 0.68,-1.18 1.43,-1.32 0.24,-0.05 0.82,-0.03 1.06,0.03l-0.01 0.01 0 0z"/>
   </g>
  </g>
 </g>
</svg>
