<?xml version="1.0" encoding="UTF-8"?>
<!DOCTYPE svg PUBLIC "-//W3C//DTD SVG 1.1//EN" "http://www.w3.org/Graphics/SVG/1.1/DTD/svg11.dtd">
<!-- Creator: CorelDRAW 2019 (64 Bit) -->
<svg xmlns="http://www.w3.org/2000/svg" xml:space="preserve" width="2480px" height="3508px" version="1.1" style="shape-rendering:geometricPrecision; text-rendering:geometricPrecision; image-rendering:optimizeQuality; fill-rule:evenodd; clip-rule:evenodd"
viewBox="0 0 2480 3507.43"
 xmlns:xlink="http://www.w3.org/1999/xlink"
 role="img"
 aria-label="VERCEL">
 <defs>
  <style type="text/css">
   <![CDATA[
    .fil2 {fill:black}
    .fil3 {fill:#007ACC}
    .fil1 {fill:#555555}
    .fil4 {fill:white}
    .fil0 {fill:white;fill-rule:nonzero}
   ]]>
  </style>
 </defs>
 <g id="Camada_x0020_1">
  <metadata id="CorelCorpID_0Corel-Layer"/>
  <g id="_2383329449744" text-anchor="middle">
   <path class="fil0" d="M543.92 2007.89c-1.01,0.39 -2.36,0.79 -4.04,1.18 -1.68,0.39 -3.36,0.59 -5.02,0.59 -3.87,0 -6.9,-1.05 -9.09,-3.15 -2.19,-2.11 -3.28,-5.01 -3.28,-8.71 0,-3.54 1.1,-6.38 3.31,-8.55 2.21,-2.16 5.29,-3.24 9.24,-3.24 1.5,0 2.92,0.13 4.27,0.4 1.35,0.27 2.86,0.81 4.52,1.61l0 5.33 -0.66 0c-0.28,-0.21 -0.7,-0.52 -1.25,-0.91 -0.55,-0.39 -1.07,-0.72 -1.58,-1 -0.6,-0.32 -1.28,-0.6 -2.07,-0.83 -0.79,-0.24 -1.63,-0.35 -2.51,-0.35 -1.04,0 -1.98,0.15 -2.83,0.45 -0.84,0.31 -1.6,0.77 -2.27,1.41 -0.64,0.61 -1.15,1.39 -1.52,2.33 -0.37,0.94 -0.56,2.02 -0.56,3.25 0,2.52 0.67,4.44 2.01,5.77 1.33,1.33 3.3,2 5.91,2 0.23,0 0.48,0 0.75,-0.01 0.26,-0.02 0.51,-0.03 0.74,-0.05l0 -4.47 -4.56 0 0 -4.28 10.49 0 0 11.23z"/>
   <polygon id="1" class="fil0" points="564.89,2009.19 551.58,2009.19 551.58,2005.16 555.3,2005.16 555.3,1990.51 551.58,1990.51 551.58,1986.48 564.89,1986.48 564.89,1990.51 561.17,1990.51 561.17,2005.16 564.89,2005.16 "/>
   <polygon id="2" class="fil0" points="590.89,1990.88 583.79,1990.88 583.79,2009.19 577.92,2009.19 577.92,1990.88 570.83,1990.88 570.83,1986.48 590.89,1986.48 "/>
   <polygon id="3" class="fil0" points="618.19,2009.19 612.31,2009.19 612.31,1999.19 603.72,1999.19 603.72,2009.19 597.85,2009.19 597.85,1986.48 603.72,1986.48 603.72,1994.79 612.31,1994.79 612.31,1986.48 618.19,1986.48 "/>
   <path id="4" class="fil0" d="M647.32 2000.96c0,2.81 -0.85,4.96 -2.55,6.45 -1.71,1.5 -4.23,2.25 -7.54,2.25 -3.33,0 -5.84,-0.75 -7.54,-2.25 -1.7,-1.49 -2.55,-3.64 -2.55,-6.43l0 -14.5 5.87 0 0 14.15c0,1.58 0.33,2.75 0.99,3.53 0.66,0.77 1.74,1.16 3.23,1.16 1.46,0 2.53,-0.37 3.2,-1.12 0.68,-0.74 1.02,-1.93 1.02,-3.57l0 -14.15 5.87 0 0 14.48z"/>
   <path id="5" class="fil0" d="M675.69 2002.23c0,1.1 -0.21,2.08 -0.66,2.94 -0.44,0.87 -1.05,1.59 -1.82,2.15 -0.89,0.68 -1.88,1.16 -2.95,1.44 -1.07,0.29 -2.44,0.43 -4.08,0.43l-9.92 0 0 -22.71 8.82 0c1.84,0 3.17,0.06 4.03,0.18 0.85,0.12 1.69,0.39 2.52,0.8 0.87,0.44 1.51,1.03 1.93,1.76 0.42,0.74 0.64,1.58 0.64,2.53 0,1.1 -0.29,2.07 -0.87,2.91 -0.58,0.84 -1.39,1.49 -2.45,1.95l0 0.12c1.48,0.3 2.65,0.91 3.52,1.84 0.86,0.92 1.29,2.14 1.29,3.66zm-7.49 -9.34c0,-0.37 -0.1,-0.75 -0.29,-1.13 -0.18,-0.37 -0.51,-0.66 -0.98,-0.84 -0.43,-0.16 -0.96,-0.25 -1.59,-0.27 -0.63,-0.01 -1.52,-0.02 -2.66,-0.02l-0.54 0 0 4.81 0.91 0c0.91,0 1.69,-0.01 2.34,-0.04 0.65,-0.04 1.16,-0.13 1.54,-0.31 0.52,-0.23 0.86,-0.54 1.02,-0.91 0.16,-0.37 0.25,-0.8 0.25,-1.29zm1.4 9.25c0,-0.73 -0.14,-1.29 -0.41,-1.68 -0.28,-0.39 -0.75,-0.69 -1.42,-0.88 -0.45,-0.13 -1.07,-0.21 -1.87,-0.22 -0.8,-0.01 -1.63,-0.01 -2.49,-0.01l-1.27 0 0 5.68 0.42 0c1.63,0 2.8,0 3.51,-0.01 0.7,-0.01 1.35,-0.14 1.94,-0.4 0.61,-0.26 1.03,-0.6 1.25,-1.02 0.23,-0.42 0.34,-0.91 0.34,-1.46z"/>
  </g>
  <g id="_2383329446448">
   <rect class="fil1" x="684.72" y="2052.44" width="0" height="87.49"/>
   <rect class="fil2" x="684.72" y="2052.44" width="281.21" height="87.49"/>
  </g>
  <g id="_2383329477840">
   <rect class="fil1" x="84.73" y="1959.51" width="0" height="87.49"/>
   <rect class="fil3" x="77.94" y="1959.51" width="366.83" height="95.45"/>
   <g>
    <g text-anchor="middle">
     <polygon class="fil0" points="198.32,2000.28 191.23,2000.28 191.23,2018.59 185.35,2018.59 185.35,2000.28 178.26,2000.28 178.26,1995.88 198.32,1995.88 "/>
     <polygon id="1" class="fil0" points="225.13,1995.88 216.76,2009.81 216.76,2018.59 210.88,2018.59 210.88,2010.08 202.38,1995.88 209.05,1995.88 213.94,2004.65 218.68,1995.88 "/>
     <path id="2" class="fil0" d="M250.2 2003.04c0,1.02 -0.18,2.01 -0.53,2.99 -0.36,0.97 -0.87,1.78 -1.53,2.44 -0.91,0.9 -1.91,1.57 -3.02,2.03 -1.11,0.46 -2.5,0.69 -4.15,0.69l-3.64 0 0 7.4 -5.88 0 0 -22.71 9.64 0c1.45,0 2.66,0.12 3.66,0.37 0.98,0.25 1.87,0.62 2.63,1.12 0.91,0.6 1.61,1.37 2.09,2.3 0.49,0.94 0.73,2.06 0.73,3.37zm-6.09 0.14c0,-0.64 -0.18,-1.18 -0.52,-1.65 -0.34,-0.45 -0.74,-0.78 -1.19,-0.96 -0.61,-0.24 -1.2,-0.38 -1.77,-0.41 -0.58,-0.02 -1.35,-0.03 -2.31,-0.03l-0.99 0 0 6.78 1.66 0c0.99,0 1.8,-0.06 2.44,-0.18 0.64,-0.12 1.18,-0.37 1.62,-0.73 0.37,-0.33 0.64,-0.72 0.8,-1.16 0.17,-0.46 0.26,-1.01 0.26,-1.66z"/>
     <polygon id="3" class="fil0" points="274.08,2018.59 257.64,2018.59 257.64,1995.88 274.08,1995.88 274.08,2000.28 263.52,2000.28 263.52,2004.19 273.33,2004.19 273.33,2008.59 263.52,2008.59 263.52,2014.19 274.08,2014.19 "/>
     <path id="4" class="fil0" d="M300.43 2011.45c0,2.24 -0.94,4.05 -2.84,5.45 -1.89,1.4 -4.47,2.1 -7.72,2.1 -1.88,0 -3.52,-0.17 -4.91,-0.5 -1.4,-0.32 -2.71,-0.75 -3.93,-1.25l0 -5.44 0.64 0c1.21,0.97 2.56,1.71 4.06,2.23 1.5,0.51 2.93,0.77 4.31,0.77 0.36,0 0.83,-0.03 1.41,-0.09 0.58,-0.06 1.05,-0.16 1.42,-0.3 0.44,-0.19 0.81,-0.42 1.1,-0.69 0.29,-0.28 0.43,-0.69 0.43,-1.23 0,-0.49 -0.2,-0.92 -0.63,-1.29 -0.42,-0.36 -1.04,-0.63 -1.85,-0.83 -0.85,-0.2 -1.76,-0.39 -2.71,-0.57 -0.95,-0.18 -1.84,-0.4 -2.68,-0.67 -1.91,-0.62 -3.28,-1.47 -4.11,-2.53 -0.84,-1.06 -1.26,-2.38 -1.26,-3.96 0,-2.11 0.94,-3.83 2.84,-5.17 1.89,-1.34 4.33,-2.01 7.31,-2.01 1.5,0 2.97,0.15 4.43,0.43 1.46,0.3 2.72,0.66 3.79,1.1l0 5.22 -0.63 0c-0.91,-0.73 -2.03,-1.34 -3.36,-1.83 -1.32,-0.49 -2.68,-0.73 -4.06,-0.73 -0.49,0 -0.97,0.03 -1.45,0.1 -0.49,0.07 -0.95,0.19 -1.4,0.37 -0.39,0.15 -0.73,0.38 -1.02,0.69 -0.28,0.31 -0.42,0.66 -0.42,1.06 0,0.6 0.23,1.05 0.68,1.38 0.46,0.32 1.32,0.61 2.59,0.87 0.83,0.17 1.64,0.35 2.41,0.51 0.76,0.16 1.59,0.38 2.47,0.67 1.74,0.57 3.02,1.34 3.85,2.32 0.83,0.98 1.24,2.26 1.24,3.82z"/>
     <path id="5" class="fil0" d="M318.04 2019.06c-1.69,0 -3.25,-0.25 -4.68,-0.75 -1.44,-0.5 -2.67,-1.24 -3.69,-2.23 -1.03,-0.99 -1.83,-2.22 -2.39,-3.7 -0.57,-1.48 -0.85,-3.19 -0.85,-5.12 0,-1.81 0.27,-3.44 0.81,-4.91 0.54,-1.47 1.33,-2.73 2.35,-3.77 0.99,-1.01 2.21,-1.8 3.67,-2.34 1.46,-0.55 3.06,-0.83 4.79,-0.83 0.96,0 1.82,0.05 2.59,0.16 0.77,0.1 1.48,0.25 2.13,0.42 0.68,0.2 1.3,0.41 1.85,0.65 0.56,0.24 1.05,0.46 1.46,0.66l0 5.51 -0.67 0c-0.28,-0.24 -0.64,-0.53 -1.08,-0.86 -0.43,-0.33 -0.92,-0.66 -1.47,-0.98 -0.56,-0.33 -1.17,-0.6 -1.82,-0.82 -0.65,-0.23 -1.35,-0.33 -2.09,-0.33 -0.82,0 -1.6,0.13 -2.35,0.39 -0.74,0.25 -1.43,0.68 -2.06,1.28 -0.6,0.59 -1.09,1.35 -1.46,2.3 -0.37,0.96 -0.56,2.12 -0.56,3.48 0,1.43 0.21,2.62 0.61,3.57 0.4,0.96 0.9,1.71 1.52,2.26 0.62,0.56 1.31,0.96 2.07,1.2 0.77,0.24 1.52,0.36 2.26,0.36 0.71,0 1.42,-0.11 2.12,-0.32 0.69,-0.21 1.34,-0.5 1.93,-0.86 0.5,-0.29 0.96,-0.6 1.39,-0.93 0.42,-0.34 0.78,-0.62 1.05,-0.86l0.61 0 0 5.42c-0.56,0.25 -1.11,0.49 -1.63,0.72 -0.52,0.22 -1.06,0.41 -1.64,0.57 -0.74,0.22 -1.43,0.38 -2.09,0.49 -0.65,0.11 -1.54,0.17 -2.68,0.17z"/>
     <path id="6" class="fil0" d="M346.37 2002.81c0,-0.56 -0.12,-1.04 -0.35,-1.44 -0.23,-0.41 -0.63,-0.73 -1.19,-0.96 -0.39,-0.16 -0.85,-0.26 -1.37,-0.29 -0.52,-0.04 -1.13,-0.06 -1.82,-0.06l-2.09 0 0 6.07 1.78 0c0.92,0 1.69,-0.05 2.31,-0.14 0.63,-0.09 1.15,-0.3 1.57,-0.62 0.4,-0.31 0.69,-0.65 0.88,-1.04 0.18,-0.38 0.28,-0.88 0.28,-1.52zm9.18 15.78l-7.17 0 -6.18 -8.34 -2.65 0 0 8.34 -5.87 0 0 -22.71 9.82 0c1.34,0 2.49,0.08 3.45,0.23 0.97,0.15 1.87,0.48 2.72,0.99 0.85,0.51 1.53,1.16 2.03,1.97 0.51,0.81 0.76,1.82 0.76,3.04 0,1.68 -0.39,3.04 -1.16,4.1 -0.78,1.06 -1.89,1.94 -3.33,2.64l7.58 9.74z"/>
     <polygon id="7" class="fil0" points="373.69,2018.59 360.38,2018.59 360.38,2014.56 364.1,2014.56 364.1,1999.91 360.38,1999.91 360.38,1995.88 373.69,1995.88 373.69,1999.91 369.97,1999.91 369.97,2014.56 373.69,2014.56 "/>
     <path id="8" class="fil0" d="M400.51 2003.04c0,1.02 -0.18,2.01 -0.53,2.99 -0.36,0.97 -0.87,1.78 -1.53,2.44 -0.91,0.9 -1.91,1.57 -3.02,2.03 -1.11,0.46 -2.5,0.69 -4.16,0.69l-3.64 0 0 7.4 -5.87 0 0 -22.71 9.64 0c1.45,0 2.66,0.12 3.65,0.37 0.99,0.25 1.88,0.62 2.63,1.12 0.92,0.6 1.62,1.37 2.1,2.3 0.49,0.94 0.73,2.06 0.73,3.37zm-6.1 0.14c0,-0.64 -0.17,-1.18 -0.51,-1.65 -0.35,-0.45 -0.74,-0.78 -1.19,-0.96 -0.61,-0.24 -1.2,-0.38 -1.77,-0.41 -0.58,-0.02 -1.35,-0.03 -2.31,-0.03l-1 0 0 6.78 1.67 0c0.99,0 1.8,-0.06 2.44,-0.18 0.64,-0.12 1.18,-0.37 1.62,-0.73 0.37,-0.33 0.64,-0.72 0.8,-1.16 0.17,-0.46 0.25,-1.01 0.25,-1.66z"/>
     <polygon id="9" class="fil0" points="425.73,2000.28 418.64,2000.28 418.64,2018.59 412.76,2018.59 412.76,2000.28 405.67,2000.28 405.67,1995.88 425.73,1995.88 "/>
    </g>
    <path class="fil4" d="M96.98 1990.94l0 3.59 11.48 0 0 32.66 8.14 0 0 -32.66 11.47 0 0 -3.53c0,-1.98 0,-3.59 -0.09,-3.64 0,-0.07 -6.99,-0.09 -15.49,-0.09l-15.44 0.07 0 3.62 -0.07 -0.02 0 0zm51.57 -3.69c2.25,0.53 3.97,1.55 5.52,3.16 0.81,0.88 2.03,2.42 2.12,2.82 0,0.13 -3.82,2.72 -6.14,4.15 -0.09,0.07 -0.44,-0.31 -0.79,-0.88 -1.15,-1.64 -2.32,-2.34 -4.15,-2.47 -2.65,-0.18 -4.41,1.21 -4.41,3.53 0,0.7 0.13,1.1 0.39,1.67 0.6,1.22 1.7,1.95 5.12,3.45 6.31,2.71 9.05,4.5 10.7,7.06 1.88,2.87 2.3,7.37 1.04,10.74 -1.41,3.69 -4.85,6.18 -9.77,7 -1.55,0.26 -5.08,0.22 -6.73,-0.07 -3.53,-0.66 -6.91,-2.42 -8.99,-4.7 -0.81,-0.88 -2.38,-3.24 -2.29,-3.39l0.84 -0.53 3.31 -1.92 2.49 -1.46 0.57 0.77c0.73,1.15 2.37,2.69 3.32,3.22 2.86,1.48 6.7,1.28 8.6,-0.44 0.82,-0.75 1.17,-1.54 1.17,-2.65 0,-1.01 -0.15,-1.47 -0.66,-2.25 -0.71,-0.97 -2.12,-1.76 -6.09,-3.53 -4.57,-1.94 -6.51,-3.18 -8.32,-5.07 -1.04,-1.15 -1.99,-2.94 -2.43,-4.42 -0.33,-1.28 -0.44,-4.41 -0.13,-5.67 0.95,-4.41 4.28,-7.5 9.05,-8.38 1.54,-0.31 5.18,-0.18 6.71,0.22l-0.05 0.04 0 0z"/>
   </g>
  </g>
 </g>
</svg>
