<?xml version="1.0" encoding="UTF-8"?>
<!DOCTYPE svg PUBLIC "-//W3C//DTD SVG 1.1//EN" "http://www.w3.org/Graphics/SVG/1.1/DTD/svg11.dtd">
<!-- Creator: CorelDRAW 2019 (64 Bit) -->
<svg xmlns="http://www.w3.org/2000/svg" xml:space="preserve" width="114px" height="30px" version="1.1" style="shape-rendering:geometricPrecision; text-rendering:geometricPrecision; image-rendering:optimizeQuality; fill-rule:evenodd; clip-rule:evenodd"
viewBox="0 0 6.07 1.58"
 xmlns:xlink="http://www.w3.org/1999/xlink">
 <defs>
  <style type="text/css">
   <![CDATA[
    .fil1 {fill:#007ACC}
    .fil0 {fill:#555555}
    .fil3 {fill:white}
    .fil2 {fill:white;fill-rule:nonzero}
   ]]>
  </style>
 </defs>
 <g id="Camada_x0020_1">
  <metadata id="CorelCorpID_0Corel-Layer"/>
  <g id="_2383326987536">
   <rect class="fil0" x="0.11" width="0" height="1.45"/>
   <rect class="fil1" width="6.07" height="1.58"/>
   <g>
    <g text-anchor="middle">
     <polygon class="fil2" points="1.99,0.67 1.87,0.67 1.87,0.98 1.78,0.98 1.78,0.67 1.66,0.67 1.66,0.6 1.99,0.6 "/>
     <polygon id="1" class="fil2" points="2.43,0.6 2.3,0.83 2.3,0.98 2.2,0.98 2.2,0.84 2.06,0.6 2.17,0.6 2.25,0.75 2.33,0.6 "/>
     <path id="2" class="fil2" d="M2.85 0.72c0,0.02 0,0.03 -0.01,0.05 -0.01,0.02 -0.01,0.03 -0.03,0.04 -0.01,0.01 -0.03,0.03 -0.05,0.03 -0.01,0.01 -0.04,0.01 -0.06,0.01l-0.06 0 0 0.13 -0.1 0 0 -0.38 0.16 0c0.02,0 0.04,0 0.06,0.01 0.01,0 0.03,0.01 0.04,0.02 0.02,0.01 0.03,0.02 0.04,0.03 0,0.02 0.01,0.04 0.01,0.06zm-0.1 0c0,-0.01 -0.01,-0.02 -0.01,-0.03 -0.01,0 -0.01,-0.01 -0.02,-0.01 -0.01,-0.01 -0.02,-0.01 -0.03,-0.01 -0.01,0 -0.02,0 -0.04,0l-0.01 0 0 0.11 0.02 0c0.02,0 0.03,0 0.04,0 0.01,0 0.02,-0.01 0.03,-0.01 0.01,-0.01 0.01,-0.01 0.01,-0.02 0.01,-0.01 0.01,-0.02 0.01,-0.03z"/>
     <polygon id="3" class="fil2" points="3.24,0.98 2.97,0.98 2.97,0.6 3.24,0.6 3.24,0.67 3.07,0.67 3.07,0.74 3.23,0.74 3.23,0.81 3.07,0.81 3.07,0.9 3.24,0.9 "/>
     <path id="4" class="fil2" d="M3.68 0.86c0,0.04 -0.02,0.07 -0.05,0.09 -0.03,0.02 -0.07,0.03 -0.13,0.03 -0.03,0 -0.05,0 -0.08,0 -0.02,-0.01 -0.04,-0.02 -0.06,-0.03l0 -0.09 0.01 0c0.02,0.02 0.04,0.03 0.07,0.04 0.02,0.01 0.04,0.01 0.07,0.01 0,0 0.01,0 0.02,0 0.01,0 0.02,0 0.02,0 0.01,-0.01 0.02,-0.01 0.02,-0.01 0.01,-0.01 0.01,-0.01 0.01,-0.02 0,-0.01 0,-0.02 -0.01,-0.03 -0.01,0 -0.02,-0.01 -0.03,-0.01 -0.02,0 -0.03,-0.01 -0.05,-0.01 -0.01,0 -0.03,0 -0.04,-0.01 -0.03,-0.01 -0.06,-0.02 -0.07,-0.04 -0.01,-0.02 -0.02,-0.04 -0.02,-0.07 0,-0.03 0.02,-0.06 0.05,-0.08 0.03,-0.02 0.07,-0.04 0.12,-0.04 0.02,0 0.05,0.01 0.07,0.01 0.03,0.01 0.05,0.01 0.06,0.02l0 0.09 -0.01 0c-0.01,-0.02 -0.03,-0.03 -0.05,-0.03 -0.02,-0.01 -0.05,-0.02 -0.07,-0.02 -0.01,0 -0.02,0 -0.02,0.01 -0.01,0 -0.02,0 -0.03,0 0,0 -0.01,0.01 -0.01,0.01 -0.01,0.01 -0.01,0.01 -0.01,0.02 0,0.01 0,0.02 0.01,0.02 0.01,0.01 0.02,0.01 0.04,0.02 0.02,0 0.03,0 0.04,0.01 0.02,0 0.03,0 0.04,0.01 0.03,0.01 0.05,0.02 0.07,0.04 0.01,0.01 0.02,0.03 0.02,0.06z"/>
     <path id="5" class="fil2" d="M3.97 0.98c-0.03,0 -0.05,0 -0.08,-0.01 -0.02,-0.01 -0.04,-0.02 -0.06,-0.03 -0.02,-0.02 -0.03,-0.04 -0.04,-0.07 -0.01,-0.02 -0.01,-0.05 -0.01,-0.08 0,-0.03 0,-0.06 0.01,-0.08 0.01,-0.03 0.02,-0.05 0.04,-0.06 0.02,-0.02 0.04,-0.03 0.06,-0.04 0.03,-0.01 0.05,-0.02 0.08,-0.02 0.02,0 0.03,0 0.04,0.01 0.02,0 0.03,0 0.04,0 0.01,0.01 0.02,0.01 0.03,0.01 0.01,0.01 0.02,0.01 0.02,0.01l0 0.1 -0.01 0c0,-0.01 -0.01,-0.01 -0.02,-0.02 0,0 -0.01,-0.01 -0.02,-0.01 -0.01,-0.01 -0.02,-0.01 -0.03,-0.02 -0.01,0 -0.02,0 -0.04,0 -0.01,0 -0.02,0 -0.03,0 -0.02,0.01 -0.03,0.01 -0.04,0.02 -0.01,0.01 -0.02,0.03 -0.02,0.04 -0.01,0.02 -0.01,0.04 -0.01,0.06 0,0.02 0,0.04 0.01,0.06 0.01,0.01 0.01,0.03 0.02,0.04 0.01,0.01 0.03,0.01 0.04,0.02 0.01,0 0.02,0 0.04,0 0.01,0 0.02,0 0.03,0 0.01,-0.01 0.02,-0.01 0.03,-0.02 0.01,0 0.02,-0.01 0.03,-0.01 0,-0.01 0.01,-0.01 0.01,-0.02l0.01 0 0 0.09c-0.01,0.01 -0.02,0.01 -0.02,0.01 -0.01,0.01 -0.02,0.01 -0.03,0.01 -0.01,0.01 -0.03,0.01 -0.04,0.01 -0.01,0 -0.02,0 -0.04,0z"/>
     <path id="6" class="fil2" d="M4.44 0.72c0,-0.01 0,-0.02 -0.01,-0.03 0,0 -0.01,-0.01 -0.02,-0.01 0,-0.01 -0.01,-0.01 -0.02,-0.01 -0.01,0 -0.02,0 -0.03,0l-0.03 0 0 0.1 0.02 0c0.02,0 0.03,0 0.04,0 0.01,0 0.02,-0.01 0.03,-0.01 0.01,-0.01 0.01,-0.01 0.01,-0.02 0.01,-0.01 0.01,-0.01 0.01,-0.02zm0.15 0.26l-0.12 0 -0.1 -0.14 -0.04 0 0 0.14 -0.1 0 0 -0.38 0.16 0c0.02,0 0.04,0 0.06,0.01 0.01,0 0.03,0 0.04,0.01 0.02,0.01 0.03,0.02 0.04,0.03 0,0.02 0.01,0.03 0.01,0.05 0,0.03 -0.01,0.05 -0.02,0.07 -0.01,0.02 -0.03,0.03 -0.06,0.05l0.13 0.16z"/>
     <polygon id="7" class="fil2" points="4.89,0.98 4.67,0.98 4.67,0.91 4.73,0.91 4.73,0.67 4.67,0.67 4.67,0.6 4.89,0.6 4.89,0.67 4.83,0.67 4.83,0.91 4.89,0.91 "/>
     <path id="8" class="fil2" d="M5.33 0.72c0,0.02 0,0.03 -0.01,0.05 0,0.02 -0.01,0.03 -0.02,0.04 -0.02,0.01 -0.03,0.03 -0.05,0.03 -0.02,0.01 -0.04,0.01 -0.07,0.01l-0.06 0 0 0.13 -0.1 0 0 -0.38 0.16 0c0.03,0 0.05,0 0.06,0.01 0.02,0 0.03,0.01 0.05,0.02 0.01,0.01 0.02,0.02 0.03,0.03 0.01,0.02 0.01,0.04 0.01,0.06zm-0.1 0c0,-0.01 0,-0.02 -0.01,-0.03 0,0 -0.01,-0.01 -0.02,-0.01 -0.01,-0.01 -0.02,-0.01 -0.02,-0.01 -0.01,0 -0.03,0 -0.04,0l-0.02 0 0 0.11 0.03 0c0.01,0 0.03,0 0.04,0 0.01,0 0.02,-0.01 0.03,-0.01 0,-0.01 0.01,-0.01 0.01,-0.02 0,-0.01 0,-0.02 0,-0.03z"/>
     <polygon id="9" class="fil2" points="5.75,0.67 5.63,0.67 5.63,0.98 5.54,0.98 5.54,0.67 5.42,0.67 5.42,0.6 5.75,0.6 "/>
    </g>
    <path class="fil3" d="M0.31 0.52l0 0.06 0.19 0 0 0.54 0.14 0 0 -0.54 0.19 0 0 -0.06c0,-0.03 0,-0.06 0,-0.06 0,0 -0.12,0 -0.26,0l-0.25 0 0 0.06 -0.01 0 0 0zm0.86 -0.06c0.03,0.01 0.06,0.02 0.09,0.05 0.01,0.02 0.03,0.04 0.03,0.05 0,0 -0.06,0.04 -0.1,0.07 0,0 0,-0.01 -0.01,-0.02 -0.02,-0.03 -0.04,-0.04 -0.07,-0.04 -0.04,0 -0.07,0.02 -0.07,0.06 0,0.01 0,0.02 0,0.03 0.01,0.02 0.03,0.03 0.09,0.05 0.1,0.05 0.15,0.08 0.18,0.12 0.03,0.05 0.03,0.12 0.01,0.18 -0.02,0.06 -0.08,0.1 -0.16,0.11 -0.02,0.01 -0.08,0.01 -0.11,0 -0.06,-0.01 -0.11,-0.04 -0.15,-0.07 -0.01,-0.02 -0.04,-0.06 -0.04,-0.06l0.02 -0.01 0.05 -0.03 0.04 -0.03 0.01 0.02c0.01,0.02 0.04,0.04 0.06,0.05 0.05,0.02 0.11,0.02 0.14,-0.01 0.01,-0.01 0.02,-0.02 0.02,-0.04 0,-0.02 0,-0.03 -0.01,-0.04 -0.01,-0.01 -0.04,-0.03 -0.1,-0.06 -0.08,-0.03 -0.11,-0.05 -0.14,-0.08 -0.02,-0.02 -0.03,-0.05 -0.04,-0.07 -0.01,-0.02 -0.01,-0.08 0,-0.1 0.01,-0.07 0.07,-0.12 0.15,-0.14 0.02,0 0.08,0 0.11,0.01l0 0 0 0z"/>
   </g>
  </g>
 </g>
</svg>
