<?xml version="1.0" encoding="UTF-8"?>
<!DOCTYPE svg PUBLIC "-//W3C//DTD SVG 1.1//EN" "http://www.w3.org/Graphics/SVG/1.1/DTD/svg11.dtd">
<!-- Creator: CorelDRAW 2019 (64 Bit) -->
<svg xmlns="http://www.w3.org/2000/svg" xml:space="preserve" width="267px" height="70px" version="1.1" style="shape-rendering:geometricPrecision; text-rendering:geometricPrecision; image-rendering:optimizeQuality; fill-rule:evenodd; clip-rule:evenodd"
viewBox="0 0 32.38 8.43"
 xmlns:xlink="http://www.w3.org/1999/xlink">
 <defs>
  <style type="text/css">
   <![CDATA[
    .fil1 {fill:#007ACC}
    .fil0 {fill:#555555}
    .fil3 {fill:white}
    .fil2 {fill:white;fill-rule:nonzero}
   ]]>
  </style>
 </defs>
 <g id="Camada_x0020_1">
  <metadata id="CorelCorpID_0Corel-Layer"/>
  <g id="_2383692157104">
   <rect class="fil0" x="0.6" width="0" height="7.72"/>
   <rect class="fil1" width="32.38" height="8.43"/>
   <g>
    <g text-anchor="middle">
     <polygon class="fil2" points="10.63,3.6 10,3.6 10,5.22 9.48,5.22 9.48,3.6 8.86,3.6 8.86,3.21 10.63,3.21 "/>
     <polygon id="1" class="fil2" points="12.99,3.21 12.25,4.44 12.25,5.22 11.74,5.22 11.74,4.46 10.99,3.21 11.57,3.21 12.01,3.98 12.42,3.21 "/>
     <path id="2" class="fil2" d="M15.21 3.84c0,0.09 -0.02,0.18 -0.05,0.27 -0.03,0.08 -0.08,0.15 -0.14,0.21 -0.08,0.08 -0.16,0.14 -0.26,0.18 -0.1,0.04 -0.22,0.06 -0.37,0.06l-0.32 0 0 0.66 -0.52 0 0 -2.01 0.85 0c0.13,0 0.24,0.01 0.32,0.03 0.09,0.03 0.17,0.06 0.24,0.1 0.08,0.06 0.14,0.12 0.18,0.21 0.04,0.08 0.07,0.18 0.07,0.29zm-0.54 0.02c0,-0.06 -0.02,-0.11 -0.05,-0.15 -0.03,-0.04 -0.06,-0.07 -0.1,-0.09 -0.06,-0.02 -0.11,-0.03 -0.16,-0.03 -0.05,0 -0.12,0 -0.2,0l-0.09 0 0 0.59 0.15 0c0.08,0 0.16,0 0.21,-0.01 0.06,-0.01 0.11,-0.03 0.14,-0.07 0.04,-0.03 0.06,-0.06 0.08,-0.1 0.01,-0.04 0.02,-0.09 0.02,-0.14z"/>
     <polygon id="3" class="fil2" points="17.31,5.22 15.86,5.22 15.86,3.21 17.31,3.21 17.31,3.6 16.38,3.6 16.38,3.94 17.25,3.94 17.25,4.33 16.38,4.33 16.38,4.83 17.31,4.83 "/>
     <path id="4" class="fil2" d="M19.64 4.59c0,0.19 -0.08,0.35 -0.25,0.48 -0.17,0.12 -0.4,0.18 -0.68,0.18 -0.17,0 -0.31,-0.01 -0.44,-0.04 -0.12,-0.03 -0.24,-0.07 -0.34,-0.11l0 -0.48 0.05 0c0.11,0.08 0.23,0.15 0.36,0.19 0.13,0.05 0.26,0.07 0.38,0.07 0.03,0 0.08,0 0.13,-0.01 0.05,0 0.09,-0.01 0.12,-0.02 0.04,-0.02 0.07,-0.04 0.1,-0.06 0.02,-0.03 0.04,-0.06 0.04,-0.11 0,-0.05 -0.02,-0.08 -0.06,-0.12 -0.04,-0.03 -0.09,-0.05 -0.16,-0.07 -0.08,-0.02 -0.16,-0.03 -0.24,-0.05 -0.08,-0.02 -0.16,-0.04 -0.24,-0.06 -0.17,-0.05 -0.29,-0.13 -0.36,-0.22 -0.07,-0.1 -0.11,-0.21 -0.11,-0.35 0,-0.19 0.08,-0.34 0.25,-0.46 0.17,-0.12 0.38,-0.18 0.64,-0.18 0.14,0 0.27,0.02 0.39,0.04 0.13,0.03 0.25,0.06 0.34,0.1l0 0.46 -0.06 0c-0.08,-0.06 -0.18,-0.12 -0.29,-0.16 -0.12,-0.04 -0.24,-0.07 -0.36,-0.07 -0.04,0 -0.09,0.01 -0.13,0.01 -0.04,0.01 -0.08,0.02 -0.12,0.04 -0.04,0.01 -0.07,0.03 -0.09,0.06 -0.03,0.02 -0.04,0.06 -0.04,0.09 0,0.05 0.02,0.09 0.06,0.12 0.04,0.03 0.12,0.06 0.23,0.08 0.07,0.01 0.14,0.03 0.21,0.04 0.07,0.02 0.14,0.04 0.22,0.06 0.15,0.05 0.27,0.12 0.34,0.21 0.07,0.08 0.11,0.2 0.11,0.34z"/>
     <path id="5" class="fil2" d="M21.19 5.26c-0.15,0 -0.28,-0.03 -0.41,-0.07 -0.13,-0.04 -0.23,-0.11 -0.33,-0.2 -0.09,-0.08 -0.16,-0.19 -0.21,-0.32 -0.05,-0.13 -0.07,-0.28 -0.07,-0.46 0,-0.15 0.02,-0.3 0.07,-0.43 0.05,-0.13 0.12,-0.24 0.21,-0.33 0.09,-0.09 0.19,-0.16 0.32,-0.21 0.13,-0.05 0.27,-0.07 0.42,-0.07 0.09,0 0.17,0 0.23,0.01 0.07,0.01 0.13,0.02 0.19,0.04 0.06,0.02 0.12,0.04 0.16,0.06 0.05,0.02 0.1,0.04 0.13,0.06l0 0.48 -0.06 0c-0.02,-0.02 -0.05,-0.04 -0.09,-0.07 -0.04,-0.03 -0.08,-0.06 -0.13,-0.09 -0.05,-0.03 -0.1,-0.05 -0.16,-0.07 -0.06,-0.02 -0.12,-0.03 -0.19,-0.03 -0.07,0 -0.14,0.01 -0.2,0.03 -0.07,0.02 -0.13,0.06 -0.19,0.12 -0.05,0.05 -0.09,0.11 -0.12,0.2 -0.04,0.08 -0.05,0.19 -0.05,0.31 0,0.12 0.01,0.23 0.05,0.31 0.04,0.09 0.08,0.15 0.13,0.2 0.06,0.05 0.12,0.08 0.19,0.11 0.06,0.02 0.13,0.03 0.2,0.03 0.06,0 0.12,-0.01 0.18,-0.03 0.06,-0.02 0.12,-0.04 0.17,-0.08 0.05,-0.02 0.09,-0.05 0.13,-0.08 0.03,-0.03 0.07,-0.05 0.09,-0.07l0.05 0 0 0.47c-0.05,0.03 -0.09,0.05 -0.14,0.07 -0.05,0.02 -0.09,0.03 -0.15,0.05 -0.06,0.02 -0.12,0.03 -0.18,0.04 -0.06,0.01 -0.14,0.02 -0.24,0.02z"/>
     <path id="6" class="fil2" d="M23.69 3.82c0,-0.05 -0.01,-0.09 -0.03,-0.13 -0.02,-0.03 -0.05,-0.06 -0.1,-0.08 -0.04,-0.01 -0.08,-0.02 -0.12,-0.03 -0.05,0 -0.1,0 -0.16,0l-0.19 0 0 0.54 0.16 0c0.08,0 0.15,-0.01 0.2,-0.02 0.06,-0.01 0.1,-0.02 0.14,-0.05 0.04,-0.03 0.06,-0.06 0.08,-0.09 0.02,-0.04 0.02,-0.08 0.02,-0.14zm0.81 1.4l-0.63 0 -0.54 -0.74 -0.24 0 0 0.74 -0.52 0 0 -2.01 0.87 0c0.12,0 0.22,0.01 0.31,0.02 0.08,0.01 0.16,0.04 0.23,0.09 0.08,0.04 0.14,0.1 0.18,0.17 0.05,0.07 0.07,0.16 0.07,0.27 0,0.15 -0.03,0.27 -0.1,0.36 -0.07,0.1 -0.17,0.17 -0.3,0.24l0.67 0.86z"/>
     <polygon id="7" class="fil2" points="26.11,5.22 24.93,5.22 24.93,4.86 25.26,4.86 25.26,3.57 24.93,3.57 24.93,3.21 26.11,3.21 26.11,3.57 25.78,3.57 25.78,4.86 26.11,4.86 "/>
     <path id="8" class="fil2" d="M28.47 3.84c0,0.09 -0.01,0.18 -0.05,0.27 -0.03,0.08 -0.07,0.15 -0.13,0.21 -0.08,0.08 -0.17,0.14 -0.27,0.18 -0.09,0.04 -0.22,0.06 -0.36,0.06l-0.32 0 0 0.66 -0.52 0 0 -2.01 0.85 0c0.13,0 0.23,0.01 0.32,0.03 0.09,0.03 0.17,0.06 0.23,0.1 0.08,0.06 0.15,0.12 0.19,0.21 0.04,0.08 0.06,0.18 0.06,0.29zm-0.54 0.02c0,-0.06 -0.01,-0.11 -0.04,-0.15 -0.03,-0.04 -0.07,-0.07 -0.11,-0.09 -0.05,-0.02 -0.1,-0.03 -0.15,-0.03 -0.05,0 -0.12,0 -0.21,0l-0.08 0 0 0.59 0.14 0c0.09,0 0.16,0 0.22,-0.01 0.05,-0.01 0.1,-0.03 0.14,-0.07 0.03,-0.03 0.06,-0.06 0.07,-0.1 0.02,-0.04 0.02,-0.09 0.02,-0.14z"/>
     <polygon id="9" class="fil2" points="30.7,3.6 30.07,3.6 30.07,5.22 29.55,5.22 29.55,3.6 28.93,3.6 28.93,3.21 30.7,3.21 "/>
    </g>
    <path class="fil3" d="M1.68 2.77l0 0.32 1.01 0 0 2.88 0.72 0 0 -2.88 1.02 0 0 -0.31c0,-0.18 0,-0.32 -0.01,-0.32 0,-0.01 -0.62,-0.01 -1.37,-0.01l-1.36 0.01 0 0.32 -0.01 -0.01 0 0zm4.55 -0.32c0.2,0.05 0.35,0.14 0.49,0.28 0.07,0.08 0.18,0.21 0.19,0.25 0,0.01 -0.34,0.24 -0.54,0.36 -0.01,0.01 -0.04,-0.02 -0.07,-0.08 -0.11,-0.14 -0.21,-0.2 -0.37,-0.21 -0.23,-0.02 -0.39,0.1 -0.39,0.31 0,0.06 0.01,0.1 0.03,0.15 0.06,0.1 0.15,0.17 0.46,0.3 0.55,0.24 0.79,0.4 0.94,0.62 0.17,0.26 0.2,0.65 0.09,0.95 -0.12,0.33 -0.43,0.55 -0.86,0.62 -0.14,0.02 -0.45,0.02 -0.59,-0.01 -0.32,-0.05 -0.61,-0.21 -0.8,-0.41 -0.07,-0.08 -0.21,-0.29 -0.2,-0.3l0.07 -0.05 0.3 -0.17 0.22 -0.13 0.05 0.07c0.06,0.1 0.21,0.24 0.29,0.29 0.25,0.13 0.59,0.11 0.76,-0.04 0.07,-0.07 0.1,-0.14 0.1,-0.24 0,-0.09 -0.01,-0.13 -0.06,-0.19 -0.06,-0.09 -0.18,-0.16 -0.53,-0.32 -0.41,-0.17 -0.58,-0.28 -0.74,-0.44 -0.09,-0.11 -0.17,-0.26 -0.21,-0.39 -0.03,-0.12 -0.04,-0.39 -0.01,-0.5 0.08,-0.39 0.37,-0.67 0.79,-0.74 0.14,-0.03 0.46,-0.02 0.6,0.01l-0.01 0.01 0 0z"/>
   </g>
  </g>
 </g>
</svg>
